<?xml version="1.0" encoding="UTF-8" standalone="no"?>
<!DOCTYPE svg PUBLIC "-//W3C//DTD SVG 1.1//EN" "http://www.w3.org/Graphics/SVG/1.1/DTD/svg11.dtd">
<svg width="100%" height="100%" viewBox="0 0 422 446" version="1.1" xmlns="http://www.w3.org/2000/svg" xmlns:xlink="http://www.w3.org/1999/xlink" xml:space="preserve" xmlns:serif="http://www.serif.com/" style="fill-rule:evenodd;clip-rule:evenodd;stroke-linejoin:round;stroke-miterlimit:1.41421;">
    <g transform="matrix(1,0,0,1,-1403.23,-149.399)">
        <path d="M1747.08,149.401C1747.08,149.401 1805.7,179.571 1809.09,189.655C1812.48,199.738 1827.96,263.636 1819.67,278.302C1811.39,292.967 1756.34,324.125 1756.34,324.125C1760.87,312.472 1765.37,300.793 1769.21,288.891L1740.51,292.034L1742.37,264.57L1774.89,266.663C1776.47,255.328 1777.91,243.882 1777.99,232.417L1742.74,232.417L1742.37,214.48L1773.58,203.622C1764.39,185.73 1755.72,167.567 1747.08,149.401Z" style="fill:rgb(128,128,128);fill-rule:nonzero;"/>
        <path d="M1747.08,149.402C1747.08,149.402 1793.92,183.151 1799.95,193.924C1805.98,204.698 1811.42,257.278 1808.41,272.199C1805.39,287.12 1756.34,324.127 1756.34,324.127C1756.34,324.127 1814.14,294.105 1822.43,279.44C1830.72,264.775 1815.27,198.743 1811.88,188.659C1808.5,178.576 1747.08,149.402 1747.08,149.402Z" style="fill:rgb(186,186,186);fill-rule:nonzero;"/>
        <path d="M1807.6,274.471L1822.1,279.947C1814.4,290.063 1802.73,297.047 1792.11,303.705C1780.49,310.992 1768.5,317.775 1756.34,324.125C1771.74,311.492 1799.32,291.725 1807.6,274.471Z" style="fill:rgb(164,164,164);fill-rule:nonzero;"/>
        <path d="M1774.89,266.663L1773.81,269.981L1746.44,270.04L1746.07,264.942L1774.89,266.663Z" style="fill:rgb(186,186,186);fill-rule:nonzero;"/>
        <path d="M1747.08,149.399C1762.55,156.875 1777.89,164.676 1792.67,173.452C1799.1,177.268 1806.15,181.305 1810.97,187.135L1799.83,193.742C1786.14,177.222 1764.63,162.091 1747.08,149.399Z" style="fill:rgb(207,207,207);fill-rule:nonzero;"/>
        <path d="M1747.08,149.402L1747.09,149.404C1754.8,153.146 1750.95,151.258 1758.63,155.069C1758.66,155.081 1758.65,155.076 1758.66,155.084C1763.81,157.676 1768.95,160.271 1774.01,163.019C1777.22,164.676 1775.23,163.627 1779.93,166.233C1784.79,168.868 1782.75,167.71 1786.1,169.649C1788.98,171.249 1786.77,170.014 1792.67,173.454C1797.25,176.211 1801.98,178.818 1806.02,182.36C1808.31,184.086 1810.61,186.037 1811.88,188.659C1815.27,198.743 1830.72,264.775 1822.43,279.44C1820.34,282.831 1817.37,285.597 1814.31,288.096C1807.63,294.235 1799.77,298.912 1792.11,303.706C1782.7,309.459 1786.31,307.379 1781.42,310.163C1776.72,312.933 1771.99,315.644 1767.2,318.269C1764.38,319.875 1766.03,318.961 1762.25,320.973C1760.29,322.039 1758.32,323.093 1756.34,324.127L1756.34,324.126L1756.34,324.127C1760.87,312.474 1765.38,300.794 1769.21,288.892L1740.51,292.035L1742.37,264.571L1774.89,266.664C1776.47,255.33 1777.91,243.882 1777.99,232.417L1742.74,232.417L1742.37,214.481L1773.59,203.623C1764.39,185.731 1755.72,167.569 1747.08,149.402Z" style="fill:url(#_Linear1);fill-rule:nonzero;"/>
        <path d="M1773.59,203.622L1776.35,208.155L1747.08,216.308L1747.08,212.938L1773.59,203.622Z" style="fill:rgb(186,186,186);fill-rule:nonzero;"/>
        <path d="M1747.08,149.402L1747.09,149.404C1754.8,153.146 1750.95,151.258 1758.63,155.069C1758.66,155.081 1758.65,155.076 1758.66,155.084C1763.81,157.676 1768.95,160.271 1774.01,163.019C1777.22,164.676 1775.23,163.627 1779.93,166.233C1784.79,168.868 1782.75,167.71 1786.1,169.649C1788.98,171.249 1786.77,170.014 1792.67,173.454C1797.25,176.211 1801.98,178.818 1806.02,182.36C1808.31,184.086 1810.61,186.037 1811.88,188.659C1815.27,198.743 1830.72,264.775 1822.43,279.44C1820.34,282.831 1817.37,285.597 1814.31,288.096C1807.63,294.235 1799.77,298.912 1792.11,303.706C1782.7,309.459 1786.31,307.379 1781.42,310.163C1776.72,312.933 1771.99,315.644 1767.2,318.269C1764.38,319.875 1766.03,318.961 1762.25,320.973C1760.29,322.039 1758.32,323.093 1756.34,324.127L1756.34,324.126L1756.34,324.127C1760.87,312.474 1765.38,300.794 1769.21,288.892L1740.51,292.035L1742.37,264.571L1774.89,266.664C1776.47,255.33 1777.91,243.882 1777.99,232.417L1742.74,232.417L1742.37,214.481L1773.59,203.623C1764.39,185.731 1755.72,167.569 1747.08,149.402Z" style="fill:url(#_Radial2);fill-rule:nonzero;"/>
        <path d="M1655.83,384.488C1655.83,384.488 1642.92,369.125 1641.4,368.053C1639.87,366.981 1647.48,387.655 1647.48,387.655L1655.83,384.488Z" style="fill:rgb(127,127,127);fill-rule:nonzero;"/>
        <path d="M1633.94,397.529C1633.94,397.529 1611.68,392.713 1609.27,392.713C1606.86,392.713 1628.86,406.819 1628.86,406.819L1633.94,397.529Z" style="fill:rgb(127,127,127);fill-rule:nonzero;"/>
        <path d="M1635.42,438.975C1635.42,438.975 1625.38,450.56 1625.38,452.931C1625.38,455.302 1639.32,444.87 1639.32,444.87L1635.42,438.975Z" style="fill:rgb(127,127,127);fill-rule:nonzero;"/>
        <path d="M1670.56,448.047C1670.29,451.049 1658.85,449.745 1656.31,445.97C1653.78,442.194 1670.85,444.929 1670.56,448.047Z" style="fill:rgb(128,128,128);fill-rule:nonzero;"/>
        <path d="M1652.5,389.251C1653.21,385.988 1667.79,383.817 1672.22,389.251C1676.65,394.684 1651.69,392.971 1652.5,389.251Z" style="fill:white;fill-rule:nonzero;"/>
        <path d="M1643.82,392.305C1643.47,391.109 1647.35,388.822 1648.49,389.758C1650.1,391.095 1644.18,393.515 1643.82,392.305Z" style="fill:white;fill-rule:nonzero;"/>
        <path d="M1571.9,595.284C1495.47,595.284 1433.51,588.3 1433.51,579.684C1433.51,571.069 1495.47,564.085 1571.9,564.085C1648.34,564.085 1710.3,571.069 1710.3,579.684C1710.3,588.3 1648.34,595.284 1571.9,595.284Z" style="fill-opacity:0.345098;fill-rule:nonzero;"/>
        <path d="M1490.23,547.888C1489.4,569.776 1499.34,601.538 1520.62,563.139C1541.9,524.743 1514.42,510.052 1500.38,525.018C1486.35,539.983 1490.23,547.888 1490.23,547.888Z" style="fill:rgb(139,27,142);fill-rule:nonzero;"/>
        <path d="M1673.74,401.212C1690.99,450.557 1710.3,443.174 1722.7,425.016C1735.11,406.86 1738.99,390.62 1750.48,401.212C1761.97,411.803 1769.69,472.999 1732.93,494.323C1696.17,515.647 1655.23,482.427 1655.23,482.427" style="fill:rgb(197,26,184);fill-rule:nonzero;"/>
        <path d="M1454.86,239.156C1464.17,238.879 1473.07,241.739 1481.48,245.518C1482.46,245.963 1484.86,245.999 1484.38,246.974C1479.64,256.704 1473.75,265.893 1467.31,274.592C1466.77,275.318 1465.85,273.525 1465.13,272.975C1462.25,270.768 1460.29,269.244 1457.57,266.886C1453.22,263.108 1440.05,251.149 1444.29,244.112L1453.4,248.024L1446.94,241.291C1449.17,239.566 1452.21,239.501 1454.86,239.156Z" style="fill:rgb(122,16,114);fill-rule:nonzero;"/>
        <path d="M1514.03,519.293C1527.88,521.402 1530.17,535.154 1527.26,546.899C1525.84,552.647 1523.36,557.925 1520.62,563.138C1520.3,563.689 1518.92,566.373 1518.29,566.35C1498.42,565.625 1493.79,560.829 1490.78,559.804C1490.05,555.878 1490.19,551.863 1490.23,547.888C1490.23,547.888 1486.35,539.982 1500.38,525.015C1503.2,522.078 1506.8,519.941 1510.87,519.389C1511.92,519.247 1512.98,519.325 1514.03,519.293Z" style="fill:rgb(108,21,111);fill-rule:nonzero;"/>
        <path d="M1759.94,437.723C1760.32,459.556 1752.27,482.565 1732.93,494.324C1696.17,515.648 1655.23,482.429 1655.23,482.429L1655.78,480.038C1672.53,492.43 1694.41,501.593 1715.57,497.847C1721.79,496.745 1727.39,494.463 1732.93,491.512C1752.56,479.899 1758.56,459.144 1759.94,437.723Z" style="fill:url(#_Linear3);fill-rule:nonzero;"/>
        <path d="M1743.87,397.853C1746.51,397.98 1748.55,399.533 1750.48,401.213C1756.61,407.933 1758,417.708 1759.34,426.408C1756.28,448.62 1736.42,464.37 1714.83,464.292C1710.2,464.275 1704.55,463.682 1701.23,459.997C1697.18,453.58 1698.08,445.247 1698.88,438.051C1709.21,441.015 1717.14,432.869 1722.7,425.017C1727.46,418.475 1730.81,410.988 1735.44,404.374C1737.74,401.106 1739.91,398.426 1743.87,397.853Z" style="fill:rgb(255,33,239);fill-rule:nonzero;"/>
        <path d="M1444.62,354.336L1444.62,387.005C1436.39,390.736 1423.67,395.896 1415.06,395.412L1418.81,387.655L1411.61,395.12C1406.57,394.209 1404.16,391.679 1403.3,386.668C1401.28,367.134 1444.62,354.336 1444.62,354.336Z" style="fill:rgb(122,16,114);fill-rule:nonzero;"/>
        <path d="M1673.74,401.754C1690.99,451.098 1710.3,443.715 1722.7,425.559C1735.11,407.402 1738.99,391.163 1750.48,401.754C1761.97,412.346 1769.69,473.542 1732.93,494.865C1696.17,516.189 1655.23,482.97 1655.23,482.97" style="fill:url(#_Linear4);fill-rule:nonzero;"/>
        <path d="M1454.86,239.156C1464.17,238.879 1473.07,241.739 1481.48,245.518C1482.46,245.963 1484.86,245.999 1484.38,246.974C1479.64,256.704 1473.75,265.893 1467.31,274.592C1466.77,275.318 1465.85,273.525 1465.13,272.975C1462.25,270.768 1460.29,269.244 1457.57,266.886C1453.22,263.108 1440.05,251.149 1444.29,244.112L1453.4,248.024L1446.94,241.291C1449.17,239.566 1452.21,239.501 1454.86,239.156Z" style="fill:url(#_Linear5);fill-rule:nonzero;"/>
        <path d="M1444.62,354.336L1444.62,387.005C1436.39,390.736 1423.67,395.896 1415.06,395.412L1418.81,387.655L1411.61,395.12C1406.57,394.209 1404.16,391.679 1403.3,386.668C1401.28,367.134 1444.62,354.336 1444.62,354.336Z" style="fill:url(#_Linear6);fill-rule:nonzero;"/>
        <path d="M1538.71,189.383C1576.32,202.054 1610.83,223.11 1639.52,250.466C1639.52,250.466 1624.64,286.946 1613.6,309.506C1613.6,309.506 1668.32,291.266 1688,299.906C1707.68,308.546 1674.56,501.026 1674.56,501.026C1674.56,501.026 1707.2,536.066 1702.88,546.626C1698.56,557.186 1594.88,572.066 1526.72,557.666C1458.56,543.266 1447.52,538.946 1447.52,538.946C1447.52,538.946 1437.92,439.106 1435.04,393.986C1435.01,354.89 1448.84,314.952 1464.19,279.585C1477.16,249.714 1493.12,220.58 1515.74,196.902C1517.12,196.41 1518.5,195.918 1519.88,195.427C1521.88,194.715 1523.69,194.085 1525.43,193.486C1525.92,193.318 1526.4,193.153 1526.87,192.993C1532.06,191.234 1535.88,190.07 1537.62,189.754C1538.61,189.468 1538.28,189.663 1538.71,189.383Z" style="fill:rgb(255,33,239);fill-rule:nonzero;"/>
        <path d="M1538.71,189.383C1576.32,202.054 1610.83,223.11 1639.52,250.466C1639.52,250.466 1624.64,286.946 1613.6,309.506C1613.6,309.506 1668.32,291.266 1688,299.906C1707.68,308.546 1674.56,501.026 1674.56,501.026C1674.56,501.026 1707.2,536.066 1702.88,546.626C1698.56,557.186 1594.88,572.066 1526.72,557.666C1458.56,543.266 1447.52,538.946 1447.52,538.946C1447.52,538.946 1437.92,439.106 1435.04,393.986C1435.01,354.89 1448.84,314.952 1464.19,279.585C1477.16,249.714 1493.12,220.58 1515.74,196.902C1517.12,196.41 1518.5,195.918 1519.88,195.427C1521.88,194.715 1523.69,194.085 1525.43,193.486C1525.92,193.318 1526.4,193.153 1526.87,192.993C1532.06,191.234 1535.88,190.07 1537.62,189.754C1538.61,189.468 1538.28,189.663 1538.71,189.383Z" style="fill:url(#_Radial7);fill-rule:nonzero;"/>
        <path d="M1539.59,222.946C1581.4,222.523 1637.24,254.232 1637.24,254.232L1638.15,253.787C1630.37,272.529 1622.41,291.206 1613.6,309.492C1613.6,309.492 1668.32,291.252 1688,299.892C1707.68,308.532 1674.56,501.012 1674.56,501.012C1674.56,501.012 1707.2,536.052 1702.88,546.612C1698.56,557.172 1594.88,572.052 1526.72,557.652C1519.45,556.109 1522.57,556.777 1517.37,555.657L1515.48,555.068C1515.48,555.068 1556.98,476.471 1522.42,385.956C1483.15,283.107 1539.59,222.946 1539.59,222.946Z" style="fill:url(#_Linear8);fill-rule:nonzero;"/>
        <path d="M1539.59,222.946C1581.4,222.523 1637.24,254.232 1637.24,254.232L1638.15,253.787C1630.37,272.529 1622.41,291.206 1613.6,309.492C1613.6,309.492 1668.32,291.252 1688,299.892C1707.68,308.532 1674.56,501.012 1674.56,501.012C1674.56,501.012 1707.2,536.052 1702.88,546.612C1698.56,557.172 1594.88,572.052 1526.72,557.652C1519.45,556.109 1522.57,556.777 1517.37,555.657L1515.48,555.068C1515.48,555.068 1556.98,476.471 1522.42,385.956C1483.15,283.107 1539.59,222.946 1539.59,222.946Z" style="fill:rgb(77,10,72);fill-opacity:0.290196;fill-rule:nonzero;"/>
        <path d="M1443.53,445.27L1443.53,472.55C1443.53,472.55 1416.02,483.329 1419.05,470.192L1419.67,468.24L1427.77,466.012L1421.45,464.798C1426.54,456.344 1435.03,450.091 1443.53,445.27Z" style="fill:rgb(122,16,114);fill-rule:nonzero;"/>
        <path d="M1645.5,534.334C1616.83,534.725 1625.94,582.913 1638.05,579.665C1650.15,576.418 1665.65,534.06 1645.5,534.334Z" style="fill:rgb(139,27,142);fill-rule:nonzero;"/>
        <path d="M1658.44,468.476C1665.46,468.651 1672.59,469.03 1679.44,470.725C1677.88,480.835 1676.29,490.943 1674.56,501.027C1674.56,501.027 1707.2,536.067 1702.88,546.627C1699.43,551.944 1683.61,554.783 1678.66,555.815C1667.62,558.116 1656.41,559.674 1645.2,560.864C1608.77,564.733 1571.98,564.79 1535.73,559.312C1558,507.831 1600.74,469.133 1658.44,468.476Z" style="fill:rgb(255,154,230);fill-rule:nonzero;"/>
        <path d="M1447.08,534.334L1447.36,534.426C1447.41,534.997 1447.47,535.568 1447.52,536.138C1447.52,536.139 1458.56,540.459 1526.72,554.857C1594.88,569.259 1698.56,554.377 1702.88,543.817L1703.14,542.9C1703.57,544.221 1703.4,545.463 1702.88,546.626C1697.89,557.962 1595.84,572.769 1526.72,557.666C1458.66,542.797 1447.52,538.947 1447.52,538.947C1447.38,537.41 1447.23,535.872 1447.08,534.334Z" style="fill:url(#_Linear9);fill-rule:nonzero;"/>
        <path d="M1508.53,435.902C1508.53,435.902 1527.23,506.25 1503.9,552.581L1479.17,546.289L1508.53,435.902Z" style="fill:rgb(88,11,82);fill-opacity:0.462745;fill-rule:nonzero;"/>
        <path d="M1658.43,468.475C1665.46,468.649 1672.59,469.029 1679.44,470.723L1678.97,473.762C1672.38,472.172 1665.57,471.945 1658.83,471.707C1602.74,472.563 1559.66,510.065 1537.46,559.556L1535.73,559.311C1558,507.831 1600.74,469.132 1658.44,468.475L1658.43,468.475Z" style="fill:rgb(128,29,111);fill-rule:nonzero;"/>
        <path d="M1443.53,445.27L1443.53,472.55C1443.53,472.55 1416.02,483.329 1419.05,470.192L1419.67,468.24L1427.77,466.012L1421.45,464.798C1426.54,456.344 1435.03,450.091 1443.53,445.27Z" style="fill:url(#_Linear10);fill-rule:nonzero;"/>
        <path d="M1687.76,411.131C1683.97,441.178 1679.65,471.167 1674.56,501.026C1674.56,501.026 1707.2,536.065 1702.88,546.625C1698.56,557.185 1594.88,572.065 1526.72,557.665C1458.56,543.265 1447.52,538.945 1447.52,538.945C1443.71,498.208 1439.79,457.473 1436.68,416.675C1440.05,417.327 1443.44,417.836 1446.84,418.363C1448.85,418.669 1472.42,421.924 1476.27,422.693C1481.03,423.645 1483.69,424.196 1493.94,426.337C1533.13,434.523 1552.05,437.441 1574.92,437.401C1583.49,437.386 1591.75,436.819 1599.79,435.652C1620.13,432.699 1636.11,428.193 1669.73,417.04C1670.22,416.876 1670.22,416.876 1670.72,416.712C1676.39,414.834 1682.06,412.949 1687.76,411.131Z" style="fill:url(#_Linear11);fill-rule:nonzero;"/>
        <path d="M1689.35,441.898L1453.4,445.269L1456.05,510.15L1681.68,501.466L1689.35,441.898Z" style="fill:rgb(88,11,82);fill-rule:nonzero;"/>
        <path d="M1689.35,441.898L1681.68,501.466L1456.05,510.15L1456.09,506.965L1679.11,498.381L1687.62,441.898L1689.35,441.898Z" style="fill:url(#_Linear12);fill-rule:nonzero;"/>
        <path d="M1689.35,441.898L1688.99,444.726L1456.05,449.55L1458.61,510.051L1456.05,510.15L1453.4,445.269L1689.35,441.898Z" style="fill:url(#_Radial13);fill-rule:nonzero;"/>
        <path d="M1689.35,441.898L1453.4,445.269L1456.05,510.15L1681.68,501.466L1689.35,441.898Z" style="fill:url(#_Linear14);fill-rule:nonzero;"/>
        <path d="M1689.35,441.898L1456.34,445.269L1456.05,510.15L1681.68,501.466L1689.35,441.898Z" style="fill:url(#_Radial15);fill-rule:nonzero;"/>
        <path d="M1457.61,301.255C1455.99,289.918 1442.78,278.495 1437.01,281.155C1431.24,283.814 1437.71,302.422 1442.18,305.198C1448.01,308.823 1455.99,303.65 1455.99,303.65" style="fill:rgb(255,33,239);fill-rule:nonzero;"/>
        <path d="M1513.17,420.547C1513.17,420.547 1514.26,475.736 1505.88,504.169C1497.5,532.601 1477.04,555.984 1453.41,560.174C1429.77,564.364 1431.12,471.68 1437.55,420.432C1437.55,420.432 1440.97,407.266 1467.31,404.273C1493.64,401.281 1513.17,420.547 1513.17,420.547Z" style="fill:rgb(255,33,239);fill-rule:nonzero;"/>
        <path d="M1513.22,427.155C1513.2,442.18 1512.64,457.209 1511.29,472.177C1510.31,482.962 1508.77,493.719 1505.88,504.17C1497.5,532.603 1477.04,555.986 1453.4,560.176C1441.69,560.602 1437.77,543.299 1436.68,534.361L1437.38,534.711L1437.55,536.381C1438.59,543.256 1444.03,556.921 1453.42,555.832C1477.06,551.642 1497.52,528.259 1505.9,499.825C1510.06,484.923 1511.36,469.388 1512.35,454.007C1512.92,445.079 1513.17,436.101 1513.22,427.155Z" style="fill:url(#_Linear16);fill-rule:nonzero;"/>
        <path d="M1586.63,227.993C1587.46,229.043 1595.88,201.382 1590,196.34C1584.11,191.298 1568.43,212.027 1568.43,212.027C1568.43,212.027 1581.23,221.147 1586.63,227.993Z" style="fill:rgb(122,16,114);fill-rule:nonzero;"/>
        <path d="M1479.17,536.379C1478.35,541.465 1476.84,546.465 1474.37,550.994C1471.81,552.996 1468.94,554.536 1466.03,555.966C1470.56,549.679 1476.88,544.005 1479.17,536.379Z" style="fill-rule:nonzero;"/>
        <path d="M1472.77,283.388C1485.61,284.733 1494.65,296.327 1502.04,305.833C1521.07,330.744 1533.27,350.767 1569.56,352.43C1601.57,353.897 1656.62,300.198 1676.92,303.129C1686.83,305.624 1691.24,318.077 1693.72,326.706C1694,345.608 1692.52,364.502 1690.58,383.292C1682.12,405.496 1664.33,421.68 1643.78,432.723C1566.63,472.615 1500.35,450.545 1469.6,406.222C1451.6,378.672 1446.99,343.612 1451.88,311.494C1458.01,294.875 1455.32,301.591 1459.59,291.216C1463.47,286.147 1466.41,283.969 1472.77,283.388Z" style="fill:rgb(88,11,82);fill-opacity:0.45098;fill-rule:nonzero;"/>
        <path d="M1453.4,560.174C1450.41,550.132 1449.24,533.46 1449.24,533.46C1449.24,533.46 1446.47,550.595 1449.24,560.31" style="fill-rule:nonzero;"/>
        <path d="M1513.17,420.547C1513.17,420.547 1514.26,475.736 1505.88,504.169C1497.5,532.601 1477.04,555.984 1453.41,560.174C1429.77,564.364 1442.94,470.713 1437.55,420.432C1437.55,420.432 1440.97,407.266 1467.31,404.273C1493.64,401.281 1513.17,420.547 1513.17,420.547Z" style="fill:url(#_Linear17);fill-rule:nonzero;"/>
        <path d="M1457.61,301.255C1455.99,289.918 1442.78,278.495 1437.01,281.155C1431.24,283.814 1437.53,302.574 1442.18,305.198C1448.01,308.488 1455.99,303.65 1455.99,303.65" style="fill:url(#_Radial18);fill-rule:nonzero;"/>
        <path d="M1689.35,441.898L1681.68,501.466L1456.05,510.15L1456.09,506.965L1679.11,498.381L1686.35,442.189L1689.35,441.898Z" style="fill:url(#_Linear19);fill-rule:nonzero;"/>
        <path d="M1619.8,295.197L1519.12,258.813L1508.52,301.713L1472.21,290.176L1496.68,240.711L1626.48,281.841L1619.8,295.197Z" style="fill:rgb(166,54,120);fill-rule:nonzero;"/>
        <path d="M1513.17,420.547C1513.17,420.547 1514.26,475.736 1505.88,504.169C1497.5,532.601 1477.04,555.984 1453.41,560.174C1429.77,564.364 1431.12,471.68 1437.55,420.432C1437.55,420.432 1440.97,407.266 1467.31,404.273C1493.64,401.281 1513.17,420.547 1513.17,420.547Z" style="fill:url(#_Radial20);fill-rule:nonzero;"/>
        <path d="M1444.62,355.923C1440.02,356.167 1437.12,377.355 1441.94,377.671C1446.77,377.986 1449.17,355.682 1444.62,355.923Z" style="fill:white;fill-rule:nonzero;"/>
        <path d="M1527.23,194.264C1525.84,192.207 1514.72,199.921 1516.41,205.005C1517.73,208.974 1529.28,197.293 1527.23,194.264Z" style="fill:white;fill-rule:nonzero;"/>
        <path d="M1523.32,315.799L1547.14,322.018C1547.14,322.018 1554.38,340.63 1566.05,324.702C1566.05,324.702 1574.98,340.829 1586.04,324.702L1607.74,324.702L1562.89,317.288L1523.32,315.799Z" style="fill:rgb(152,46,114);fill-rule:nonzero;"/>
        <path d="M1567.9,319.226C1567.9,319.226 1554.27,336.501 1547.94,316.719" style="fill:white;fill-rule:nonzero;"/>
        <path d="M1566.05,319.241C1566.05,319.241 1572.33,336.791 1584.32,321.861L1566.05,319.241Z" style="fill:white;fill-rule:nonzero;"/>
        <path d="M1547.94,316.719L1567.9,319.226C1565.83,321.534 1566.91,320.465 1564.68,322.45C1559.76,321.707 1554.77,321.426 1549.8,321.124C1548.91,319.776 1548.46,318.214 1547.94,316.719Z" style="fill:rgb(189,189,189);fill-rule:nonzero;"/>
        <path d="M1566.05,319.241C1585.02,320.628 1588.47,317.993 1581.92,324.436L1567.88,322.879C1567.14,321.725 1566.54,320.512 1566.05,319.241Z" style="fill:rgb(209,209,209);fill-rule:nonzero;"/>
        <path d="M1608.07,313.586L1522.65,311.268L1523.32,315.799L1607.74,324.702L1608.07,313.586Z" style="fill:rgb(88,11,82);fill-rule:nonzero;"/>
        <path d="M1566.05,313.586L1574.24,290.34L1571.04,315.007L1566.05,313.586Z" style="fill:rgb(88,11,82);fill-opacity:0.443137;fill-rule:nonzero;"/>
        <path d="M1566.05,327.879C1566.35,327.225 1558.05,341.181 1545.98,330.782C1545.98,330.782 1557.86,345.775 1566.05,327.879Z" style="fill:rgb(152,46,114);fill-rule:nonzero;"/>
        <path d="M1742.37,264.57L1754.6,265.357L1754.04,290.552L1740.51,292.034L1742.37,264.57Z" style="fill-opacity:0.403922;fill-rule:nonzero;"/>
        <path d="M1755.83,209.799L1755.33,232.417L1742.74,232.417L1742.37,214.48L1755.83,209.799Z" style="fill-opacity:0.403922;fill-rule:nonzero;"/>
        <path d="M1567.9,329.655C1567.74,329.462 1577.54,338.148 1585.03,330.955C1585.03,330.955 1578.89,343.511 1567.9,329.655Z" style="fill:rgb(152,46,114);fill-rule:nonzero;"/>
        <path d="M1694.23,329.635C1693.87,363.565 1689.72,397.368 1685.2,430.957C1682.16,453.573 1678.75,476.15 1674.97,498.654C1674.63,498.284 1674.76,498.43 1674.56,498.217C1680.45,462.83 1685.78,427.331 1689.72,391.671C1692.01,371.048 1693.87,350.388 1694.23,329.635Z" style="fill:url(#_Radial21);fill-rule:nonzero;"/>
        <path d="M1483.84,512.305C1487.09,512.376 1447.86,503.457 1427.77,521.88C1427.77,521.88 1451.59,511.601 1483.84,512.305Z" style="fill:rgb(88,11,82);fill-rule:nonzero;"/>
        <path d="M1483.84,498.637C1487.04,499.215 1448.98,484.709 1427.76,498.637C1427.76,498.637 1449.86,492.502 1483.84,498.637Z" style="fill:rgb(88,11,82);fill-rule:nonzero;"/>
        <path d="M1518.29,238.379L1504.09,292.035L1476.5,280.677L1500.33,234.276L1518.29,238.379Z" style="fill:rgb(136,78,31);fill-rule:nonzero;"/>
        <path d="M1514,236.521L1499.8,290.178L1472.21,278.819L1496.04,232.419L1514,236.521Z" style="fill:rgb(174,100,40);fill-rule:nonzero;"/>
        <path d="M1689.35,441.898L1681.68,501.466L1456.05,510.15L1456.09,506.965L1679.11,498.381L1687.62,441.898L1689.35,441.898Z" style="fill:url(#_Linear22);fill-rule:nonzero;"/>
        <path d="M1456.4,294.428L1456.34,295.197C1456.34,295.196 1456.34,295.195 1456.34,295.194C1456.36,294.938 1456.38,294.683 1456.4,294.428Z" style="fill:url(#_Linear23);fill-rule:nonzero;"/>
        <path d="M1674.56,501.466L1505.28,508.298L1502.29,516.114L1586.14,513.432L1590.4,519.46L1658.05,510.209L1681.9,509.268L1674.56,501.466Z" style="fill:rgb(47,19,72);fill-opacity:0.317647;fill-rule:nonzero;"/>
        <path d="M1658.05,435.899L1657.48,502.369L1587.8,510.719L1587.82,441.982L1658.05,435.899ZM1644.48,448.559L1611.58,451.193L1609.34,500.298L1648.19,496.669L1644.48,448.559Z" style="fill:rgb(154,154,154);fill-rule:nonzero;"/>
        <path d="M1590.48,441.753L1590.49,507.928L1657.5,500.066L1657.48,502.37L1587.8,510.72L1587.82,441.983L1590.48,441.753Z" style="fill:url(#_Linear24);fill-rule:nonzero;"/>
        <path d="M1647.17,445.77L1651.16,496.385L1648.19,496.672L1644.48,448.562L1611.58,451.196L1611.41,446.87L1647.17,445.77Z" style="fill:rgb(99,99,99);fill-rule:nonzero;"/>
        <path d="M1611.49,453.11L1609.34,500.298L1646.09,496.865L1646.24,498.735L1607.38,502.364L1609.62,453.259L1611.49,453.11Z" style="fill:url(#_Radial25);fill-rule:nonzero;"/>
        <path d="M1658.05,435.9L1657.48,502.37L1655.54,502.726L1656.09,437.966L1587.8,443.882L1587.82,441.983L1658.05,435.9Z" style="fill:url(#_Radial26);fill-rule:nonzero;"/>
        <path d="M1587.8,443.882L1587.83,504.661L1582.42,504.843L1580.37,444.135L1587.8,443.882Z" style="fill:rgb(7,1,7);fill-opacity:0.207843;fill-rule:nonzero;"/>
        <path d="M1611.58,451.195L1644.48,448.56L1648.19,496.67L1642.94,496.989L1640.67,452.996L1611.44,454.402L1611.58,451.195Z" style="fill:rgb(32,4,30);fill-opacity:0.388235;fill-rule:nonzero;"/>
        <path d="M1606.22,473.695L1636.9,471.659L1637.4,479.743L1605.69,480.598L1606.22,473.695Z" style="fill:rgb(154,154,154);fill-rule:nonzero;"/>
        <path d="M1627.6,290.339L1480.29,239.114C1480.29,239.114 1508.98,158.661 1586.15,190.167C1673.17,225.693 1627.6,290.339 1627.6,290.339Z" style="fill:url(#_Radial27);fill-rule:nonzero;"/>
        <path d="M1627.6,290.339L1480.29,239.114C1480.29,239.114 1508.98,158.661 1586.15,190.167C1673.17,225.693 1627.6,290.339 1627.6,290.339Z" style="fill:url(#_Linear28);fill-rule:nonzero;"/>
        <path d="M1627.6,290.339L1480.29,239.114C1480.29,239.114 1508.98,158.661 1586.15,190.167C1673.17,225.693 1627.6,290.339 1627.6,290.339Z" style="fill:url(#_Radial29);fill-rule:nonzero;"/>
        <path d="M1451.59,471.68L1452.13,476.73L1457.87,475.821L1458.43,478.514L1452.49,480.118L1453.06,485.48L1449.36,486.077L1448.46,481.204L1444.68,482.224L1442.98,478.179L1447.77,477.421L1446.89,472.645L1451.59,471.68Z" style="fill:rgb(88,11,82);fill-opacity:0.615686;fill-rule:nonzero;"/>
        <path d="M1625.69,216.308C1639.44,231.672 1642.96,249.676 1636.52,271.232C1634.51,277.925 1631.53,284.54 1627.6,290.34L1480.29,239.115C1480.65,238.14 1481.04,237.174 1481.45,236.221L1626.48,285.781C1640.41,264.827 1640.89,237.39 1625.69,216.308Z" style="fill:url(#_Linear30);fill-rule:nonzero;"/>
        <path d="M1550.56,182.868C1562.87,182.564 1574.77,185.732 1586.15,190.168C1600.51,195.719 1613.44,203.9 1624.34,214.725C1614.52,205.391 1602.26,199.123 1589.9,193.89C1559.1,181.084 1528.29,185.102 1504.98,209.622C1496.5,218.546 1489.6,229.336 1484.88,240.711L1480.29,239.115C1489.76,214.995 1508.78,192.145 1534.55,185.154C1539.85,183.714 1545.09,183.207 1550.56,182.868Z" style="fill:url(#_Radial31);fill-rule:nonzero;"/>
        <path d="M1507.64,243.775C1513.43,244.026 1518.56,239.164 1519.08,232.912C1519.61,226.661 1515.34,221.387 1509.56,221.136C1503.77,220.884 1498.64,225.749 1498.12,232.001C1497.59,238.252 1501.86,243.523 1507.64,243.775Z" style="fill-opacity:0.223529;fill-rule:nonzero;"/>
        <g>
            <path d="M1543.38,489.285C1548.79,489.285 1553.17,484.627 1553.17,478.88C1553.17,473.133 1548.79,468.475 1543.38,468.475C1537.98,468.475 1533.6,473.133 1533.6,478.88C1533.6,484.627 1537.98,489.285 1543.38,489.285Z" style="fill:rgb(154,154,154);fill-rule:nonzero;"/>
            <path d="M1552.79,476.109L1552.83,476.9C1552.83,482.647 1548.45,487.305 1543.04,487.305C1538.5,487.184 1534.44,483.87 1533.64,479.671C1533.84,484.736 1537.95,488.994 1543.38,489.285C1548.79,489.285 1553.17,484.627 1553.17,478.88C1553.09,477.239 1553.18,478.165 1552.79,476.109Z" style="fill:url(#_Linear32);fill-rule:nonzero;"/>
            <path d="M1543.38,468.475C1537.98,468.475 1533.6,473.133 1533.6,478.88C1533.69,481.238 1534.28,483.84 1536,485.672C1534.83,484.004 1534.5,482.014 1534.41,480.065C1534.41,474.318 1538.79,469.66 1544.19,469.66C1547.3,469.641 1549.62,471.193 1551.57,473.273C1549.9,470.342 1546.89,468.663 1543.38,468.475Z" style="fill:url(#_Radial33);fill-rule:nonzero;"/>
        </g>
        <path d="M1550.56,182.868C1556.74,182.755 1562.9,183.424 1568.94,184.742C1571.13,185.219 1573.28,185.855 1575.44,186.412C1583.74,197.557 1584.25,213.539 1574.38,223.772C1567.96,230.426 1559.12,233.701 1550.33,235.816C1533.75,239.591 1496.69,228.188 1500.91,208.409C1501.87,203.903 1500.84,212.062 1499.81,207.556C1513.68,191.633 1529.74,184.158 1550.56,182.868Z" style="fill:white;fill-opacity:0.117647;fill-rule:nonzero;"/>
        <path d="M1483.84,498.637C1485.73,498.514 1449.81,495.834 1433.68,500.241L1433.95,505.758C1433.95,505.758 1462.87,500.001 1483.84,498.637Z" style="fill:rgb(77,10,72);fill-opacity:0.290196;fill-rule:nonzero;"/>
        <path d="M1483.84,512.305C1484.38,512.206 1451.58,515.977 1435.05,521.426L1435.61,526.892C1435.61,526.892 1454.46,517.737 1483.84,512.305Z" style="fill:rgb(77,10,72);fill-opacity:0.290196;fill-rule:nonzero;"/>
        <path d="M1627.65,260.597C1623.26,259.741 1617.37,276.628 1620.85,278.206C1624.34,279.783 1631.7,261.385 1627.65,260.597Z" style="fill:white;fill-opacity:0.192157;fill-rule:nonzero;"/>
        <path d="M1571.75,195.55L1584.32,212.484L1590.43,212.923C1590.43,212.923 1600.34,228.997 1602.68,242.746C1602.68,242.746 1605.78,222.469 1603.88,213.361L1609.08,214.822L1607.23,205.819L1571.75,195.55Z" style="fill-opacity:0.12549;fill-rule:nonzero;"/>
        <path d="M1500.91,292.034L1503.39,283.387L1474.04,272.198L1470.32,279.964L1500.91,292.034Z" style="fill:rgb(255,190,47);fill-rule:nonzero;"/>
        <path d="M1503.39,283.387L1507.12,285.02L1504.96,293.582L1500.91,292.034L1503.39,283.387Z" style="fill:rgb(171,128,32);fill-rule:nonzero;"/>
        <path d="M1693.12,536.379C1697.27,533.92 1689.13,521.88 1684.39,521.88C1679.64,521.88 1689.28,538.655 1693.12,536.379Z" style="fill:white;fill-opacity:0.219608;fill-rule:nonzero;"/>
        <path d="M1514.96,251.249L1490.66,242.745L1488.03,248.023L1513.22,257.532L1514.96,251.249Z" style="fill:rgb(48,27,11);fill-opacity:0.254902;fill-rule:nonzero;"/>
        <path d="M1503.39,283.388L1474.04,272.198L1470.31,279.964L1474.9,274.592L1503.39,283.388Z" style="fill:rgb(255,251,31);fill-rule:nonzero;"/>
        <path d="M1507.01,240.963C1512.41,241.195 1517.19,236.722 1517.68,230.975C1518.17,225.229 1514.19,220.384 1508.79,220.153C1503.38,219.921 1498.61,224.391 1498.11,230.138C1497.62,235.884 1501.6,240.732 1507.01,240.963Z" style="fill:rgb(154,154,154);fill-rule:nonzero;"/>
        <path d="M1517.54,228.189L1517.51,228.981C1517.02,234.727 1512.24,239.199 1506.84,238.967C1502.31,238.652 1498.53,235.163 1498.08,230.93C1497.85,236.004 1501.6,240.438 1507.01,240.962C1512.41,241.193 1517.19,236.722 1517.68,230.976C1517.74,229.331 1517.76,230.262 1517.54,228.189Z" style="fill:url(#_Linear34);fill-rule:nonzero;"/>
        <path d="M1508.79,220.151C1503.38,219.92 1498.61,224.391 1498.11,230.138C1498,232.499 1498.36,235.127 1499.93,237.032C1498.91,235.314 1498.74,233.31 1498.82,231.357C1499.31,225.611 1504.09,221.14 1509.49,221.371C1512.6,221.485 1514.79,223.136 1516.57,225.3C1515.15,222.297 1512.28,220.49 1508.79,220.151Z" style="fill:url(#_Radial35);fill-rule:nonzero;"/>
        <path d="M1507.01,240.963C1512.41,241.195 1517.19,236.722 1517.68,230.975C1518.17,225.229 1514.19,220.384 1508.79,220.153C1503.38,219.921 1498.61,224.391 1498.11,230.138C1497.62,235.884 1501.6,240.732 1507.01,240.963Z" style="fill:url(#_Radial36);fill-rule:nonzero;"/>
        <path d="M1483.85,240.362L1490.66,242.746L1488.03,248.024L1480.76,245.579L1483.85,240.362Z" style="fill:rgb(166,54,120);fill-opacity:0.576471;fill-rule:nonzero;"/>
        <path d="M1571.75,195.55L1575.66,181.417L1611.23,195.55L1604.98,209.734L1571.75,195.55Z" style="fill:rgb(128,128,128);fill-rule:nonzero;"/>
        <path d="M1571.75,195.55L1575.66,181.417L1611.23,195.55L1604.98,209.734L1571.75,195.55Z" style="fill:url(#_Linear37);fill-rule:nonzero;"/>
        <path d="M1575.66,181.418C1575.66,181.418 1585.63,208.245 1611.23,195.55L1575.66,181.418Z" style="fill:rgb(148,148,148);fill-rule:nonzero;"/>
        <path d="M1571.75,195.55L1575.66,181.417L1611.23,195.55L1604.98,209.734L1571.75,195.55Z" style="fill:url(#_Radial38);fill-rule:nonzero;"/>
        <path d="M1607.23,161.114L1602.25,195.673C1594.65,195.873 1586.86,193.369 1582.42,186.901L1607.23,161.114Z" style="fill:url(#_Linear39);fill-rule:nonzero;"/>
        <path d="M1513.22,442.251C1513.24,441.899 1512.65,498.654 1499.81,519.461C1499.81,519.461 1510.48,491.151 1513.22,442.251Z" style="fill:url(#_Linear40);fill-rule:nonzero;"/>
        <path d="M1600.9,193.924L1606.26,163.766L1597.77,193.924" style="fill:white;fill-opacity:0.282353;fill-rule:nonzero;"/>
        <path d="M1450.41,300.185C1453.96,297.617 1446.94,288.319 1442.98,290.176C1439.02,292.034 1445.99,303.381 1450.41,300.185Z" style="fill:rgb(88,11,82);fill-opacity:0.333333;fill-rule:nonzero;"/>
        <path d="M1523.32,315.799L1607.74,324.702L1608.07,321.331L1523.32,314.41L1523.32,315.799Z" style="fill:url(#_Linear41);fill-rule:nonzero;"/>
        <path d="M1537.37,281.811C1532.41,280.437 1526.51,288.671 1529.18,294.428C1531.86,300.185 1542.41,283.206 1537.37,281.811Z" style="fill:white;fill-opacity:0.317647;fill-rule:nonzero;"/>
        <path d="M1533.6,274.592C1531.99,271.881 1528.52,275.838 1528.52,278.302C1528.52,280.765 1535.03,276.985 1533.6,274.592Z" style="fill:white;fill-opacity:0.317647;fill-rule:nonzero;"/>
        <path d="M1571.75,337.869C1535.46,336.47 1524.33,322.07 1505.07,300.432C1479.28,271.45 1464.48,277.79 1456.34,295.194C1448.3,312.398 1448,357.766 1472.46,388.818C1503.12,427.762 1569.37,447.063 1646.58,411.827C1723.8,376.592 1703.38,293.582 1679.96,297.743C1659.82,301.32 1603.76,339.102 1571.75,337.869Z" style="fill:rgb(89,255,78);fill-rule:nonzero;"/>
        <path d="M1488.85,295.341C1489.17,290.812 1474.33,281.91 1469.5,287.649C1464.67,293.388 1488.51,300.174 1488.85,295.341Z" style="fill:white;fill-rule:nonzero;"/>
        <path d="M1457.61,292.034C1455.09,317.903 1460.06,347.339 1475.35,367.847C1506.02,406.791 1572.26,426.092 1649.48,390.857C1666.56,382.888 1683.15,371.271 1693.03,353.935C1694.5,351.367 1695.65,348.612 1696.96,345.95C1695.22,378.534 1669.78,400.667 1643.97,412.903C1566.76,448.138 1500.51,428.837 1469.85,389.893C1455.93,371.607 1450.01,347.625 1450.43,324.349C1450.61,314.05 1453.09,301.255 1457.61,292.034Z" style="fill:rgb(64,183,56);fill-rule:nonzero;"/>
        <path d="M1571.75,337.869C1535.46,336.47 1524.33,322.07 1505.07,300.432C1479.28,271.45 1464.48,277.79 1456.34,295.194C1448.3,312.398 1448,357.766 1472.46,388.818C1503.12,427.762 1569.37,447.063 1646.58,411.827C1723.8,376.592 1703.38,293.582 1679.96,297.743C1659.82,301.32 1603.76,339.102 1571.75,337.869Z" style="fill:url(#_Linear42);fill-rule:nonzero;"/>
        <path d="M1685.6,302.288C1683.46,297.291 1667.65,301.963 1667.76,308.313C1667.84,313.216 1687.72,307.255 1685.6,302.288Z" style="fill:white;fill-rule:nonzero;"/>
        <path d="M1610.7,392.042C1608.2,389.942 1594.79,391.391 1593.22,395.99C1591.65,400.589 1615.01,395.669 1610.7,392.042Z" style="fill:white;fill-rule:nonzero;"/>
        <path d="M1521.02,410.083C1521.91,406.262 1500.7,395.147 1497.68,399.315C1494.66,403.484 1519.57,416.306 1521.02,410.083Z" style="fill:rgb(89,255,78);fill-rule:nonzero;"/>
        <path d="M1672.83,385.638C1669.88,382.535 1655.83,392.844 1654.25,398.892C1652.67,404.941 1675.25,388.186 1672.83,385.638Z" style="fill:rgb(89,255,78);fill-rule:nonzero;"/>
        <path d="M1574.24,351.904C1545.98,351.997 1527.03,342.271 1513.22,333.458C1499.41,324.645 1487.03,311.376 1478.64,317.093C1470.25,322.811 1476.26,354.637 1494.01,367.088C1516.28,382.703 1566.58,400.121 1625.35,379.37C1680.86,359.767 1677.63,328.345 1662.56,326.93C1647.49,325.516 1598.07,351.825 1574.24,351.904Z" style="fill:rgb(23,65,20);fill-opacity:0.435294;fill-rule:nonzero;"/>
        <path d="M1569.42,359.958C1542.93,358.741 1528.07,349.186 1514.51,341.364C1500.95,333.542 1488.54,320.191 1480.32,325.234C1472.09,330.277 1478.03,358.446 1495.46,369.493C1517.32,383.349 1564.69,399.121 1622.32,380.869C1676.77,363.626 1675.57,335.549 1660.78,334.271C1645.99,332.992 1592.78,361.031 1569.42,359.958Z" style="fill:url(#_Linear43);fill-rule:nonzero;"/>
        <path d="M1450.81,317.384L1450.71,320.546C1450.3,343.76 1456.21,367.677 1470.13,385.913C1500.79,424.752 1567.03,443.998 1644.25,408.854C1670.78,396.12 1692.42,376.217 1696.85,346.176L1696.96,345.95C1695.22,378.534 1669.78,400.667 1643.97,412.903C1566.76,448.138 1500.51,428.837 1469.85,389.893C1455.93,371.607 1450.01,347.625 1450.43,324.349C1450.59,319.438 1450.44,321.758 1450.81,317.384Z" style="fill:url(#_Linear44);fill-rule:nonzero;"/>
        <path d="M1514,341.041L1514.51,341.364C1528.07,349.186 1542.93,358.741 1569.42,359.958C1586.68,359.511 1603.25,352.599 1619.23,346.679L1617.71,369.458L1633.88,360.143L1639.42,374.254C1636.08,375.94 1633.06,377.219 1629.54,378.466C1627.29,379.263 1624.57,380.082 1622.32,380.869C1580.96,395.355 1536.35,392.43 1498.96,371.565L1502.29,360.691L1516.24,365.623L1514,341.041Z" style="fill:white;fill-rule:nonzero;"/>
        <path d="M1514,341.041L1514.51,341.364C1528.07,349.186 1542.93,358.741 1569.42,359.958C1586.68,359.511 1603.25,352.599 1619.23,346.679L1618.18,362.406C1585.48,375.033 1546.75,371.286 1515.39,356.297L1514,341.041Z" style="fill:rgb(211,211,211);fill-rule:nonzero;"/>
        <path d="M1625.38,222.942C1624.02,222.942 1626.06,229.667 1628.01,229.569C1629.96,229.472 1627.93,222.942 1625.38,222.942Z" style="fill:white;fill-opacity:0.203922;fill-rule:nonzero;"/>
        <path d="M1504.96,293.582L1507.12,285.02L1506.12,284.616L1514.96,251.249L1513.22,251.02L1504.4,283.388L1505.49,285.781L1503.39,292.885L1504.96,293.582Z" style="fill:url(#_Linear45);fill-rule:nonzero;"/>
        <path d="M1488.03,248.025L1475.55,272.64L1477.53,273.361L1488.86,248.603L1488.03,248.025Z" style="fill:url(#_Radial46);fill-rule:nonzero;"/>
        <path d="M1457.07,402.544C1450.15,399.875 1446.34,433.963 1454.67,437.479C1463.01,440.994 1464.5,405.405 1457.07,402.544Z" style="fill:white;fill-opacity:0.317647;fill-rule:nonzero;"/>
        <path d="M1443.41,430.435C1438.06,430.435 1440.16,448.061 1442.98,448.56C1445.8,449.06 1447.99,430.435 1443.41,430.435Z" style="fill:white;fill-opacity:0.317647;fill-rule:nonzero;"/>
        <g>
            <path d="M1720.94,181.417L1726.69,385.164L1729.15,579.823L1753.69,579.823L1742.9,316.491L1745.72,182.307L1720.94,181.417Z" style="fill:rgb(151,90,41);fill-rule:nonzero;"/>
            <path d="M1729.67,181.786L1733.53,387.655L1736.14,579.823L1753.69,579.823L1742.9,316.491L1745.72,182.307L1729.67,181.786Z" style="fill:rgb(95,43,15);fill-rule:nonzero;"/>
            <path d="M1747.08,205.821L1720.94,207.341L1723.62,300.186L1745.72,300.75L1747.08,205.821Z" style="fill:rgb(206,149,62);fill-rule:nonzero;"/>
            <path d="M1751.76,482.33L1726.3,482.451L1727.88,581.118L1753.69,581.118L1751.76,482.33Z" style="fill:rgb(206,149,62);fill-rule:nonzero;"/>
            <path d="M1720.94,181.417C1720.94,181.417 1731.66,198.96 1745.72,182.307L1720.94,181.417Z" style="fill:rgb(192,135,0);fill-rule:nonzero;"/>
            <path d="M1747.08,205.821L1733.98,206.936L1734.93,300.75L1745.72,300.75L1747.08,205.821Z" style="fill:rgb(148,107,45);fill-rule:nonzero;"/>
            <path d="M1751.76,482.33L1738.67,482.33L1742.37,581.118L1753.69,581.118L1751.76,482.33Z" style="fill:rgb(148,107,45);fill-rule:nonzero;"/>
            <path d="M1743.36,300.749L1724.42,300.185L1724.74,308.869L1742.37,307.505L1743.36,300.749Z" style="fill:rgb(95,43,15);fill-rule:nonzero;"/>
            <path d="M1721.34,219.676L1747.08,216.308L1747.08,222.942L1721.38,226.594L1721.34,219.676Z" style="fill:rgb(24,14,6);fill-opacity:0.309804;fill-rule:nonzero;"/>
            <path d="M1721.88,243.785L1746.43,244.343L1746.38,250.454L1722.21,251.02L1721.88,243.785Z" style="fill:rgb(24,14,6);fill-opacity:0.309804;fill-rule:nonzero;"/>
            <path d="M1746.07,276.165L1723.02,277.537L1723.18,283.388L1745.95,283.388L1746.07,276.165Z" style="fill:rgb(24,14,6);fill-opacity:0.309804;fill-rule:nonzero;"/>
            <path d="M1726.66,505.757L1752.24,504.843L1752.41,512.303L1726.73,513.124L1726.66,505.757Z" style="fill:rgb(24,14,6);fill-opacity:0.309804;fill-rule:nonzero;"/>
            <path d="M1727.12,532.863L1752.41,533.46L1752.41,537.91L1727.26,540.024L1727.12,532.863Z" style="fill:rgb(24,14,6);fill-opacity:0.309804;fill-rule:nonzero;"/>
            <path d="M1753.22,557.509L1727.63,560.182L1727.7,564.809L1753.35,564.809L1753.22,557.509Z" style="fill:rgb(24,14,6);fill-opacity:0.309804;fill-rule:nonzero;"/>
        </g>
        <path d="M1725.52,421.376C1725.52,421.376 1730.13,416.114 1733.22,417.234C1739.63,419.554 1734.44,438.56 1727.79,441.898C1721.13,445.236 1724.1,423.83 1725.52,421.376Z" style="fill:rgb(255,33,239);fill-rule:nonzero;"/>
        <path d="M1720.94,181.417L1745.72,182.307L1745.23,205.927L1747.08,205.819L1745.72,300.749L1743.24,300.686L1742.9,316.491L1749.7,482.341L1751.76,482.331L1753.64,578.641L1753.69,579.822L1753.66,579.822L1753.69,581.119L1727.88,581.119L1726.3,482.453L1727.92,482.445L1726.7,385.164L1724.3,300.202L1723.62,300.185L1720.94,207.339L1721.67,207.297L1720.94,181.417Z" style="fill:url(#_Linear47);fill-rule:nonzero;"/>
        <path d="M1720.94,181.417L1745.72,182.307L1745.23,205.927L1747.08,205.819L1745.72,300.749L1743.24,300.686L1742.9,316.491L1749.7,482.341L1751.76,482.331L1753.64,578.641L1753.69,579.822L1753.66,579.822L1753.69,581.119L1727.88,581.119L1726.3,482.453L1727.92,482.445L1726.7,385.164L1724.3,300.202L1723.62,300.185L1720.94,207.339L1721.67,207.297L1720.94,181.417Z" style="fill:url(#_Radial48);fill-rule:nonzero;"/>
        <path d="M1720.94,181.417L1745.72,182.307L1745.23,205.927L1747.08,205.819L1745.72,300.749L1743.24,300.686L1742.9,316.491L1749.7,482.341L1751.76,482.331L1753.64,578.641L1753.69,579.822L1753.66,579.822L1753.69,581.119L1727.88,581.119L1726.3,482.453L1727.92,482.445L1726.7,385.164L1724.3,300.202L1723.62,300.185L1720.94,207.339L1721.67,207.297L1720.94,181.417Z" style="fill:url(#_Radial49);fill-rule:nonzero;"/>
        <path d="M1538.87,190.264C1534.51,187.463 1516.86,194.808 1516.24,202.244C1515.62,209.68 1545.27,194.382 1538.87,190.264Z" style="fill:white;fill-rule:nonzero;"/>
    </g>
    <defs>
        <linearGradient id="_Linear1" x1="0" y1="0" x2="1" y2="0" gradientUnits="userSpaceOnUse" gradientTransform="matrix(-108.96,-390.24,390.24,-108.96,1872.51,593.792)"><stop offset="0" style="stop-color:rgb(10,255,245);stop-opacity:1"/><stop offset="1" style="stop-color:rgb(19,255,250);stop-opacity:0"/></linearGradient>
        <radialGradient id="_Radial2" cx="0" cy="0" r="1" gradientUnits="userSpaceOnUse" gradientTransform="matrix(360.067,0,0,360.067,1616.19,-31.168)"><stop offset="0" style="stop-color:rgb(251,255,0);stop-opacity:1"/><stop offset="1" style="stop-color:rgb(253,255,0);stop-opacity:0"/></radialGradient>
        <linearGradient id="_Linear3" x1="0" y1="0" x2="1" y2="0" gradientUnits="userSpaceOnUse" gradientTransform="matrix(-89.451,1.538,-1.538,-89.451,1757.02,490.481)"><stop offset="0" style="stop-color:rgb(5,255,242);stop-opacity:0"/><stop offset="0.44" style="stop-color:rgb(10,255,245);stop-opacity:1"/><stop offset="1" style="stop-color:rgb(19,255,250);stop-opacity:0"/></linearGradient>
        <linearGradient id="_Linear4" x1="0" y1="0" x2="1" y2="0" gradientUnits="userSpaceOnUse" gradientTransform="matrix(-5.553,-121.339,121.339,-5.553,1710.63,574.681)"><stop offset="0" style="stop-color:rgb(10,255,245);stop-opacity:1"/><stop offset="1" style="stop-color:rgb(19,255,250);stop-opacity:0"/></linearGradient>
        <linearGradient id="_Linear5" x1="0" y1="0" x2="1" y2="0" gradientUnits="userSpaceOnUse" gradientTransform="matrix(-74.529,-55.332,55.332,-74.529,1516.77,302.622)"><stop offset="0" style="stop-color:rgb(10,255,245);stop-opacity:1"/><stop offset="1" style="stop-color:rgb(19,255,250);stop-opacity:0"/></linearGradient>
        <linearGradient id="_Linear6" x1="0" y1="0" x2="1" y2="0" gradientUnits="userSpaceOnUse" gradientTransform="matrix(-99.746,-4.598,4.598,-99.746,1508.51,387.162)"><stop offset="0" style="stop-color:rgb(10,255,245);stop-opacity:1"/><stop offset="1" style="stop-color:rgb(19,255,250);stop-opacity:0"/></linearGradient>
        <radialGradient id="_Radial7" cx="0" cy="0" r="1" gradientUnits="userSpaceOnUse" gradientTransform="matrix(501.382,0,0,501.382,1266.46,32.355)"><stop offset="0" style="stop-color:rgb(251,255,0);stop-opacity:1"/><stop offset="1" style="stop-color:rgb(253,255,0);stop-opacity:0"/></radialGradient>
        <linearGradient id="_Linear8" x1="0" y1="0" x2="1" y2="0" gradientUnits="userSpaceOnUse" gradientTransform="matrix(-486.528,69.766,-69.766,-486.528,2049.78,266.297)"><stop offset="0" style="stop-color:rgb(10,255,245);stop-opacity:1"/><stop offset="1" style="stop-color:rgb(19,255,250);stop-opacity:0"/></linearGradient>
        <linearGradient id="_Linear9" x1="0" y1="0" x2="1" y2="0" gradientUnits="userSpaceOnUse" gradientTransform="matrix(-234.008,14.512,-14.512,-234.008,1723.69,548.822)"><stop offset="0" style="stop-color:rgb(5,255,242);stop-opacity:0"/><stop offset="0.44" style="stop-color:rgb(10,255,245);stop-opacity:1"/><stop offset="1" style="stop-color:rgb(19,255,250);stop-opacity:0"/></linearGradient>
        <linearGradient id="_Linear10" x1="0" y1="0" x2="1" y2="0" gradientUnits="userSpaceOnUse" gradientTransform="matrix(-54.192,0.16,-0.16,-54.192,1475.94,465.848)"><stop offset="0" style="stop-color:rgb(10,255,245);stop-opacity:1"/><stop offset="1" style="stop-color:rgb(19,255,250);stop-opacity:0"/></linearGradient>
        <linearGradient id="_Linear11" x1="0" y1="0" x2="1" y2="0" gradientUnits="userSpaceOnUse" gradientTransform="matrix(-20.939,-140.175,140.175,-20.939,1579.55,629.226)"><stop offset="0" style="stop-color:rgb(10,255,245);stop-opacity:1"/><stop offset="1" style="stop-color:rgb(19,255,250);stop-opacity:0"/></linearGradient>
        <linearGradient id="_Linear12" x1="0" y1="0" x2="1" y2="0" gradientUnits="userSpaceOnUse" gradientTransform="matrix(-113.363,1.067,-1.067,-113.363,1583.23,509.22)"><stop offset="0" style="stop-color:rgb(5,255,242);stop-opacity:0"/><stop offset="0.44" style="stop-color:rgb(10,255,245);stop-opacity:0.541176"/><stop offset="1" style="stop-color:rgb(19,255,250);stop-opacity:0"/></linearGradient>
        <radialGradient id="_Radial13" cx="0" cy="0" r="1" gradientUnits="userSpaceOnUse" gradientTransform="matrix(445.38,0,0,445.38,1136.98,481.98)"><stop offset="0" style="stop-color:rgb(251,255,0);stop-opacity:1"/><stop offset="1" style="stop-color:rgb(253,255,0);stop-opacity:0"/></radialGradient>
        <linearGradient id="_Linear14" x1="0" y1="0" x2="1" y2="0" gradientUnits="userSpaceOnUse" gradientTransform="matrix(-369.204,29.436,-29.436,-369.204,1930.58,469.252)"><stop offset="0" style="stop-color:rgb(10,255,245);stop-opacity:0.647059"/><stop offset="1" style="stop-color:rgb(19,255,250);stop-opacity:0"/></linearGradient>
        <radialGradient id="_Radial15" cx="0" cy="0" r="1" gradientUnits="userSpaceOnUse" gradientTransform="matrix(440.383,0,0,440.383,1143.18,481.98)"><stop offset="0" style="stop-color:rgb(251,255,0);stop-opacity:1"/><stop offset="1" style="stop-color:rgb(253,255,0);stop-opacity:0"/></radialGradient>
        <linearGradient id="_Linear16" x1="0" y1="0" x2="1" y2="0" gradientUnits="userSpaceOnUse" gradientTransform="matrix(-86.371,21.805,-21.805,-86.371,1510.03,531.759)"><stop offset="0" style="stop-color:rgb(5,255,242);stop-opacity:0"/><stop offset="0.44" style="stop-color:rgb(10,255,245);stop-opacity:1"/><stop offset="1" style="stop-color:rgb(19,255,250);stop-opacity:0"/></linearGradient>
        <linearGradient id="_Linear17" x1="0" y1="0" x2="1" y2="0" gradientUnits="userSpaceOnUse" gradientTransform="matrix(-97.161,-46.487,46.487,-97.161,1585.57,534.883)"><stop offset="0" style="stop-color:rgb(10,255,245);stop-opacity:1"/><stop offset="1" style="stop-color:rgb(19,255,250);stop-opacity:0"/></linearGradient>
        <radialGradient id="_Radial18" cx="0" cy="0" r="1" gradientUnits="userSpaceOnUse" gradientTransform="matrix(64.059,0,0,64.059,1415.62,263.895)"><stop offset="0" style="stop-color:rgb(251,255,0);stop-opacity:1"/><stop offset="1" style="stop-color:rgb(253,255,0);stop-opacity:0"/></radialGradient>
        <linearGradient id="_Linear19" x1="0" y1="0" x2="1" y2="0" gradientUnits="userSpaceOnUse" gradientTransform="matrix(-61.373,13.734,-13.734,-61.373,1701.68,468.454)"><stop offset="0" style="stop-color:rgb(5,255,242);stop-opacity:0"/><stop offset="0.44" style="stop-color:rgb(10,255,245);stop-opacity:0.309804"/><stop offset="1" style="stop-color:rgb(19,255,250);stop-opacity:0"/></linearGradient>
        <radialGradient id="_Radial20" cx="0" cy="0" r="1" gradientUnits="userSpaceOnUse" gradientTransform="matrix(146.908,0,0,146.908,1341.58,476.716)"><stop offset="0" style="stop-color:rgb(251,255,0);stop-opacity:1"/><stop offset="1" style="stop-color:rgb(253,255,0);stop-opacity:0"/></radialGradient>
        <radialGradient id="_Radial21" cx="0" cy="0" r="1" gradientUnits="userSpaceOnUse" gradientTransform="matrix(501.382,0,0,501.382,1266.46,32.355)"><stop offset="0" style="stop-color:rgb(251,255,0);stop-opacity:1"/><stop offset="1" style="stop-color:rgb(253,255,0);stop-opacity:0"/></radialGradient>
        <linearGradient id="_Linear22" x1="0" y1="0" x2="1" y2="0" gradientUnits="userSpaceOnUse" gradientTransform="matrix(-174.1,9.994,-9.994,-174.1,1694,500.026)"><stop offset="0" style="stop-color:rgb(5,255,242);stop-opacity:0"/><stop offset="0.44" style="stop-color:rgb(10,255,245);stop-opacity:0.541176"/><stop offset="1" style="stop-color:rgb(19,255,250);stop-opacity:0"/></linearGradient>
        <linearGradient id="_Linear23" x1="0" y1="0" x2="1" y2="0" gradientUnits="userSpaceOnUse" gradientTransform="matrix(-0.007615,-0.24094,0.24094,-0.007615,1456.62,294.821)"><stop offset="0" style="stop-color:rgb(5,255,242);stop-opacity:0"/><stop offset="0.44" style="stop-color:rgb(10,255,245);stop-opacity:1"/><stop offset="1" style="stop-color:rgb(19,255,250);stop-opacity:0"/></linearGradient>
        <linearGradient id="_Linear24" x1="0" y1="0" x2="1" y2="0" gradientUnits="userSpaceOnUse" gradientTransform="matrix(-52.9,-37.5987,37.5987,-52.9,1623.66,521.166)"><stop offset="0" style="stop-color:rgb(5,255,242);stop-opacity:0"/><stop offset="0.44" style="stop-color:rgb(10,255,245);stop-opacity:1"/><stop offset="1" style="stop-color:rgb(19,255,250);stop-opacity:0"/></linearGradient>
        <radialGradient id="_Radial25" cx="0" cy="0" r="1" gradientUnits="userSpaceOnUse" gradientTransform="matrix(53.2792,27.0577,-27.0577,53.2792,1662.03,455.083)"><stop offset="0" style="stop-color:rgb(251,255,0);stop-opacity:1"/><stop offset="1" style="stop-color:rgb(253,255,0);stop-opacity:0"/></radialGradient>
        <radialGradient id="_Radial26" cx="0" cy="0" r="1" gradientUnits="userSpaceOnUse" gradientTransform="matrix(72.5241,36.8312,-36.8312,72.5241,1688.16,419.712)"><stop offset="0" style="stop-color:rgb(251,255,0);stop-opacity:1"/><stop offset="1" style="stop-color:rgb(253,255,0);stop-opacity:0"/></radialGradient>
        <radialGradient id="_Radial27" cx="0" cy="0" r="1" gradientUnits="userSpaceOnUse" gradientTransform="matrix(106.286,0,0,106.286,1546.81,206.51)"><stop offset="0" style="stop-color:rgb(152,152,152);stop-opacity:1"/><stop offset="1" style="stop-color:rgb(84,84,84);stop-opacity:1"/></radialGradient>
        <linearGradient id="_Linear28" x1="0" y1="0" x2="1" y2="0" gradientUnits="userSpaceOnUse" gradientTransform="matrix(-169.575,-68.949,68.949,-169.575,1748.91,326.595)"><stop offset="0" style="stop-color:rgb(10,255,245);stop-opacity:1"/><stop offset="1" style="stop-color:rgb(19,255,250);stop-opacity:0"/></linearGradient>
        <radialGradient id="_Radial29" cx="0" cy="0" r="1" gradientUnits="userSpaceOnUse" gradientTransform="matrix(281.796,0,0,281.796,1356.99,79.229)"><stop offset="0" style="stop-color:rgb(251,255,0);stop-opacity:1"/><stop offset="1" style="stop-color:rgb(253,255,0);stop-opacity:0"/></radialGradient>
        <linearGradient id="_Linear30" x1="0" y1="0" x2="1" y2="0" gradientUnits="userSpaceOnUse" gradientTransform="matrix(-71.937,-87.81,87.81,-71.937,1613.99,340.838)"><stop offset="0" style="stop-color:rgb(5,255,242);stop-opacity:0"/><stop offset="0.44" style="stop-color:rgb(10,255,245);stop-opacity:1"/><stop offset="1" style="stop-color:rgb(19,255,250);stop-opacity:0"/></linearGradient>
        <radialGradient id="_Radial31" cx="0" cy="0" r="1" gradientUnits="userSpaceOnUse" gradientTransform="matrix(92.384,0,0,92.384,1517.74,145.391)"><stop offset="0" style="stop-color:rgb(251,255,0);stop-opacity:1"/><stop offset="1" style="stop-color:rgb(253,255,0);stop-opacity:0"/></radialGradient>
        <linearGradient id="_Linear32" x1="0" y1="0" x2="1" y2="0" gradientUnits="userSpaceOnUse" gradientTransform="matrix(-17.716,2.025,-2.025,-17.716,1552.6,485.331)"><stop offset="0" style="stop-color:rgb(5,255,242);stop-opacity:0"/><stop offset="0.44" style="stop-color:rgb(10,255,245);stop-opacity:1"/><stop offset="1" style="stop-color:rgb(19,255,250);stop-opacity:0"/></linearGradient>
        <radialGradient id="_Radial33" cx="0" cy="0" r="1" gradientUnits="userSpaceOnUse" gradientTransform="matrix(22.247,0,0,22.247,1549.39,460.498)"><stop offset="0" style="stop-color:rgb(251,255,0);stop-opacity:1"/><stop offset="1" style="stop-color:rgb(253,255,0);stop-opacity:0"/></radialGradient>
        <linearGradient id="_Linear34" x1="0" y1="0" x2="1" y2="0" gradientUnits="userSpaceOnUse" gradientTransform="matrix(-17.8892,1.26325,-1.26325,-17.8892,1516.5,237.689)"><stop offset="0" style="stop-color:rgb(5,255,242);stop-opacity:0"/><stop offset="0.44" style="stop-color:rgb(10,255,245);stop-opacity:1"/><stop offset="1" style="stop-color:rgb(19,255,250);stop-opacity:0"/></linearGradient>
        <radialGradient id="_Radial35" cx="0" cy="0" r="1" gradientUnits="userSpaceOnUse" gradientTransform="matrix(22.247,0.956621,-1.91324,22.247,1515.42,212.718)"><stop offset="0" style="stop-color:rgb(251,255,0);stop-opacity:1"/><stop offset="1" style="stop-color:rgb(253,255,0);stop-opacity:0"/></radialGradient>
        <radialGradient id="_Radial36" cx="0" cy="0" r="1" gradientUnits="userSpaceOnUse" gradientTransform="matrix(52.396,2.25303,-4.50606,52.396,1485.81,189.597)"><stop offset="0" style="stop-color:rgb(251,255,0);stop-opacity:1"/><stop offset="1" style="stop-color:rgb(253,255,0);stop-opacity:0"/></radialGradient>
        <linearGradient id="_Linear37" x1="0" y1="0" x2="1" y2="0" gradientUnits="userSpaceOnUse" gradientTransform="matrix(-64.173,-27.068,27.068,-64.173,1642.11,229.11)"><stop offset="0" style="stop-color:rgb(10,255,245);stop-opacity:0.533333"/><stop offset="1" style="stop-color:rgb(19,255,250);stop-opacity:0"/></linearGradient>
        <radialGradient id="_Radial38" cx="0" cy="0" r="1" gradientUnits="userSpaceOnUse" gradientTransform="matrix(63.777,0,0,63.777,1543.23,164.059)"><stop offset="0" style="stop-color:rgb(251,255,0);stop-opacity:1"/><stop offset="1" style="stop-color:rgb(253,255,0);stop-opacity:0"/></radialGradient>
        <linearGradient id="_Linear39" x1="0" y1="0" x2="1" y2="0" gradientUnits="userSpaceOnUse" gradientTransform="matrix(11.105,7.392,-7.392,11.105,1596.12,171.007)"><stop offset="0" style="stop-color:rgb(210,210,210);stop-opacity:1"/><stop offset="1" style="stop-color:rgb(149,149,149);stop-opacity:1"/></linearGradient>
        <linearGradient id="_Linear40" x1="0" y1="0" x2="1" y2="0" gradientUnits="userSpaceOnUse" gradientTransform="matrix(3.538,-65.083,65.083,3.538,1506.94,518.454)"><stop offset="0" style="stop-color:rgb(5,255,242);stop-opacity:0"/><stop offset="0.44" style="stop-color:rgb(10,255,245);stop-opacity:0.517647"/><stop offset="1" style="stop-color:rgb(19,255,250);stop-opacity:0"/></linearGradient>
        <linearGradient id="_Linear41" x1="0" y1="0" x2="1" y2="0" gradientUnits="userSpaceOnUse" gradientTransform="matrix(-66.055,-5.813,5.813,-66.055,1595.91,324.642)"><stop offset="0" style="stop-color:rgb(86,255,0);stop-opacity:0"/><stop offset="0.44" style="stop-color:rgb(79,255,0);stop-opacity:0.368627"/><stop offset="1" style="stop-color:rgb(73,255,0);stop-opacity:0"/></linearGradient>
        <linearGradient id="_Linear42" x1="0" y1="0" x2="1" y2="0" gradientUnits="userSpaceOnUse" gradientTransform="matrix(-329.259,-84.4782,84.4782,-329.259,1877.72,453.721)"><stop offset="0" style="stop-color:rgb(10,255,245);stop-opacity:1"/><stop offset="1" style="stop-color:rgb(19,255,250);stop-opacity:0"/></linearGradient>
        <linearGradient id="_Linear43" x1="0" y1="0" x2="1" y2="0" gradientUnits="userSpaceOnUse" gradientTransform="matrix(-13.2443,75.0403,-75.0403,-13.2443,1565.94,348.632)"><stop offset="0" style="stop-color:rgb(73,27,69);stop-opacity:1"/><stop offset="1" style="stop-color:black;stop-opacity:1"/></linearGradient>
        <linearGradient id="_Linear44" x1="0" y1="0" x2="1" y2="0" gradientUnits="userSpaceOnUse" gradientTransform="matrix(-191.783,1.23137,-1.23137,-191.783,1660.05,401.942)"><stop offset="0" style="stop-color:rgb(5,255,242);stop-opacity:0"/><stop offset="0.44" style="stop-color:rgb(10,255,245);stop-opacity:1"/><stop offset="1" style="stop-color:rgb(19,255,250);stop-opacity:0"/></linearGradient>
        <linearGradient id="_Linear45" x1="0" y1="0" x2="1" y2="0" gradientUnits="userSpaceOnUse" gradientTransform="matrix(1.301,-38.953,38.953,1.301,1509.44,300.634)"><stop offset="0" style="stop-color:rgb(5,255,242);stop-opacity:0"/><stop offset="0.44" style="stop-color:rgb(10,255,245);stop-opacity:0.482353"/><stop offset="1" style="stop-color:rgb(19,255,250);stop-opacity:0"/></linearGradient>
        <radialGradient id="_Radial46" cx="0" cy="0" r="1" gradientUnits="userSpaceOnUse" gradientTransform="matrix(38.547,0,0,38.547,1487.24,236.273)"><stop offset="0" style="stop-color:rgb(251,255,0);stop-opacity:1"/><stop offset="1" style="stop-color:rgb(253,255,0);stop-opacity:0"/></radialGradient>
        <linearGradient id="_Linear47" x1="0" y1="0" x2="1" y2="0" gradientUnits="userSpaceOnUse" gradientTransform="matrix(-96.909,4.442,-4.442,-96.909,1832.83,509.551)"><stop offset="0" style="stop-color:rgb(10,255,245);stop-opacity:1"/><stop offset="1" style="stop-color:rgb(19,255,250);stop-opacity:0"/></linearGradient>
        <radialGradient id="_Radial48" cx="0" cy="0" r="1" gradientUnits="userSpaceOnUse" gradientTransform="matrix(116.573,0,0,116.573,1624.35,314.43)"><stop offset="0" style="stop-color:rgb(251,255,0);stop-opacity:1"/><stop offset="1" style="stop-color:rgb(253,255,0);stop-opacity:0"/></radialGradient>
        <radialGradient id="_Radial49" cx="0" cy="0" r="1" gradientUnits="userSpaceOnUse" gradientTransform="matrix(101.502,0,0,101.502,1646.54,488.162)"><stop offset="0" style="stop-color:rgb(251,255,0);stop-opacity:1"/><stop offset="1" style="stop-color:rgb(253,255,0);stop-opacity:0"/></radialGradient>
    </defs>
</svg>
