<?xml version="1.0" encoding="UTF-8" standalone="no"?>
<!DOCTYPE svg PUBLIC "-//W3C//DTD SVG 1.1//EN" "http://www.w3.org/Graphics/SVG/1.1/DTD/svg11.dtd">
<svg width="100%" height="100%" viewBox="0 0 1023 1035" version="1.1" xmlns="http://www.w3.org/2000/svg" xmlns:xlink="http://www.w3.org/1999/xlink" xml:space="preserve" xmlns:serif="http://www.serif.com/" style="fill-rule:evenodd;clip-rule:evenodd;stroke-linejoin:round;stroke-miterlimit:1.41421;">
    <g transform="matrix(1,0,0,1,-69.2617,-56.0493)">
        <g id="body" transform="matrix(1,0,0,1,-244.676,-271.447)">
            <path d="M539.676,519.947C594.35,332.204 707.601,281.364 927.676,369.447C1256.34,500.992 727.516,869.118 799.676,1001.45C801.318,1004.46 902.975,927.824 1028.68,1026.45C1126.61,1103.28 1299.29,1125.05 1323.68,1169.45C1377.65,1267.72 1257.58,1356.16 996.676,1300.45C916.489,1283.32 893.858,1005.63 761,1110C735.758,1129.83 694.592,1285.92 615.676,1338.45C537.689,1390.36 421.946,1338.83 396.676,1339.45C292.192,1341.98 271.565,893.189 423.676,991.447C580.286,1092.61 648.9,1121.23 674.676,1053.45C707.969,965.901 499.585,657.613 539.676,519.947Z" style="fill:rgb(165,204,230);"/>
        </g>
        <g transform="matrix(1.27959,0.498335,-0.436493,1.1208,214.957,-597.461)">
            <ellipse cx="497.5" cy="522.5" rx="104.5" ry="98.5" style="fill:rgb(90,107,185);"/>
        </g>
    </g>
</svg>
