<?xml version="1.0" encoding="UTF-8" standalone="no"?>
<!DOCTYPE svg PUBLIC "-//W3C//DTD SVG 1.1//EN" "http://www.w3.org/Graphics/SVG/1.1/DTD/svg11.dtd">
<svg width="100%" height="100%" viewBox="0 0 64 123" version="1.1" xmlns="http://www.w3.org/2000/svg" xmlns:xlink="http://www.w3.org/1999/xlink" xml:space="preserve" xmlns:serif="http://www.serif.com/" style="fill-rule:evenodd;clip-rule:evenodd;stroke-linejoin:round;stroke-miterlimit:1.41421;">
    <g transform="matrix(1,0,0,1,-56.355,-635.3)">
        <g transform="matrix(1,0,0,1,56,-9)">
            <path d="M24.55,746.85L24.55,746.7L25.55,737.5L26.05,730.4L26.5,721.15L26.5,720.6L36.55,728.25L36.65,729.95C36.717,732.083 36.833,734.183 37,736.25L37.1,737.8C37.333,740.933 37.683,744 38.15,747L38.5,749.2L32.2,748.6C29.5,748.2 26.95,747.617 24.55,746.85" style="fill:rgb(163,120,77);fill-rule:nonzero;"/>
        </g>
        <g transform="matrix(1,0,0,1,56,-9)">
            <path d="M24.55,746.85C26.95,747.617 29.5,748.2 32.2,748.6L38.5,749.2L40.35,758.85C40.85,761.517 39.967,763.583 37.7,765.05C33.933,767.417 29.983,767.433 25.85,765.1C23.217,763.767 22.167,761.55 22.7,758.45C23.433,754.75 24.05,750.883 24.55,746.85" style="fill:rgb(180,131,85);fill-rule:nonzero;"/>
        </g>
        <g transform="matrix(1,0,0,1,56,-9)">
            <path d="M24.6,759C24.2,761.1 24.9,762.65 26.7,763.65L26.8,763.65C30.233,765.583 33.517,765.6 36.65,763.7C38.217,762.633 38.833,761.2 38.5,759.4L38.5,759.45C36.933,752.717 35.833,745.617 35.2,738.15L35.2,738.1C34.967,735.233 34.817,732.333 34.75,729.4L28.25,724.5C28.083,729.1 27.8,733.55 27.4,737.85C26.767,745.417 25.833,752.467 24.6,759M22.7,758.65C23.933,752.15 24.883,745.15 25.55,737.65C26.017,732.283 26.317,726.65 26.45,720.75L36.55,728.4L37.1,738C37.733,745.367 38.817,752.367 40.35,759C40.85,761.667 39.967,763.75 37.7,765.25C33.933,767.583 29.983,767.6 25.85,765.3C23.217,763.933 22.167,761.717 22.7,758.65" style="fill-opacity:0.101961;fill-rule:nonzero;"/>
        </g>
        <g transform="matrix(1,0,0,1,56,-9)">
            <path d="M30.45,644.95C30.917,644.617 31.417,644.4 31.95,644.3C32.483,644.4 32.983,644.617 33.45,644.95C34.417,645.583 35,646.5 35.2,647.7C36.133,647.667 37.017,647.917 37.85,648.45C38.817,649.15 39.4,650.083 39.6,651.25L39.7,652.45L40.05,652.4C41.25,652.167 42.35,652.383 43.35,653.05C44.317,653.75 44.933,654.7 45.2,655.9C45.333,656.867 45.2,657.75 44.8,658.55C45.767,659.217 46.367,660.15 46.6,661.35L46.7,662.3C47.5,662.467 48.233,662.783 48.9,663.25C50.367,664.283 51.267,665.683 51.6,667.45C51.8,668.617 51.7,669.733 51.3,670.8L51.35,670.8C52.383,671.467 53,672.4 53.2,673.6C53.433,674.8 53.2,675.9 52.5,676.9L51.05,678.25C51.917,678.917 52.45,679.8 52.65,680.9L52.65,682.45L53.85,682.6C55.017,682.9 55.917,683.567 56.55,684.6C57.117,685.6 57.267,686.683 57,687.85C57.833,688.25 58.5,688.867 59,689.7C59.6,690.733 59.75,691.85 59.45,693.05L58.95,694.15L59.3,694.25C60.467,694.55 61.367,695.217 62,696.25C62.567,697.283 62.7,698.4 62.4,699.6C62.133,700.533 61.65,701.283 60.95,701.85C61.55,702.883 61.683,703.983 61.35,705.15L61.05,706L62.65,707.85C63.517,709.383 63.717,711.017 63.25,712.75C62.983,713.883 62.433,714.85 61.6,715.65L61.65,715.7C62.25,716.733 62.367,717.85 62,719.05C61.7,720.25 61.033,721.15 60,721.75C59.4,722.05 58.75,722.233 58.05,722.3C58.583,723.233 58.717,724.25 58.45,725.35C58.117,726.55 57.433,727.45 56.4,728.05L55.85,728.3C56.083,729.333 56.05,730.4 55.75,731.5C55.283,733.267 54.3,734.6 52.8,735.5C51.9,735.967 51,736.25 50.1,736.35L50,736.6C49.7,737.767 49.017,738.633 47.95,739.2C47.217,739.667 46.433,739.883 45.6,739.85L43.3,741.9C40.2,744.2 36.417,745.35 31.95,745.35C27.517,745.35 23.733,744.2 20.6,741.9L18.3,739.85C17.467,739.883 16.667,739.667 15.9,739.2C14.867,738.633 14.183,737.767 13.85,736.6L13.8,736.35C12.867,736.25 11.967,735.967 11.1,735.5C9.6,734.6 8.6,733.267 8.1,731.5C7.8,730.4 7.783,729.333 8.05,728.3L7.45,728.05C6.417,727.45 5.75,726.55 5.45,725.35C5.15,724.25 5.267,723.233 5.8,722.3C5.1,722.233 4.467,722.05 3.9,721.75C2.833,721.15 2.15,720.25 1.85,719.05C1.517,717.85 1.65,716.733 2.25,715.7L2.25,715.65C1.45,714.85 0.9,713.883 0.6,712.75C0.133,711.017 0.35,709.383 1.25,707.85C1.683,707.15 2.217,706.533 2.85,706L2.5,705.15C2.2,703.983 2.35,702.883 2.95,701.85C2.217,701.283 1.717,700.533 1.45,699.6C1.15,698.4 1.3,697.283 1.9,696.25C2.533,695.217 3.433,694.55 4.6,694.25L4.9,694.15L4.45,693.05C4.117,691.85 4.25,690.733 4.85,689.7C5.35,688.867 6.033,688.25 6.9,687.85C6.6,686.683 6.733,685.6 7.3,684.6C7.933,683.567 8.833,682.9 10,682.6L11.25,682.45C11.15,681.95 11.15,681.433 11.25,680.9C11.417,679.8 11.95,678.917 12.85,678.25C12.25,677.917 11.75,677.467 11.35,676.9C10.683,675.9 10.45,674.8 10.65,673.6C10.883,672.4 11.5,671.467 12.5,670.8L12.55,670.8C12.183,669.733 12.083,668.617 12.25,667.45C12.617,665.683 13.517,664.283 14.95,663.25C15.65,662.783 16.4,662.467 17.2,662.3L17.25,661.35C17.483,660.15 18.083,659.217 19.05,658.55C18.65,657.75 18.533,656.867 18.7,655.9C18.933,654.7 19.533,653.75 20.5,653.05C21.533,652.383 22.633,652.167 23.8,652.4L24.15,652.45L24.25,651.25C24.483,650.083 25.083,649.15 26.05,648.45C26.85,647.917 27.733,647.667 28.7,647.7C28.867,646.5 29.45,645.583 30.45,644.95M29.7,657.3C29.1,657.3 28.517,657.483 27.95,657.85C27.317,658.317 26.917,658.933 26.75,659.7L26.7,660.5L26.45,660.5C25.683,660.367 24.95,660.517 24.25,660.95C23.583,661.417 23.167,662.033 23,662.8C22.933,663.467 23.017,664.067 23.25,664.6C22.617,665.067 22.233,665.7 22.1,666.5L22,667.15C21.5,667.25 21,667.467 20.5,667.8C19.533,668.467 18.95,669.4 18.75,670.6C18.617,671.4 18.667,672.133 18.9,672.8L18.85,672.8C18.217,673.267 17.817,673.917 17.65,674.75C17.483,675.55 17.633,676.267 18.1,676.9L19.1,677.8C18.5,678.267 18.133,678.867 18,679.6L18,680.65L17.2,680.75C16.433,680.95 15.833,681.4 15.4,682.1C15,682.767 14.9,683.5 15.1,684.3C14.533,684.533 14.083,684.933 13.75,685.5C13.35,686.233 13.25,686.983 13.45,687.75L13.8,688.55L13.55,688.55C12.75,688.783 12.15,689.25 11.75,689.95C11.35,690.65 11.25,691.383 11.45,692.15C11.617,692.817 11.95,693.317 12.45,693.65C12.05,694.35 11.967,695.117 12.2,695.95L12.35,696.5C11.95,696.8 11.617,697.2 11.35,697.7C10.75,698.767 10.6,699.867 10.9,701C11.1,701.767 11.467,702.417 12,702.95C11.567,703.65 11.467,704.4 11.7,705.2C11.933,706 12.383,706.6 13.05,707L14.4,707.4C14.033,708.033 13.933,708.717 14.1,709.45C14.333,710.25 14.8,710.85 15.5,711.25L15.85,711.4C15.683,712.133 15.717,712.85 15.95,713.55C16.25,714.75 16.917,715.65 17.95,716.25L19.7,716.8L19.8,717C20,717.767 20.45,718.35 21.15,718.75C21.65,719.083 22.2,719.233 22.8,719.2L24.3,720.55C26.4,722.083 28.95,722.85 31.95,722.85C34.917,722.85 37.45,722.083 39.55,720.55L41.1,719.2C41.667,719.233 42.2,719.083 42.7,718.75C43.4,718.35 43.85,717.767 44.05,717L44.1,716.8L45.9,716.25C46.9,715.65 47.567,714.75 47.9,713.55C48.1,712.85 48.117,712.133 47.95,711.4L48.35,711.25C49.05,710.85 49.5,710.25 49.7,709.45C49.9,708.717 49.817,708.033 49.45,707.4C49.917,707.367 50.35,707.233 50.75,707C51.45,706.6 51.9,706 52.1,705.2C52.333,704.4 52.25,703.65 51.85,702.95C52.383,702.417 52.733,701.767 52.9,701C53.233,699.867 53.1,698.767 52.5,697.7L51.45,696.5L51.65,695.95C51.883,695.117 51.783,694.35 51.35,693.65C51.85,693.317 52.183,692.817 52.35,692.15C52.583,691.383 52.483,690.65 52.05,689.95C51.65,689.25 51.067,688.783 50.3,688.55L50.05,688.55L50.4,687.75C50.6,686.983 50.5,686.233 50.1,685.5C49.733,684.933 49.283,684.533 48.75,684.3C48.917,683.5 48.817,682.767 48.45,682.1C48.017,681.4 47.417,680.95 46.65,680.75L45.8,680.65L45.8,679.6C45.667,678.867 45.3,678.267 44.7,677.8C45.133,677.633 45.467,677.333 45.7,676.9C46.167,676.267 46.333,675.55 46.2,674.75C46.067,673.917 45.65,673.267 44.95,672.8L44.9,672.8C45.167,672.133 45.233,671.4 45.1,670.6C44.867,669.4 44.267,668.467 43.3,667.8C42.833,667.467 42.35,667.25 41.85,667.15L41.75,666.5C41.617,665.7 41.217,665.067 40.55,664.6C40.85,664.067 40.933,663.467 40.8,662.8C40.633,662.033 40.233,661.417 39.6,660.95C38.933,660.517 38.183,660.367 37.35,660.5L37.1,660.5L37.1,659.7C36.933,658.933 36.517,658.317 35.85,657.85C35.317,657.483 34.733,657.3 34.1,657.3C33.967,656.533 33.583,655.933 32.95,655.5L31.95,655.05C31.55,655.117 31.2,655.267 30.9,655.5C30.233,655.933 29.833,656.533 29.7,657.3" style="fill:rgb(123,173,44);fill-rule:nonzero;"/>
        </g>
        <g transform="matrix(1,0,0,1,56,-9)">
            <path d="M29.7,657.3C29.833,656.533 30.233,655.933 30.9,655.5C31.2,655.267 31.55,655.117 31.95,655.05L32.95,655.5C33.583,655.933 33.967,656.533 34.1,657.3C34.733,657.3 35.317,657.483 35.85,657.85C36.517,658.317 36.933,658.933 37.1,659.7L37.1,660.5L37.35,660.5C38.183,660.367 38.933,660.517 39.6,660.95C40.233,661.417 40.633,662.033 40.8,662.8C40.933,663.467 40.85,664.067 40.55,664.6C41.217,665.067 41.617,665.7 41.75,666.5L41.85,667.15C42.35,667.25 42.833,667.467 43.3,667.8C44.267,668.467 44.867,669.4 45.1,670.6C45.233,671.4 45.167,672.133 44.9,672.8L44.95,672.8C45.65,673.267 46.067,673.917 46.2,674.75C46.333,675.55 46.167,676.267 45.7,676.9C45.467,677.333 45.133,677.633 44.7,677.8C45.3,678.267 45.667,678.867 45.8,679.6L45.8,680.65L46.65,680.75C47.417,680.95 48.017,681.4 48.45,682.1C48.817,682.767 48.917,683.5 48.75,684.3C49.283,684.533 49.733,684.933 50.1,685.5C50.5,686.233 50.6,686.983 50.4,687.75L50.05,688.55L50.3,688.55C51.067,688.783 51.65,689.25 52.05,689.95C52.483,690.65 52.583,691.383 52.35,692.15C52.183,692.817 51.85,693.317 51.35,693.65C51.783,694.35 51.883,695.117 51.65,695.95L51.45,696.5L52.5,697.7C53.1,698.767 53.233,699.867 52.9,701C52.733,701.767 52.383,702.417 51.85,702.95C52.25,703.65 52.333,704.4 52.1,705.2C51.9,706 51.45,706.6 50.75,707C50.35,707.233 49.917,707.367 49.45,707.4C49.817,708.033 49.9,708.717 49.7,709.45C49.5,710.25 49.05,710.85 48.35,711.25L47.95,711.4C48.117,712.133 48.1,712.85 47.9,713.55C47.567,714.75 46.9,715.65 45.9,716.25L44.1,716.8L44.05,717C43.85,717.767 43.4,718.35 42.7,718.75C42.2,719.083 41.667,719.233 41.1,719.2L39.55,720.55C37.45,722.083 34.917,722.85 31.95,722.85C28.95,722.85 26.4,722.083 24.3,720.55L22.8,719.2C22.2,719.233 21.65,719.083 21.15,718.75C20.45,718.35 20,717.767 19.8,717L19.7,716.8L17.95,716.25C16.917,715.65 16.25,714.75 15.95,713.55C15.717,712.85 15.683,712.133 15.85,711.4L15.5,711.25C14.8,710.85 14.333,710.25 14.1,709.45C13.933,708.717 14.033,708.033 14.4,707.4L13.05,707C12.383,706.6 11.933,706 11.7,705.2C11.467,704.4 11.567,703.65 12,702.95C11.467,702.417 11.1,701.767 10.9,701C10.6,699.867 10.75,698.767 11.35,697.7C11.617,697.2 11.95,696.8 12.35,696.5L12.2,695.95C11.967,695.117 12.05,694.35 12.45,693.65C11.95,693.317 11.617,692.817 11.45,692.15C11.25,691.383 11.35,690.65 11.75,689.95C12.15,689.25 12.75,688.783 13.55,688.55L13.8,688.55L13.45,687.75C13.25,686.983 13.35,686.233 13.75,685.5C14.083,684.933 14.533,684.533 15.1,684.3C14.9,683.5 15,682.767 15.4,682.1C15.833,681.4 16.433,680.95 17.2,680.75L18,680.65L18,679.6C18.133,678.867 18.5,678.267 19.1,677.8L18.1,676.9C17.633,676.267 17.483,675.55 17.65,674.75C17.817,673.917 18.217,673.267 18.85,672.8L18.9,672.8C18.667,672.133 18.617,671.4 18.75,670.6C18.95,669.4 19.533,668.467 20.5,667.8C21,667.467 21.5,667.25 22,667.15L22.1,666.5C22.233,665.7 22.617,665.067 23.25,664.6C23.017,664.067 22.933,663.467 23,662.8C23.167,662.033 23.583,661.417 24.25,660.95C24.95,660.517 25.683,660.367 26.45,660.5L26.7,660.5L26.75,659.7C26.917,658.933 27.317,658.317 27.95,657.85C28.517,657.483 29.1,657.3 29.7,657.3" style="fill:rgb(129,181,45);fill-rule:nonzero;"/>
        </g>
        <g transform="matrix(1,0,0,1,56,-9)">
            <path d="M29.9,649.15C29.5,649.45 29.067,649.583 28.6,649.55C28.033,649.55 27.517,649.717 27.05,650.05L27.1,650C26.533,650.367 26.2,650.9 26.1,651.6L26.1,651.55L26,652.45C26,652.983 25.833,653.433 25.5,653.8C25.133,654.167 24.683,654.35 24.15,654.35L23.45,654.3L23.35,654.25C22.717,654.15 22.117,654.283 21.55,654.65L21.6,654.6C21.033,655.033 20.667,655.583 20.5,656.25L20.55,656.2C20.45,656.733 20.517,657.233 20.75,657.7C20.917,658.1 20.95,658.533 20.85,659L20.1,660.1C19.533,660.467 19.217,661 19.15,661.7L19.1,661.75L19.05,662.3L18.6,663.55L17.55,664.15C16.983,664.283 16.467,664.5 16,664.8L16.05,664.8C14.983,665.533 14.35,666.533 14.15,667.8C13.983,668.6 14.033,669.4 14.3,670.2C14.433,670.567 14.433,670.95 14.3,671.35L13.65,672.3L13.4,672.45C12.9,672.817 12.617,673.317 12.55,673.95C12.383,674.617 12.5,675.233 12.9,675.8L12.95,675.9L13.7,676.6L14.55,677.5C14.717,677.9 14.75,678.3 14.65,678.7C14.517,679.167 14.283,679.517 13.95,679.75C13.483,680.117 13.2,680.6 13.1,681.2L13.1,682.1L12.95,683.2L12.25,684.05L11.2,684.35L10.4,684.4C9.733,684.6 9.233,685 8.9,685.6L8.95,685.55C8.617,686.117 8.533,686.75 8.7,687.45L8.55,688.7C8.35,689.133 8.033,689.433 7.6,689.6C7.133,689.833 6.767,690.2 6.5,690.7L6.5,690.65C6.133,691.217 6.033,691.833 6.2,692.5L6.55,693.25L6.75,694.35L6.4,695.3L5.5,695.95L5.05,696.05L5.1,696.05C4.4,696.217 3.85,696.617 3.45,697.25L3.5,697.2C3.167,697.8 3.1,698.45 3.3,699.15C3.4,699.65 3.65,700.033 4.05,700.3C4.417,700.6 4.65,700.983 4.75,701.45C4.85,701.917 4.783,702.35 4.55,702.75C4.217,703.317 4.117,703.933 4.25,704.6L4.55,705.25C4.717,705.65 4.75,706.067 4.65,706.5C4.55,706.9 4.333,707.233 4,707.5L2.85,708.8L2.8,708.85C2.2,709.917 2.083,711.067 2.45,712.3L2.45,712.35C2.617,713.083 2.983,713.733 3.55,714.3L4.1,715.1L4.1,716.1L3.75,716.8C3.517,717.333 3.483,717.9 3.65,718.5L3.65,718.55C3.817,719.217 4.183,719.733 4.75,720.1L5.95,720.4C6.383,720.433 6.767,720.6 7.1,720.9L7.65,722C7.717,722.4 7.65,722.817 7.45,723.25C7.15,723.75 7.083,724.3 7.25,724.9C7.417,725.567 7.8,726.083 8.4,726.45L8.5,726.5C9,726.633 9.383,726.917 9.65,727.35C9.917,727.783 9.983,728.25 9.85,728.75C9.683,729.483 9.717,730.217 9.95,730.95L9.95,731C10.25,732.267 10.95,733.233 12.05,733.9L13.95,734.45C14.317,734.483 14.65,734.633 14.95,734.9L15.55,735.8L15.55,735.75L15.7,736.1C15.833,736.767 16.2,737.267 16.8,737.6L18.25,737.95L19.05,738.15L19.7,738.6L21.7,740.4C24.5,742.433 27.9,743.45 31.9,743.45C35.933,743.45 39.367,742.433 42.2,740.4L42.15,740.4L44.2,738.55C44.367,738.35 44.6,738.2 44.9,738.1L45.7,737.95L47,737.6C47.6,737.267 48,736.767 48.2,736.1L48.25,735.75L48.25,735.8C48.383,735.4 48.6,735.1 48.9,734.9C49.167,734.633 49.5,734.483 49.9,734.45C50.533,734.383 51.183,734.183 51.85,733.85L51.8,733.9C52.867,733.233 53.583,732.267 53.95,731L53.95,730.95L54,728.75C53.867,728.25 53.933,727.783 54.2,727.35C54.467,726.917 54.833,726.633 55.3,726.5L55.45,726.45C56.05,726.083 56.433,725.567 56.6,724.9C56.733,724.3 56.667,723.75 56.4,723.25C56.167,722.817 56.1,722.4 56.2,722C56.267,721.567 56.45,721.2 56.75,720.9C57.083,720.6 57.467,720.433 57.9,720.4L59.1,720.1C59.633,719.733 60,719.217 60.2,718.55L60.2,718.5C60.367,717.9 60.333,717.333 60.1,716.8L59.8,716.1C59.7,715.767 59.7,715.433 59.8,715.1C59.867,714.8 60.033,714.533 60.3,714.3C60.833,713.733 61.2,713.083 61.4,712.35L61.45,712.3C61.75,711.067 61.6,709.917 61,708.85L61,708.8L59.85,707.5C59.483,707.233 59.25,706.9 59.15,706.5C59.083,706.067 59.133,705.65 59.3,705.25L59.55,704.6C59.717,703.933 59.633,703.317 59.3,702.75C59.067,702.35 58.983,701.917 59.05,701.45C59.15,700.983 59.4,700.6 59.8,700.3C60.167,700.033 60.433,699.65 60.6,699.15C60.733,698.45 60.65,697.8 60.35,697.2L60.35,697.25C59.983,696.617 59.467,696.217 58.8,696.05L58.85,696.05L58.35,695.95L57.45,695.3L57.05,694.35C57.017,693.95 57.1,693.583 57.3,693.25L57.6,692.5C57.767,691.833 57.7,691.217 57.4,690.65L57.4,690.7C57.067,690.2 56.667,689.833 56.2,689.6C55.8,689.433 55.483,689.133 55.25,688.7C55.05,688.3 55,687.883 55.1,687.45C55.267,686.75 55.2,686.117 54.9,685.55L54.9,685.6C54.567,685 54.067,684.6 53.4,684.4L52.6,684.35L51.6,684.05L50.85,683.2C50.717,682.833 50.683,682.467 50.75,682.1L50.75,681.2C50.65,680.6 50.367,680.117 49.9,679.75C49.533,679.517 49.3,679.167 49.2,678.7C49.1,678.3 49.133,677.9 49.3,677.5C49.467,677.1 49.75,676.8 50.15,676.6L50.85,675.9L50.95,675.8C51.35,675.233 51.483,674.617 51.35,673.95C51.217,673.317 50.917,672.833 50.45,672.5L50.2,672.3C49.867,672.067 49.633,671.75 49.5,671.35C49.367,670.95 49.383,670.567 49.55,670.2C49.783,669.4 49.85,668.6 49.75,667.8C49.483,666.533 48.833,665.533 47.8,664.8L47.85,664.8C47.35,664.5 46.833,664.283 46.3,664.15L45.2,663.55C44.933,663.15 44.8,662.733 44.8,662.3L44.75,661.75L44.75,661.7C44.617,661 44.267,660.467 43.7,660.1C43.333,659.8 43.083,659.433 42.95,659C42.85,658.533 42.917,658.1 43.15,657.7L43.3,656.25C43.167,655.55 42.817,655 42.25,654.6L42.3,654.65C41.733,654.283 41.133,654.15 40.5,654.25L40.35,654.3L39.7,654.35C39.167,654.35 38.717,654.167 38.35,653.8C37.983,653.433 37.8,652.983 37.8,652.45L37.75,651.6C37.617,650.9 37.267,650.367 36.7,650L36.75,650.05C36.283,649.717 35.783,649.55 35.25,649.55C34.75,649.583 34.333,649.45 34,649.15C33.6,648.85 33.367,648.45 33.3,647.95C33.233,647.35 32.95,646.883 32.45,646.55L32.35,646.5C32.183,646.367 32.033,646.283 31.9,646.25L31.55,646.5L31.45,646.55C30.95,646.883 30.65,647.35 30.55,647.95C30.45,648.45 30.233,648.85 29.9,649.15M30.4,644.95C30.867,644.617 31.367,644.4 31.9,644.3C32.433,644.4 32.933,644.617 33.4,644.95C34.4,645.583 34.983,646.5 35.15,647.7C36.117,647.667 37,647.917 37.8,648.45C38.767,649.15 39.367,650.083 39.6,651.25L39.7,652.45L40,652.4C41.2,652.167 42.3,652.383 43.3,653.05C44.3,653.75 44.917,654.7 45.15,655.9C45.317,656.867 45.2,657.75 44.8,658.55C45.767,659.217 46.367,660.15 46.6,661.35L46.65,662.3C47.45,662.467 48.2,662.783 48.9,663.25C50.333,664.283 51.233,665.683 51.6,667.45C51.767,668.617 51.667,669.733 51.3,670.8L51.35,670.8C52.35,671.467 52.967,672.4 53.2,673.6C53.4,674.8 53.15,675.9 52.45,676.9L51,678.25C51.9,678.917 52.433,679.8 52.6,680.9L52.6,682.45L53.85,682.6C55.017,682.9 55.917,683.567 56.55,684.6C57.117,685.6 57.25,686.683 56.95,687.85C57.783,688.25 58.467,688.867 59,689.7C59.6,690.733 59.733,691.85 59.4,693.05L58.95,694.15L59.25,694.25C60.417,694.55 61.317,695.217 61.95,696.25C62.55,697.283 62.683,698.4 62.35,699.6C62.117,700.533 61.633,701.283 60.9,701.85C61.5,702.883 61.65,703.983 61.35,705.15L61,706L62.6,707.85C63.5,709.383 63.7,711.017 63.2,712.75C62.933,713.883 62.383,714.85 61.55,715.65L61.6,715.7C62.2,716.733 62.333,717.85 62,719.05C61.7,720.25 61.017,721.15 59.95,721.75C59.35,722.05 58.717,722.233 58.05,722.3C58.583,723.233 58.7,724.25 58.4,725.35C58.1,726.55 57.433,727.45 56.4,728.05L55.8,728.3C56.067,729.333 56.05,730.4 55.75,731.5C55.25,733.267 54.25,734.6 52.75,735.5C51.883,735.967 50.983,736.25 50.05,736.35L49.95,736.6C49.65,737.767 48.983,738.633 47.95,739.2C47.183,739.667 46.4,739.883 45.6,739.85L43.3,741.9C40.167,744.2 36.367,745.35 31.9,745.35C27.467,745.35 23.7,744.2 20.6,741.9L18.3,739.85C17.433,739.883 16.633,739.667 15.9,739.2C14.833,738.633 14.15,737.767 13.85,736.6L13.75,736.35C12.85,736.25 11.95,735.967 11.05,735.5C9.55,734.6 8.567,733.267 8.1,731.5C7.767,730.4 7.733,729.333 8,728.3L7.45,728.05C6.417,727.45 5.733,726.55 5.4,725.35C5.133,724.25 5.267,723.233 5.8,722.3C5.1,722.233 4.45,722.05 3.85,721.75C2.817,721.15 2.133,720.25 1.8,719.05C1.467,717.85 1.6,716.733 2.2,715.7L2.25,715.65C1.417,714.85 0.867,713.883 0.6,712.75C0.133,711.017 0.333,709.383 1.2,707.85C1.633,707.15 2.167,706.533 2.8,706L2.5,705.15C2.167,703.983 2.3,702.883 2.9,701.85C2.167,701.283 1.683,700.533 1.45,699.6C1.117,698.4 1.25,697.283 1.85,696.25C2.483,695.217 3.383,694.55 4.55,694.25L4.9,694.15L4.4,693.05C4.1,691.85 4.25,690.733 4.85,689.7C5.35,688.867 6.017,688.25 6.85,687.85C6.583,686.683 6.733,685.6 7.3,684.6C7.933,683.567 8.833,682.9 10,682.6L11.2,682.45C11.1,681.95 11.1,681.433 11.2,680.9C11.4,679.8 11.933,678.917 12.8,678.25C12.2,677.917 11.717,677.467 11.35,676.9C10.65,675.9 10.417,674.8 10.65,673.6C10.85,672.4 11.467,671.467 12.5,670.8L12.55,670.8C12.15,669.733 12.05,668.617 12.25,667.45C12.583,665.683 13.483,664.283 14.95,663.25C15.617,662.783 16.35,662.467 17.15,662.3L17.25,661.35C17.45,660.15 18.05,659.217 19.05,658.55C18.617,657.75 18.483,656.867 18.65,655.9C18.917,654.7 19.533,653.75 20.5,653.05C21.5,652.383 22.6,652.167 23.8,652.4L24.15,652.45L24.2,651.25C24.433,650.083 25.033,649.15 26,648.45C26.833,647.917 27.717,647.667 28.65,647.7C28.85,646.5 29.433,645.583 30.4,644.95" style="fill-opacity:0.101961;fill-rule:nonzero;"/>
        </g>
        <g transform="matrix(1,0,0,1,56,-9)">
            <path d="M21.15,668.15C20.817,668.15 20.55,668.033 20.35,667.8C20.15,667.633 20.05,667.383 20.05,667.05C20.05,666.75 20.15,666.483 20.35,666.25C20.55,666.083 20.817,666 21.15,666L21.9,666.25L22.2,667.05L21.9,667.8C21.7,668.033 21.45,668.15 21.15,668.15M29.7,666.05C30.067,666.383 30.25,666.767 30.25,667.2C30.25,667.633 30.067,668.017 29.7,668.35C29.4,668.683 29.033,668.85 28.6,668.85C28.167,668.85 27.767,668.683 27.4,668.35C27.1,668.017 26.95,667.633 26.95,667.2C26.95,666.767 27.1,666.383 27.4,666.05C27.767,665.717 28.167,665.55 28.6,665.55C29.033,665.55 29.4,665.717 29.7,666.05M19.05,672.85C19.65,672.85 20.15,673.067 20.55,673.5C21.017,673.933 21.25,674.45 21.25,675.05C21.25,675.65 21.017,676.15 20.55,676.55C20.15,676.983 19.65,677.2 19.05,677.2C18.45,677.2 17.933,676.983 17.5,676.55C17.1,676.15 16.9,675.65 16.9,675.05C16.9,674.45 17.1,673.933 17.5,673.5C17.933,673.067 18.45,672.85 19.05,672.85M28,670.4C28.467,670.4 28.85,670.567 29.15,670.9C29.483,671.2 29.65,671.567 29.65,672C29.65,672.467 29.483,672.85 29.15,673.15C28.85,673.45 28.467,673.6 28,673.6C27.567,673.6 27.2,673.45 26.9,673.15C26.567,672.85 26.4,672.467 26.4,672C26.4,671.567 26.567,671.2 26.9,670.9C27.2,670.567 27.567,670.4 28,670.4M24.9,670.65L24.55,671.45C24.317,671.717 24.05,671.85 23.75,671.85C23.417,671.85 23.133,671.717 22.9,671.45C22.667,671.217 22.55,670.95 22.55,670.65C22.55,670.35 22.667,670.067 22.9,669.8C23.133,669.567 23.417,669.45 23.75,669.45C24.05,669.45 24.317,669.567 24.55,669.8C24.783,670.067 24.9,670.35 24.9,670.65M25.35,675L25.55,675.55L25.35,676.1L24.75,676.35L24.2,676.1L23.95,675.55L24.2,675C24.367,674.833 24.55,674.75 24.75,674.75C24.983,674.75 25.183,674.833 25.35,675M24.7,678.85C25.267,679.417 25.55,680.1 25.55,680.9C25.55,681.667 25.267,682.317 24.7,682.85C24.167,683.417 23.517,683.7 22.75,683.7C21.95,683.7 21.267,683.417 20.7,682.85C20.167,682.317 19.9,681.667 19.9,680.9C19.9,680.1 20.167,679.417 20.7,678.85C21.267,678.317 21.95,678.05 22.75,678.05C23.517,678.05 24.167,678.317 24.7,678.85M31.95,661.75L32.15,662.3L31.95,662.8L31.4,663.05L30.85,662.8C30.717,662.7 30.65,662.533 30.65,662.3L30.85,661.75L31.4,661.55L31.95,661.75" style="fill-opacity:0.101961;fill-rule:nonzero;"/>
        </g>
        <g transform="matrix(1,0,0,1,56,-9)">
            <path d="M49.05,718.2C49.783,718.433 50.317,718.917 50.65,719.65C51.017,720.35 51.05,721.05 50.75,721.75C50.517,722.517 50.05,723.083 49.35,723.45L47.2,723.55C46.467,723.283 45.917,722.817 45.55,722.15C45.217,721.417 45.167,720.683 45.4,719.95C45.7,719.217 46.2,718.683 46.9,718.35L49.05,718.2M39.5,726.05L40.75,726C41.15,726.133 41.433,726.4 41.6,726.8C41.833,727.2 41.867,727.617 41.7,728.05C41.567,728.45 41.3,728.75 40.9,728.95L39.65,729.05C39.25,728.883 38.95,728.6 38.75,728.2C38.583,727.8 38.567,727.4 38.7,727C38.833,726.567 39.1,726.25 39.5,726.05M38.6,730.3C39.033,730.433 39.367,730.717 39.6,731.15C39.733,731.55 39.733,731.967 39.6,732.4C39.467,732.8 39.2,733.117 38.8,733.35L37.5,733.4C37.1,733.267 36.817,733 36.65,732.6C36.383,732.133 36.333,731.7 36.5,731.3C36.633,730.9 36.933,730.6 37.4,730.4L38.6,730.3M44.7,724.5L45.15,724.9L45.2,725.5L44.75,725.9L44.2,726L43.75,725.6L43.7,725C43.733,724.767 43.867,724.617 44.1,724.55L44.7,724.5M42.7,729.85C42.8,729.55 43.017,729.333 43.35,729.2L44.2,729.1C44.467,729.167 44.7,729.383 44.9,729.75L44.9,730.6L44.35,731.3L43.45,731.35C43.117,731.217 42.9,731.017 42.8,730.75C42.633,730.417 42.6,730.117 42.7,729.85M50.4,725.55C50.933,725.783 51.333,726.167 51.6,726.7C51.9,727.233 51.95,727.783 51.75,728.35C51.517,728.917 51.133,729.317 50.6,729.55L48.9,729.65C48.333,729.45 47.95,729.083 47.75,728.55C47.45,727.983 47.417,727.417 47.65,726.85C47.817,726.283 48.183,725.9 48.75,725.7L50.4,725.55M52.45,710.7C52.35,710.367 52.35,710.067 52.45,709.8C52.55,709.467 52.717,709.283 52.95,709.25L53.8,709.15C54.1,709.25 54.333,709.433 54.5,709.7L54.5,710.5L53.95,711.15L53.1,711.2C52.8,711.1 52.583,710.933 52.45,710.7M53.35,715.45C53.417,715.217 53.55,715.083 53.75,715.05L54.4,715L54.8,715.35L54.85,715.95L54.45,716.4L53.85,716.5L53.4,716.05C53.3,715.85 53.283,715.65 53.35,715.45M52.45,721.2C52.283,720.9 52.25,720.6 52.35,720.3C52.45,720.033 52.667,719.817 53,719.65L53.85,719.55C54.15,719.65 54.383,719.867 54.55,720.2L54.55,721.05L54,721.75L53.1,721.8L52.45,721.2M46.1,734.8L45.55,735.45L44.7,735.5L44.05,735C43.95,734.667 43.95,734.367 44.05,734.1C44.15,733.767 44.333,733.567 44.6,733.5L45.4,733.4L46.1,734L46.1,734.8M34.15,736.25L33.55,736.25L33.1,735.85C33,735.717 33,735.533 33.1,735.3C33.167,735.133 33.283,735 33.45,734.9L34.05,734.85L34.5,735.25L34.55,735.8L34.15,736.25" style="fill-opacity:0.101961;fill-rule:nonzero;"/>
        </g>
    </g>
</svg>
