<svg width="16" height="16" version="1.1" viewBox="0 0 16 16" xmlns="http://www.w3.org/2000/svg">
    <g transform="matrix(0.0702241,-0.000738527,0.000738527,0.0702241,-0.394242,38.8757)">
        <path d="M45.861,-518.228C44.864,-517.978 44.054,-517.355 43.43,-516.357C42.807,-515.36 42.744,-514.238 43.243,-512.991L92.618,-342.051C92.867,-341.302 93.428,-340.617 94.301,-339.993C95.174,-339.37 95.984,-339.058 96.732,-339.058L148.725,-339.058C150.72,-339.058 151.967,-340.056 152.465,-342.051L200.718,-512.991C201.466,-515.485 200.593,-517.23 198.099,-518.228L156.979,-532.665C154.236,-533.414 152.615,-532.167 152.116,-528.925C150.371,-516.207 124.562,-441.323 124.562,-440.076C123.814,-444.316 96.707,-529.225 96.707,-529.225C96.208,-532.467 94.463,-533.714 91.47,-532.965L45.861,-518.228Z" style="fill:rgb(104,182,255);fill-rule:nonzero;stroke:white;stroke-width:14.24px;"/>
    </g>
</svg>
