<?xml version="1.0" encoding="UTF-8" standalone="no"?>
<!DOCTYPE svg PUBLIC "-//W3C//DTD SVG 1.1//EN" "http://www.w3.org/Graphics/SVG/1.1/DTD/svg11.dtd">
<svg width="100%" height="100%" viewBox="0 0 310 497" version="1.1" xmlns="http://www.w3.org/2000/svg" xmlns:xlink="http://www.w3.org/1999/xlink" xml:space="preserve" xmlns:serif="http://www.serif.com/" style="fill-rule:evenodd;clip-rule:evenodd;stroke-linejoin:round;stroke-miterlimit:1.41421;">
    <g transform="matrix(1,0,0,1,-1859.36,-105.482)">
        <path d="M1959.4,219.378C1959.4,219.378 1974.27,258.274 1974.27,288.582L1983.11,284.308C1983.11,284.308 1968.92,232.243 1961.28,214.563C1953.64,196.884 1959.4,219.378 1959.4,219.378Z" style="fill:rgb(83,156,174);fill-rule:nonzero;"/>
        <path d="M1959.4,219.378C1959.4,219.378 1974.27,258.274 1974.27,288.582L1980.46,286.679C1980.46,286.679 1967.03,232.468 1959.39,214.789C1951.75,197.109 1959.4,219.378 1959.4,219.378Z" style="fill:rgb(68,118,146);fill-rule:nonzero;"/>
        <path d="M1957.59,207.785C1959.37,209.457 1960.32,212.37 1961.28,214.563C1964.76,222.989 1967.6,231.654 1970.27,240.341C1967.51,242.322 1968.72,241.664 1966.8,242.593C1964.63,234.778 1962.28,226.984 1959.4,219.378C1958.77,216.834 1958.14,214.288 1957.69,211.709C1957.61,211.221 1956.91,208.548 1957.59,207.785Z" style="fill:rgb(68,118,146);fill-rule:nonzero;"/>
        <path d="M1976.74,261.845C1980.89,276.244 1978.77,268.757 1983.1,284.308L1974.27,288.582C1974.4,280.689 1973.17,272.86 1971.86,265.089C1974.41,263.303 1972.8,264.407 1976.74,261.845Z" style="fill:rgb(68,118,146);fill-rule:nonzero;"/>
        <path d="M1943.51,472.22C1943.51,468.907 1921.38,468.441 1927.08,492.576C1927.08,492.576 1943.51,480.983 1943.51,472.22Z" style="fill:rgb(88,22,15);fill-rule:nonzero;"/>
        <path d="M2062.29,292.511C2062.29,292.511 2046.87,178.426 2051.58,160.76C2056.3,143.093 2084.25,205.047 2062.29,292.511Z" style="fill:rgb(68,118,146);fill-opacity:0.298039;fill-rule:nonzero;"/>
        <path d="M1948.28,466.121C1936.38,476.601 1916.97,497.981 1919.24,517.762C1921.52,537.545 1988.31,566.45 2021.39,538.844C2021.39,538.844 2023,526.63 2017.76,524.274C2017.76,524.274 2012.37,526.003 2008.44,524.522C2004.53,523.041 2033.12,500.569 2031.04,492.906C2028.97,485.241 2008.23,464.057 1986.1,457.192C1963.98,450.327 1948.28,466.121 1948.28,466.121Z" style="fill:rgb(255,131,0);fill-rule:nonzero;"/>
        <path d="M2130.3,284.763C2134.43,278.496 2143.03,254.255 2143.03,254.255C2143.03,254.255 2152.63,279.25 2147.98,300.687L2130.3,284.763Z" style="fill:rgb(37,59,88);fill-rule:nonzero;"/>
        <path d="M1948.28,466.121C1936.38,476.601 1916.97,497.981 1919.24,517.762C1921.52,537.545 1988.31,566.45 2021.39,538.844C2021.39,538.844 2023,526.63 2017.76,524.274C2017.76,524.274 2012.37,526.003 2008.44,524.522C2004.53,523.041 2033.12,500.569 2031.04,492.906C2028.97,485.241 2008.23,464.057 1986.1,457.192C1963.98,450.327 1948.28,466.121 1948.28,466.121Z" style="fill:rgb(187,81,33);fill-rule:nonzero;"/>
        <path d="M1948.28,466.121C1936.38,476.601 1916.97,497.981 1919.24,517.762C1921.52,537.545 1988.31,566.45 2021.39,538.844C2021.39,538.844 2023,526.63 2017.76,524.274C2017.76,524.274 2012.37,526.003 2008.44,524.522C2004.53,523.041 2033.12,500.569 2031.04,492.906C2028.97,485.241 2008.23,464.057 1986.1,457.192C1963.98,450.327 1948.28,466.121 1948.28,466.121Z" style="fill:url(#_Linear1);fill-rule:nonzero;"/>
        <path d="M2068.4,298.373C2080.32,281.671 2108.44,269.95 2136.55,281.671C2164.67,293.391 2192.38,366.17 2137.54,421.96C2097.51,462.69 2062.29,433.264 2062.29,433.264L2068.4,298.373Z" style="fill:rgb(255,131,0);fill-rule:nonzero;"/>
        <path d="M2079.74,466.742C2079.74,466.742 2062.29,462.933 2061.38,480.759L2079.74,466.742Z" style="fill:rgb(88,22,15);fill-rule:nonzero;"/>
        <path d="M2143.12,471.046C2143.12,471.046 2162.88,467.641 2159.72,487.927L2143.12,471.046Z" style="fill:rgb(88,22,15);fill-rule:nonzero;"/>
        <path d="M2113.19,276.934C2121.3,276.864 2129.1,278.755 2136.55,281.671C2143.76,285.087 2150.12,290.805 2154.19,297.483C2154.46,299.795 2154.78,300.462 2154.1,302.726C2151.11,312.639 2133.76,315.762 2125.18,316.649C2113.57,317.849 2073.25,316.849 2076.17,296.68C2076.74,292.797 2078.81,289.738 2080.98,286.531C2090.55,279.883 2101.59,277.424 2113.19,276.934Z" style="fill:rgb(255,162,0);fill-rule:nonzero;"/>
        <path d="M2079.37,288.582C2113.47,297.062 2183.56,368.814 2137.54,421.96L2134.49,425.717C2134.49,425.717 2160.17,395.562 2144.87,358.485C2119.53,297.062 2077.29,290.365 2077.29,290.365" style="fill:rgb(88,11,82);fill-opacity:0.356863;fill-rule:nonzero;"/>
        <path d="M2108.76,452.187C2105.94,451.609 2052.45,478.444 2045.74,494.146C2039.03,509.847 2052.17,552.838 2098.58,568.798C2098.58,568.798 2108.09,565.709 2112.56,558.244L2105.85,556.699C2105.85,556.699 2173.93,533.11 2169.04,506.285C2166.33,491.455 2151.65,460.976 2108.76,452.187Z" style="fill:rgb(255,131,0);fill-rule:nonzero;"/>
        <path d="M2154.32,385.619C2159.79,385.822 2157.44,385.646 2161.38,386.018L2161.48,385.845C2156.01,399.298 2147.49,411.214 2137.54,421.96C2122.6,436.964 2101.49,447.568 2079.53,441.591L2079.5,441.35C2079.41,440.865 2079.46,441.111 2079.37,440.611L2080.74,440.288C2092.87,417.694 2112.4,394.573 2139,387.633C2145.97,385.814 2147.61,386.01 2154.32,385.619Z" style="fill:rgb(183,206,255);fill-rule:nonzero;"/>
        <path d="M2071.99,294.031C2088.62,313.018 2102.49,335.178 2107.32,359.781C2129.75,363.37 2154.92,358.672 2168.64,339.881C2172.31,370.24 2158.55,399.976 2137.54,421.961C2097.51,462.691 2062.29,433.266 2062.29,433.266L2068.4,298.374C2070.3,295.841 2069.14,297.313 2071.99,294.031Z" style="fill:rgb(73,9,0);fill-opacity:0.333333;fill-rule:nonzero;"/>
        <path d="M2164.43,319.002C2176.94,356.026 2164.22,394.034 2137.54,421.959C2097.51,462.689 2062.29,433.263 2062.29,433.263L2062.4,430.841C2076.43,440.821 2095.19,443.003 2111.28,436.405C2121.11,432.379 2129.1,425.907 2136.55,418.705C2158.19,396.899 2170.15,367.293 2167.71,337.09C2167.03,328.656 2166.3,326.827 2164.43,319.002Z" style="fill:url(#_Linear2);fill-rule:nonzero;"/>
        <path id="Shape" d="M2068.4,298.373C2080.32,281.671 2108.44,269.95 2136.55,281.671C2164.67,293.391 2192.38,366.17 2137.54,421.96C2097.51,462.69 2062.29,433.264 2062.29,433.264L2068.4,298.373Z" style="fill:url(#_Linear3);fill-rule:nonzero;"/>
        <path d="M2154.32,385.62C2159.79,385.822 2157.44,385.646 2161.37,386.018L2161.48,385.845L2160.35,388.413C2158.45,388.216 2156.54,388.212 2154.64,388.143L2154.64,388.144C2147.93,388.534 2146.29,388.338 2139.32,390.157C2112.59,397.393 2094.09,419.419 2081.49,442.034L2079.53,441.591L2079.49,441.351C2079.41,440.865 2079.45,441.112 2079.37,440.611L2080.73,440.288C2092.87,417.694 2112.4,394.573 2139,387.633C2145.97,385.814 2147.6,386.01 2154.32,385.62Z" style="fill:rgb(209,253,255);fill-opacity:0.298039;fill-rule:nonzero;"/>
        <path id="Shape1" serif:id="Shape" d="M2068.4,298.373C2080.32,281.671 2108.44,269.95 2136.55,281.671C2164.67,293.391 2192.38,366.17 2137.54,421.96C2097.51,462.69 2062.29,433.264 2062.29,433.264L2068.4,298.373Z" style="fill:url(#_Linear4);fill-rule:nonzero;"/>
        <path d="M2017.76,524.272C2019.51,525.205 2020.59,527.005 2020.97,528.931C2018.56,529.641 2016.05,529.794 2013.55,529.487C2013.03,529.423 2012.54,529.211 2012.03,529.073C2010.84,528.228 2013.3,525.65 2013.86,524.996C2015.18,524.891 2016.49,524.663 2017.76,524.272Z" style="fill:rgb(255,131,0);fill-rule:nonzero;"/>
        <path d="M1976.24,455.485C1979.61,455.549 1982.88,456.283 1986.1,457.19C2002.67,463.049 2018.24,473.804 2028.58,488.169C2018.23,476.156 1998.14,471.328 1989.51,470.275C1957.06,466.317 1949.47,478.553 1949.47,478.553C1941.62,523.791 1921.38,522.201 1922.83,522.315C1926.02,522.566 1922.95,523.617 1924.89,527.661C1921.98,525.028 1920.05,521.555 1919.25,517.762C1916.97,497.981 1936.38,476.599 1948.28,466.119C1955.96,458.848 1965.79,455.629 1976.24,455.485Z" style="fill:rgb(255,131,0);fill-rule:nonzero;"/>
        <path d="M2108.76,452.187C2105.94,451.609 2052.45,478.444 2045.74,494.146C2039.03,509.847 2052.17,552.838 2098.58,568.798C2098.58,568.798 2108.09,565.709 2112.56,558.244L2105.85,556.699C2105.85,556.699 2173.93,533.11 2169.04,506.285C2166.33,491.455 2151.65,460.976 2108.76,452.187Z" style="fill:url(#_Radial5);fill-rule:nonzero;"/>
        <path d="M2077.58,402.296C2095.28,418.823 2109.36,438.944 2118.03,461.129C2112.88,464.961 2107.06,467.801 2101.1,470.275C2096.4,449.583 2089.07,429.323 2077.29,411.325L2077.58,402.296Z" style="fill:rgb(37,59,88);fill-rule:nonzero;"/>
        <path d="M2091.95,439.967C2092.73,442.339 2100.56,430.924 2113.47,428.402C2113.47,428.402 2089.27,404.618 2077.58,402.297L2077.29,411.326C2077.29,411.326 2087.65,426.898 2091.95,439.967Z" style="fill:rgb(37,59,88);fill-rule:nonzero;"/>
        <path d="M2087.89,424.961L2101.56,417.703C2101.56,417.703 2090.73,408.379 2085.64,406.141L2082.06,412.639L2087.89,424.961Z" style="fill:rgb(24,38,57);fill-rule:nonzero;"/>
        <path d="M2077.42,407.262C2086.2,411.319 2098.78,419.765 2104.48,427.465L2095.84,430.627C2102.04,442.393 2106.14,453.271 2110.28,465.924C2104.1,469.073 2107.16,467.632 2101.1,470.275C2097.04,450.617 2089.49,432.121 2079.5,414.813L2079.23,414.383L2077.29,411.325L2077.42,407.262Z" style="fill:rgb(24,38,57);fill-rule:nonzero;"/>
        <path d="M2105.85,556.698C2105.85,556.698 2099.27,518.613 2099.02,509.452C2098.78,500.291 2122.91,504.642 2122.91,504.642C2122.91,504.642 2117.17,479.246 2121.41,477.387C2125.65,475.529 2137.6,477.542 2137.6,477.542C2137.6,477.542 2129.39,478.762 2125.65,483.113C2121.91,487.465 2128.41,510.368 2128.41,510.368C2128.41,510.368 2117.21,507.121 2108.76,512.429C2104.75,514.948 2105.85,556.698 2105.85,556.698Z" style="fill:rgb(102,53,0);fill-rule:nonzero;"/>
        <path d="M1970.55,462.393C1925.43,453.532 1880.95,423.47 1859.37,383.934C1874.03,322.4 1915.9,284.308 1915.9,284.308L1919.55,315.384C1938.09,297.223 1964.86,277.151 1989.06,266.601C1996.65,263.294 2008.74,257.933 2017.37,259.108C2026.84,261.159 2067.36,292.562 2067.79,293.391C2107.83,370.455 2078.79,446.054 2078.79,446.054C2035.4,474.77 1974.27,463.049 1974.27,463.049L1970.55,462.393Z" style="fill:rgb(109,204,228);fill-rule:nonzero;"/>
        <path d="M1947.02,155.335C1902.01,165.821 1906.57,245.478 1962.41,225.295C2018.25,205.111 1994.44,144.287 1947.02,155.335Z" style="fill:rgb(255,131,0);fill-rule:nonzero;"/>
        <path id="Shape2" serif:id="Shape" d="M2068.4,298.373C2080.32,281.671 2108.44,269.95 2136.55,281.671C2164.67,293.391 2192.38,366.17 2137.54,421.96C2097.51,462.69 2062.29,433.264 2062.29,433.264L2068.4,298.373Z" style="fill:url(#_Radial6);fill-rule:nonzero;"/>
        <path d="M1985.44,403.902C2021.45,404.086 2052.35,424.538 2078.79,446.054C2048.93,464.954 2009.07,469.035 1974.27,463.049L1970.55,462.393C1953.02,458.981 1936.33,452.441 1920.89,443.843C1936.28,419.35 1955.7,405.844 1985.44,403.902Z" style="fill:rgb(168,238,255);fill-rule:nonzero;"/>
        <path d="M2034.78,159.506C2036.25,163.319 2000.83,109.928 1943.51,116.2C1943.51,116.2 1969.69,98.877 2002.86,125.457C2002.86,125.457 1986.76,105.746 1956.57,106.045C1956.57,106.045 2010.49,96.133 2034.78,159.506Z" style="fill:rgb(37,59,88);fill-rule:nonzero;"/>
        <path d="M1986.85,175.156C1989.22,166.098 1965.79,148.392 1946.52,159.397C1925.01,171.682 1983.07,189.55 1986.85,175.156Z" style="fill:rgb(255,162,0);fill-rule:nonzero;"/>
        <path d="M1970.55,462.393C1925.43,453.532 1880.95,423.47 1859.37,383.934C1874.03,322.4 1915.9,284.308 1915.9,284.308L1919.55,315.384C1938.09,297.223 1964.86,277.151 1989.06,266.601C1996.65,263.294 2008.74,257.933 2017.37,259.108C2026.84,261.159 2067.36,292.562 2067.79,293.391C2107.83,370.455 2078.79,446.054 2078.79,446.054C2035.4,474.77 1974.27,463.049 1974.27,463.049L1970.55,462.393Z" style="fill:url(#_Radial7);fill-rule:nonzero;"/>
        <path d="M2034.55,602.108C1977.25,602.108 1930.8,595.886 1930.8,588.211C1930.8,580.536 1977.25,574.315 2034.55,574.315C2091.85,574.315 2138.3,580.536 2138.3,588.211C2138.3,595.886 2091.85,602.108 2034.55,602.108Z" style="fill-opacity:0.32549;fill-rule:nonzero;"/>
        <path d="M2069.64,297.082L2071.7,301.475C2087.71,336.752 2092.21,375.623 2086.59,413.594C2084.97,424.531 2082.65,435.609 2078.79,446.054C2035.4,474.77 1974.27,463.049 1974.27,463.049L1970.55,462.393C1925.43,453.532 1880.95,423.47 1859.36,383.934C1859.36,383.934 1891.14,413.831 1963.88,400.749C2050.63,385.144 2067.79,293.391 2067.79,293.391L2069.64,297.082Z" style="fill:rgb(64,76,128);fill-opacity:0.341176;fill-rule:nonzero;"/>
        <path d="M2122,282.64C2121.27,279.557 2109.58,278.193 2107.49,282.05C2105.48,285.758 2122.73,285.79 2122,282.64Z" style="fill:white;fill-rule:nonzero;"/>
        <path d="M1985.44,403.903C2021.45,404.086 2052.35,424.538 2078.79,446.054L2076.6,447.397C2050.8,426.195 2020.32,407.794 1985.44,407.006C1957.59,408.648 1937.3,421.986 1922.4,444.651L1920.89,443.844C1936.28,419.35 1955.7,405.844 1985.44,403.903Z" style="fill:rgb(171,223,255);fill-opacity:0.622;fill-rule:nonzero;"/>
        <path d="M2079.37,370.307C2076.02,370.307 2075.51,382.578 2079.37,384.098C2083.22,385.619 2082.72,370.307 2079.37,370.307Z" style="fill:rgb(97,190,223);fill-rule:nonzero;"/>
        <path d="M2135.95,424.194C2142.87,424.77 2175.62,419.558 2146.37,414.415C2122.02,410.136 2125.32,423.309 2135.95,424.194Z" style="fill:rgb(37,59,88);fill-rule:nonzero;"/>
        <path d="M2067.79,384.277C2060.26,381.527 2052.99,411.262 2059.12,416.206C2065.25,421.149 2075.61,387.135 2067.79,384.277Z" style="fill:rgb(109,204,228);fill-opacity:0.635294;fill-rule:nonzero;"/>
        <path d="M2153.49,400.658C2163.1,399.275 2177.61,390.695 2158.49,392.027C2139.44,393.354 2146.21,401.708 2153.49,400.658Z" style="fill:rgb(37,59,88);fill-rule:nonzero;"/>
        <path d="M1970.55,462.393C1925.43,453.532 1880.95,423.47 1859.37,383.934C1874.03,322.4 1915.9,284.308 1915.9,284.308L1919.55,315.384C1938.09,297.223 1964.86,277.151 1989.06,266.601C1996.65,263.294 2008.74,257.933 2017.37,259.108C2026.84,261.159 2067.36,292.562 2067.79,293.391C2107.83,370.455 2078.79,446.054 2078.79,446.054C2035.4,474.77 1974.27,463.049 1974.27,463.049L1970.55,462.393Z" style="fill:url(#_Linear8);fill-rule:nonzero;"/>
        <path d="M2008.5,524.727C2024.55,530.563 1962.49,515.524 1957.64,510.791C1952.8,506.06 1966.51,489.331 1966.51,489.331C1966.51,489.331 1952.3,482.419 1951.74,480.338C1951.18,478.257 1965.25,473.006 1965.25,473.006C1965.25,473.006 1959.13,478.11 1958.61,480.934C1958.08,483.759 1973.79,488.731 1973.79,488.731C1973.79,488.731 1964.75,498.354 1963.67,505.457C1962.59,512.561 1994.67,519.697 2008.5,524.727Z" style="fill:rgb(66,34,0);fill-rule:nonzero;"/>
        <path d="M1978.32,167.965C1982.07,162.725 1967.55,156.812 1963.38,160.598C1959.22,164.384 1975.76,171.546 1978.32,167.965Z" style="fill:white;fill-rule:nonzero;"/>
        <path d="M1974.65,304.64C1971.01,303.834 1958.36,314.32 1958.36,319.312C1958.36,324.303 1980.81,306.002 1974.65,304.64Z" style="fill:rgb(37,59,88);fill-opacity:0.619608;fill-rule:nonzero;"/>
        <path d="M1962.71,301.918C1958.61,300.065 1950.4,313.581 1953.14,315.245C1955.88,316.909 1965.44,303.148 1962.71,301.918Z" style="fill:rgb(64,113,140);fill-rule:nonzero;"/>
        <path d="M2067.79,293.393C2092.66,270.664 2125.68,191.711 2107.32,164.034C2088.97,136.357 2067.79,293.393 2067.79,293.393Z" style="fill:rgb(68,118,146);fill-opacity:0.298039;fill-rule:nonzero;"/>
        <path d="M1930.81,499.163C1927.14,498.294 1923.04,509.6 1927.04,511.372C1931.03,513.144 1934.14,499.95 1930.81,499.163Z" style="fill:white;fill-rule:nonzero;"/>
        <path d="M2061.05,486.018C2057.38,483.663 2051.29,490.138 2052.21,494.099C2053.14,498.059 2064.68,488.359 2061.05,486.018Z" style="fill:white;fill-rule:nonzero;"/>
        <path d="M1915.9,284.308L1919.55,315.384" style="fill:white;fill-rule:nonzero;"/>
        <path d="M2009.71,219.377C2009.71,219.377 2004.97,260.293 2002.86,279.489L2011.82,274.185C2011.82,274.185 2009.45,244.383 2013.4,218.367C2017.35,192.353 2009.71,219.377 2009.71,219.377Z" style="fill:rgb(83,156,174);fill-rule:nonzero;"/>
        <path d="M2014.14,207.091C2014.23,207.135 2014.37,207.134 2014.41,207.224C2014.81,208.25 2014.32,211.529 2014.22,212.384C2013.94,214.78 2013.73,216.131 2013.4,218.368C2012.5,224.243 2011.94,230.161 2011.63,236.09C2010.13,235.972 2011.41,236.08 2007.84,235.541C2008.47,230.153 2009.09,224.765 2009.71,219.378C2010.86,216.198 2012.13,209.544 2014.14,207.091Z" style="fill:rgb(68,118,146);fill-rule:nonzero;"/>
        <path d="M2013.43,208.225C2011.15,222.558 2009.23,236.96 2008.19,251.43C2007.59,259.776 2007.11,268.397 2007.43,276.784L2002.86,279.49C2004.97,260.295 2009.71,219.379 2009.71,219.379C2010.94,215.681 2011.68,211.749 2013.43,208.225Z" style="fill:rgb(68,118,146);fill-rule:nonzero;"/>
        <path d="M2075.06,493.251C2067.79,506.129 2086.89,512.448 2096.75,485.515" style="fill:rgb(88,11,82);fill-opacity:0.466667;fill-rule:nonzero;"/>
        <path d="M1993.93,180.808C1995.18,185.132 1995.01,190.283 1994.04,194.644C1990.56,210.14 1976.93,219.756 1962.41,225.293C1949.32,230.181 1933.36,230.278 1923.95,218.884C1918.89,212.764 1917.57,205.737 1916.58,198.167C1917.93,209.473 1925.65,220.071 1937.53,222.892C1945.71,224.837 1954.01,223.108 1961.78,220.475C1979.12,214.258 1995.7,200.204 1993.93,180.808Z" style="fill:url(#_Linear9);fill-rule:nonzero;"/>
        <path d="M2139.92,413.64C2142.08,413.684 2144.23,414.075 2146.37,414.415C2149.92,415.312 2154.57,415.491 2157.58,417.738C2157.87,417.953 2158.02,418.297 2158.24,418.576L2158.27,418.752L2158.13,419.488C2154.57,421.481 2145.24,419.423 2141.85,417.97C2139.43,416.932 2136.36,413.999 2139.92,413.64Z" style="fill:rgb(58,105,128);fill-rule:nonzero;"/>
        <path d="M2014.56,270.99C2014.7,269.558 2009.85,277.851 1998.18,279.692C1998.18,279.692 2013.42,283.017 2014.56,270.99Z" style="fill:rgb(37,59,88);fill-rule:nonzero;"/>
        <path d="M2143.03,254.255C2143.03,254.256 2144.21,268.945 2143.12,276.934L2135.18,274.672C2137.99,267.937 2140.57,261.118 2143.03,254.255Z" style="fill:rgb(83,156,174);fill-opacity:0.470588;fill-rule:nonzero;"/>
        <path d="M1925.3,169.499C1922.47,183.606 1924.58,192.293 1943.51,198.76C1970.71,208.05 1994.79,190.768 1994.79,190.167C1994.79,189.912 1988.11,197.378 1994.56,190.119C1993.13,207.919 1978.58,219.133 1962.41,225.296C1949.32,230.183 1933.36,230.28 1923.95,218.886C1912.32,204.811 1915.33,183.5 1925.3,169.499Z" style="fill:rgb(180,92,0);fill-opacity:0.380392;fill-rule:nonzero;"/>
        <path d="M1919.12,513.817L1919.25,515.315C1921.52,535.097 1988.31,564.001 2021.39,536.396C2021.52,535.461 2021.55,534.52 2021.6,533.579C2021.66,535.333 2021.61,537.099 2021.39,538.842C1988.31,566.447 1921.52,537.543 1919.25,517.761C1919.04,515.218 1919.09,516.532 1919.12,513.817Z" style="fill:url(#_Linear10);fill-rule:nonzero;"/>
        <path d="M2030.93,492.571L2031.04,492.903C2031.36,501.458 2014.62,514.551 2008.92,522.201L2008.45,522.073C2006.75,520.327 2015.83,511.977 2016.68,511.075C2020.11,507.448 2022.77,504.734 2025.93,500.888C2027.69,498.743 2030.47,495.483 2030.93,492.571Z" style="fill:url(#_Linear11);fill-rule:nonzero;"/>
        <path d="M1963.82,216.679C1962.49,213.335 1949.47,214.65 1949.47,218.881C1949.47,223.112 1964.89,219.352 1963.82,216.679Z" style="fill:rgb(255,131,0);fill-rule:nonzero;"/>
        <path d="M2066.01,291.867C2066.61,292.368 2067.26,292.824 2067.79,293.391C2107.83,370.455 2078.79,446.054 2078.79,446.054C2035.4,474.77 1974.27,463.049 1974.27,463.049L1970.55,462.393C1929.33,453.604 1887.82,429.078 1865.5,393.966C1889.37,426.597 1926.83,449.181 1967.21,457.706L1970.93,458.362C1970.93,458.362 2032.06,470.083 2075.45,441.367C2079.16,430.84 2081.62,419.9 2083.25,408.907C2089.14,369.166 2083.95,328.307 2066.01,291.867Z" style="fill:url(#_Linear12);fill-rule:nonzero;"/>
        <path d="M2154.9,418.023C2155.57,416.623 2149.18,415.412 2148.31,416.456C2147.44,417.501 2154.32,419.241 2154.9,418.023Z" style="fill:rgb(109,204,228);fill-rule:nonzero;"/>
        <path d="M2045.08,496.091C2061.37,509.19 2081.65,516.949 2102.61,519.633L2107.32,512.447C2126.5,516.197 2153.45,518.271 2168.59,504.207C2168.87,505.323 2168.71,504.633 2169.04,506.285C2173.94,533.108 2105.85,556.697 2105.85,556.697L2112.56,558.241C2108.09,565.707 2098.58,568.796 2098.58,568.796C2089.26,565.584 2080.48,560.976 2072.76,555.01C2055.51,541.687 2040.21,518.143 2045.08,496.091Z" style="fill:rgb(88,11,82);fill-opacity:0.407843;fill-rule:nonzero;"/>
        <path d="M2108.76,452.187C2105.94,451.609 2052.45,478.444 2045.74,494.146C2039.03,509.847 2052.17,552.838 2098.58,568.798C2098.58,568.798 2108.09,565.709 2112.56,558.244L2105.85,556.699C2105.85,556.699 2173.93,533.11 2169.04,506.285C2166.33,491.455 2151.65,460.976 2108.76,452.187Z" style="fill:url(#_Linear13);fill-rule:nonzero;"/>
        <path d="M2142.06,466.316C2155.6,475.874 2165.83,490.368 2169.04,506.284C2173.93,533.107 2105.85,556.697 2105.85,556.697L2112.56,558.241C2108.09,565.706 2098.58,568.795 2098.58,568.795C2089.19,565.343 2079.79,560.996 2072.2,554.537C2079.36,560.1 2087.69,563.902 2096.23,567.062C2096.23,567.062 2103.87,566.654 2108.35,559.188L2099.02,557.96C2099.02,557.961 2171.58,531.374 2166.69,504.551C2163.76,489.276 2154.14,476.272 2142.06,466.316Z" style="fill:url(#_Linear14);fill-rule:nonzero;"/>
        <path d="M2144.85,349.564C2145.64,351.455 2125,310.802 2094.4,295.458C2094.4,295.458 2128.22,309.687 2144.85,349.564Z" style="fill:rgb(255,181,10);fill-rule:nonzero;"/>
        <path d="M2122.02,458.691C2122.02,458.691 2114.68,472.066 2094.4,472.22" style="fill:rgb(37,59,88);fill-rule:nonzero;"/>
        <path d="M2111.18,442.034C2111.18,442.034 2118.99,442.75 2122.02,448.129" style="fill:rgb(88,11,82);fill-rule:nonzero;"/>
        <path d="M2102.85,416.696C2102.85,416.696 2109.21,414.696 2113.62,419.467" style="fill:rgb(88,11,82);fill-rule:nonzero;"/>
        <path d="M2054.11,524.273C2045.94,528.232 2052.89,546.267 2065.78,546.625C2078.68,546.982 2063.16,519.883 2054.11,524.273Z" style="fill:rgb(74,18,13);fill-rule:nonzero;"/>
        <path d="M2097.48,481.007C2093.69,475.164 2075.36,479.953 2075.06,493.251C2074.76,506.548 2101.17,486.69 2097.48,481.007Z" style="fill:rgb(88,22,15);fill-rule:nonzero;"/>
        <path d="M2141.63,525.83C2142.78,529.531 2133.41,537.223 2125.72,534.283C2118.03,531.343 2139.68,519.582 2141.63,525.83Z" style="fill:rgb(74,18,13);fill-rule:nonzero;"/>
        <path d="M2034.78,159.504C2035.8,161.064 1997.34,109.934 1943.51,116.197C1943.51,116.197 1998.87,104.22 2034.78,159.504Z" style="fill:url(#_Radial15);fill-rule:nonzero;"/>
        <path d="M2158.27,492.551C2160.81,491.929 2157.43,485.515 2154.51,485.515C2151.58,485.515 2156.19,493.061 2158.27,492.551Z" style="fill:white;fill-rule:nonzero;"/>
        <path d="M2117.31,289.144C2117.66,288.303 2114.12,286.841 2112.65,288.582C2111.18,290.323 2116.45,291.169 2117.31,289.144Z" style="fill:white;fill-rule:nonzero;"/>
        <path d="M2163.01,391.9C2163.76,391.972 2165.85,391.988 2166.67,392.426C2164.84,393.514 2162.88,394.355 2160.87,395.071C2159.81,395.362 2160.35,395.243 2159.24,395.425C2159.04,394.852 2159.13,395.151 2158.96,394.527C2158.91,394.34 2158.87,394.136 2158.81,393.88C2158.78,393.734 2158.66,393.214 2158.64,393.14C2158.56,392.779 2158.47,392.417 2158.39,392.055C2158.38,392.048 2158.38,392.042 2158.38,392.036L2158.49,392.027C2161.12,391.877 2159.62,391.937 2163.01,391.9Z" style="fill:rgb(58,105,128);fill-rule:nonzero;"/>
        <path d="M2091.69,480.326C2090.01,477.858 2081.71,482.118 2082.07,483.864C2082.65,486.627 2093.37,482.794 2091.69,480.326Z" style="fill:rgb(140,17,130);fill-opacity:0.466667;fill-rule:nonzero;"/>
        <path id="Shape3" serif:id="Shape" d="M1915.9,284.308C1913.94,297.194 1913.35,310.387 1914.77,323.356C1915.13,326.579 1915.81,329.762 1916.32,332.966C1912.97,318.518 1912.83,303.403 1914.43,288.718C1914.9,287.243 1915.38,285.768 1915.9,284.308Z" style="fill:url(#_Linear16);fill-rule:nonzero;"/>
        <path d="M1949.72,537.879C1947.09,549.842 1966.01,553.525 1975.98,547.038C1984.45,541.529 1951.25,530.872 1949.72,537.879Z" style="fill:rgb(74,18,13);fill-rule:nonzero;"/>
        <path d="M2088.97,480.76C2088.27,480.261 2085.43,481.171 2085.65,482.122C2085.86,483.074 2089.62,481.232 2088.97,480.76Z" style="fill:white;fill-rule:nonzero;"/>
        <path d="M2012.67,494.962C2007,490.543 1996.74,504.304 2001.76,509.134C2005.33,512.567 2017.65,498.848 2012.67,494.962Z" style="fill:rgb(88,22,15);fill-rule:nonzero;"/>
        <path d="M1971.85,309.09C1973.09,309.453 1972.66,309.106 1973.29,309.976C1970.61,313.179 1967.27,315.647 1963.89,318.035L1963.88,318.03C1961.4,316.02 1968.07,310.36 1969.97,309.561C1970.57,309.312 1971.22,309.247 1971.85,309.09Z" style="fill:rgb(37,59,88);fill-rule:nonzero;"/>
        <path d="M1961.83,306.628C1961.91,306.319 1959.85,305.97 1958.36,308.604C1956.86,311.237 1956.41,313.719 1958.36,311.643C1958.36,311.643 1961.52,307.742 1961.83,306.628Z" style="fill:rgb(37,59,88);fill-rule:nonzero;"/>
        <path d="M1992.02,198.491C1995.66,198.031 1970.12,163.574 1926.3,173.503C1926.3,173.503 1941.98,204.819 1992.02,198.491Z" style="fill:rgb(180,92,0);fill-rule:nonzero;"/>
        <path d="M1930.42,175.243C1928.77,173.581 1965.88,172.43 1987.03,196.151C1987.03,196.151 1955.14,200.181 1930.42,175.243Z" style="fill:white;fill-rule:nonzero;"/>
        <path d="M1915.9,284.308C1915.9,284.308 1916.32,311.984 1929.71,332.966C1945.71,358.023 2010.64,319.47 2033.26,284.308C2033.26,284.308 2050.68,304.819 2054.04,304.526C2057.4,304.233 2049.45,284.308 2049.45,284.308L2062.29,292.512L2055.87,292.512C2055.87,292.512 2062.29,309.507 2060.46,313.903C2058.62,318.298 2033.87,293.684 2033.87,293.684C2033.87,293.684 1967.22,358.852 1932.22,352.232C1909.27,347.892 1915.9,284.308 1915.9,284.308Z" style="fill:rgb(49,78,118);fill-rule:nonzero;"/>
        <path d="M1949.72,537.879C1947.09,549.842 1966.01,553.525 1975.98,547.038C1984.45,541.529 1951.25,530.872 1949.72,537.879Z" style="fill:url(#_Linear17);fill-rule:nonzero;"/>
        <path d="M2054.11,524.273C2045.94,528.232 2052.89,546.267 2065.78,546.625C2078.68,546.982 2063.16,519.883 2054.11,524.273Z" style="fill:url(#_Linear18);fill-rule:nonzero;"/>
        <path d="M2047.31,203.017C2051.66,175.142 2001.22,161.802 1987.04,193.669C1972.86,225.537 2042.44,234.248 2047.31,203.017Z" style="fill:rgb(255,131,0);fill-rule:nonzero;"/>
        <path d="M2030.82,178.954C2008.63,169.091 1997.13,185.961 2014.15,194.595C2030.73,203.007 2057.84,190.96 2030.82,178.954Z" style="fill:rgb(255,162,0);fill-rule:nonzero;"/>
        <path d="M2037.73,187.652C2040.77,185.932 2031.36,177.333 2024.69,178.954C2018.02,180.575 2032,190.894 2037.73,187.652Z" style="fill:white;fill-rule:nonzero;"/>
        <path d="M1989.25,189.699C1992.3,206.162 2014.85,210.27 2029.33,207.624C2033.46,206.871 2036.67,205.776 2040.33,203.832C2043.2,202.311 2045.3,200.304 2047.36,197.941C2047.63,201.305 2047.64,199.613 2047.31,203.017C2042.44,234.248 1972.86,225.537 1987.04,193.669C1988.68,190.411 1987.86,191.692 1989.25,189.699Z" style="fill:rgb(180,92,0);fill-opacity:0.364706;fill-rule:nonzero;"/>
        <path d="M2047.39,198.365C2047.63,201.305 2047.63,199.754 2047.31,203.017C2044.42,231.314 1981.27,226.969 1985.29,199.972C1985.64,202.589 1986.53,205.114 1988.2,207.258C2001.52,224.318 2042.69,223.247 2047.31,199.193L2047.39,198.365Z" style="fill:url(#_Linear19);fill-rule:nonzero;"/>
        <path d="M2027.26,215.34C2026.97,213.28 2015.48,213.228 2015.2,215.891C2014.91,218.553 2027.55,217.386 2027.26,215.34Z" style="fill:rgb(255,131,0);fill-rule:nonzero;"/>
        <path d="M1970.55,462.393C1925.43,453.532 1880.95,423.47 1859.37,383.934C1874.03,322.4 1915.9,284.308 1915.9,284.308L1919.55,315.384C1938.09,297.223 1964.86,277.151 1989.06,266.601C1996.65,263.294 2008.74,257.933 2017.37,259.108C2026.84,261.159 2067.36,292.562 2067.79,293.391C2107.83,370.455 2078.79,446.054 2078.79,446.054C2035.4,474.77 1974.27,463.049 1974.27,463.049L1970.55,462.393Z" style="fill:url(#_Linear20);fill-rule:nonzero;"/>
        <path d="M1985.78,204.328C1985.78,204.328 2005.03,177.352 2044.3,199.63C2044.3,199.63 2020.12,212.764 1985.78,204.328Z" style="fill:rgb(180,92,0);fill-rule:nonzero;"/>
        <path d="M1990.63,203.596C1987.26,202.717 2007.95,185.157 2040.79,199.934C2040.79,199.934 2008.43,208.225 1990.63,203.596Z" style="fill:white;fill-rule:nonzero;"/>
    </g>
    <defs>
        <linearGradient id="_Linear1" x1="0" y1="0" x2="1" y2="0" gradientUnits="userSpaceOnUse" gradientTransform="matrix(22.2731,-131.172,131.172,22.2731,1949.56,635.335)"><stop offset="0" style="stop-color:rgb(10,255,245);stop-opacity:0.780392"/><stop offset="1" style="stop-color:rgb(19,255,250);stop-opacity:0"/></linearGradient>
        <linearGradient id="_Linear2" x1="0" y1="0" x2="1" y2="0" gradientUnits="userSpaceOnUse" gradientTransform="matrix(-5.232,-39.004,39.004,-5.232,2119.18,441.917)"><stop offset="0" style="stop-color:rgb(5,255,242);stop-opacity:0"/><stop offset="0.44" style="stop-color:rgb(10,255,245);stop-opacity:1"/><stop offset="1" style="stop-color:rgb(19,255,250);stop-opacity:0"/></linearGradient>
        <linearGradient id="_Linear3" x1="0" y1="0" x2="1" y2="0" gradientUnits="userSpaceOnUse" gradientTransform="matrix(-46.978,-70.341,70.341,-46.978,2154.29,475.843)"><stop offset="0" style="stop-color:rgb(10,255,245);stop-opacity:1"/><stop offset="1" style="stop-color:rgb(19,255,250);stop-opacity:0"/></linearGradient>
        <linearGradient id="_Linear4" x1="0" y1="0" x2="1" y2="0" gradientUnits="userSpaceOnUse" gradientTransform="matrix(-46.978,-70.341,70.341,-46.978,2154.29,475.843)"><stop offset="0" style="stop-color:rgb(10,255,245);stop-opacity:1"/><stop offset="1" style="stop-color:rgb(19,255,250);stop-opacity:0"/></linearGradient>
        <radialGradient id="_Radial5" cx="0" cy="0" r="1" gradientUnits="userSpaceOnUse" gradientTransform="matrix(197.089,0,0,197.089,2169.45,354.733)"><stop offset="0" style="stop-color:rgb(238,255,11);stop-opacity:1"/><stop offset="1" style="stop-color:rgb(238,255,0);stop-opacity:0"/></radialGradient>
        <radialGradient id="_Radial6" cx="0" cy="0" r="1" gradientUnits="userSpaceOnUse" gradientTransform="matrix(260.01,0,0,260.01,2190.35,151.939)"><stop offset="0" style="stop-color:rgb(252,255,0);stop-opacity:0.654902"/><stop offset="1" style="stop-color:rgb(255,253,0);stop-opacity:0"/></radialGradient>
        <radialGradient id="_Radial7" cx="0" cy="0" r="1" gradientUnits="userSpaceOnUse" gradientTransform="matrix(199.197,0,0,199.197,1878.87,232.996)"><stop offset="0" style="stop-color:rgb(27,255,250);stop-opacity:1"/><stop offset="1" style="stop-color:rgb(1,255,251);stop-opacity:0"/></radialGradient>
        <linearGradient id="_Linear8" x1="0" y1="0" x2="1" y2="0" gradientUnits="userSpaceOnUse" gradientTransform="matrix(-50.971,-222.244,222.244,-50.971,2021.67,620.207)"><stop offset="0" style="stop-color:rgb(10,255,245);stop-opacity:1"/><stop offset="1" style="stop-color:rgb(19,255,250);stop-opacity:0"/></linearGradient>
        <linearGradient id="_Linear9" x1="0" y1="0" x2="1" y2="0" gradientUnits="userSpaceOnUse" gradientTransform="matrix(-63.363,11.125,-11.125,-63.363,1987.04,208.767)"><stop offset="0" style="stop-color:rgb(5,255,242);stop-opacity:0"/><stop offset="0.44" style="stop-color:rgb(10,255,245);stop-opacity:1"/><stop offset="1" style="stop-color:rgb(19,255,250);stop-opacity:0"/></linearGradient>
        <linearGradient id="_Linear10" x1="0" y1="0" x2="1" y2="0" gradientUnits="userSpaceOnUse" gradientTransform="matrix(18.3264,-132.856,132.856,18.3264,1953.74,651.537)"><stop offset="0" style="stop-color:rgb(10,255,245);stop-opacity:1"/><stop offset="1" style="stop-color:rgb(19,255,250);stop-opacity:0"/></linearGradient>
        <linearGradient id="_Linear11" x1="0" y1="0" x2="1" y2="0" gradientUnits="userSpaceOnUse" gradientTransform="matrix(-11.9984,-47.1977,47.1977,-11.9984,1984.5,566.507)"><stop offset="0" style="stop-color:rgb(10,255,245);stop-opacity:1"/><stop offset="1" style="stop-color:rgb(19,255,250);stop-opacity:0"/></linearGradient>
        <linearGradient id="_Linear12" x1="0" y1="0" x2="1" y2="0" gradientUnits="userSpaceOnUse" gradientTransform="matrix(-199.196,40.249,-40.249,-199.196,2089.22,382.64)"><stop offset="0" style="stop-color:rgb(5,255,242);stop-opacity:0"/><stop offset="0.44" style="stop-color:rgb(10,255,245);stop-opacity:1"/><stop offset="1" style="stop-color:rgb(19,255,250);stop-opacity:0"/></linearGradient>
        <linearGradient id="_Linear13" x1="0" y1="0" x2="1" y2="0" gradientUnits="userSpaceOnUse" gradientTransform="matrix(-70.192,-111.99,111.99,-70.192,2166.74,640.561)"><stop offset="0" style="stop-color:rgb(10,255,245);stop-opacity:1"/><stop offset="1" style="stop-color:rgb(19,255,250);stop-opacity:0"/></linearGradient>
        <linearGradient id="_Linear14" x1="0" y1="0" x2="1" y2="0" gradientUnits="userSpaceOnUse" gradientTransform="matrix(-70.192,-111.99,111.99,-70.192,2166.74,640.558)"><stop offset="0" style="stop-color:rgb(10,255,245);stop-opacity:1"/><stop offset="1" style="stop-color:rgb(19,255,250);stop-opacity:0"/></linearGradient>
        <radialGradient id="_Radial15" cx="0" cy="0" r="1" gradientUnits="userSpaceOnUse" gradientTransform="matrix(63.156,0,0,63.156,2023.72,94.491)"><stop offset="0" style="stop-color:rgb(238,255,11);stop-opacity:1"/><stop offset="1" style="stop-color:rgb(238,255,0);stop-opacity:0"/></radialGradient>
        <linearGradient id="_Linear16" x1="0" y1="0" x2="1" y2="0" gradientUnits="userSpaceOnUse" gradientTransform="matrix(-0.141,-15.239,15.239,-0.141,1914.97,332.332)"><stop offset="0" style="stop-color:rgb(5,255,242);stop-opacity:0"/><stop offset="0.44" style="stop-color:rgb(10,255,245);stop-opacity:1"/><stop offset="1" style="stop-color:rgb(19,255,250);stop-opacity:0"/></linearGradient>
        <linearGradient id="_Linear17" x1="0" y1="0" x2="1" y2="0" gradientUnits="userSpaceOnUse" gradientTransform="matrix(6.602,-62.121,62.121,6.602,1957.46,596.284)"><stop offset="0" style="stop-color:rgb(10,255,245);stop-opacity:1"/><stop offset="1" style="stop-color:rgb(19,255,250);stop-opacity:0"/></linearGradient>
        <linearGradient id="_Linear18" x1="0" y1="0" x2="1" y2="0" gradientUnits="userSpaceOnUse" gradientTransform="matrix(7.491,-64.972,64.972,7.491,2049.71,594.237)"><stop offset="0" style="stop-color:rgb(10,255,245);stop-opacity:1"/><stop offset="1" style="stop-color:rgb(19,255,250);stop-opacity:0"/></linearGradient>
        <linearGradient id="_Linear19" x1="0" y1="0" x2="1" y2="0" gradientUnits="userSpaceOnUse" gradientTransform="matrix(-54.718,-2.447,2.447,-54.718,2042.75,211.15)"><stop offset="0" style="stop-color:rgb(5,255,242);stop-opacity:0"/><stop offset="0.44" style="stop-color:rgb(10,255,245);stop-opacity:1"/><stop offset="1" style="stop-color:rgb(19,255,250);stop-opacity:0"/></linearGradient>
        <linearGradient id="_Linear20" x1="0" y1="0" x2="1" y2="0" gradientUnits="userSpaceOnUse" gradientTransform="matrix(-52.762,-299.215,299.215,-52.762,2023.46,697.178)"><stop offset="0" style="stop-color:rgb(10,255,245);stop-opacity:1"/><stop offset="1" style="stop-color:rgb(19,255,250);stop-opacity:0"/></linearGradient>
    </defs>
</svg>
