<?xml version="1.0" encoding="UTF-8" standalone="no"?>
<!DOCTYPE svg PUBLIC "-//W3C//DTD SVG 1.1//EN" "http://www.w3.org/Graphics/SVG/1.1/DTD/svg11.dtd">
<svg width="100%" height="100%" viewBox="0 0 350 444" version="1.1" xmlns="http://www.w3.org/2000/svg" xmlns:xlink="http://www.w3.org/1999/xlink" xml:space="preserve" xmlns:serif="http://www.serif.com/" style="fill-rule:evenodd;clip-rule:evenodd;stroke-linejoin:round;stroke-miterlimit:1.41421;">
    <g transform="matrix(1,0,0,1,-1558,-909)">
        <g transform="matrix(1,0,0,1,1410.26,-1322.8)">
            <path d="M416.042,2579.5C430.645,2585.42 444.57,2585.67 447.885,2578.42C451.2,2571.16 430.44,2560.56 430.44,2560.56L416.042,2579.5Z" style="fill:rgb(76,10,71);fill-rule:nonzero;"/>
        </g>
        <g transform="matrix(1,0,0,1,1410.26,-1322.8)">
            <path d="M439.88,2566.43C443.294,2569.11 449.683,2573.29 447.885,2578.42L447.435,2579.19C444.734,2580.6 441.34,2581.07 438.308,2580.66C436.852,2580.46 435.869,2580.22 434.939,2579.1C434.788,2578.92 434.825,2578.64 434.768,2578.42C435.325,2574.11 437.69,2570.14 439.88,2566.43Z" style="fill:rgb(109,14,102);fill-rule:nonzero;"/>
        </g>
        <g transform="matrix(1,0,0,1,1410.26,-1322.8)">
            <path d="M388.183,2496.64C387.562,2482.54 398.225,2400.27 433.296,2377.53C468.367,2354.78 388.183,2496.64 388.183,2496.64Z" style="fill:rgb(1,205,192);fill-opacity:0.505882;fill-rule:nonzero;"/>
        </g>
        <g transform="matrix(1,0,0,1,1410.26,-1322.8)">
            <path d="M396.318,2495.49C401.073,2481.33 443.518,2404.04 488.315,2394.68C533.112,2385.33 396.318,2495.49 396.318,2495.49Z" style="fill:rgb(2,255,239);fill-opacity:0.392157;fill-rule:nonzero;"/>
        </g>
        <g transform="matrix(1,0,0,1,1410.26,-1322.8)">
            <path d="M416.042,2579.5C430.645,2585.42 444.57,2585.67 447.885,2578.42C451.2,2571.16 430.44,2560.56 430.44,2560.56L416.042,2579.5Z" style="fill:url(#_Linear1);fill-rule:nonzero;"/>
        </g>
        <g transform="matrix(1,0,0,1,1410.26,-1322.8)">
            <path d="M230.216,2588.08C230.216,2588.08 217.358,2601.58 217.985,2611.92C218.613,2622.26 251.228,2607.84 258.441,2601.88C265.654,2595.92 230.216,2588.08 230.216,2588.08Z" style="fill:rgb(72,10,68);fill-rule:nonzero;"/>
        </g>
        <g transform="matrix(1,0,0,1,1410.26,-1322.8)">
            <path d="M230.216,2588.08C230.216,2588.08 217.358,2601.58 217.985,2611.92C218.613,2622.26 251.228,2607.84 258.441,2601.88C265.654,2595.92 230.216,2588.08 230.216,2588.08Z" style="fill:url(#_Linear2);fill-rule:nonzero;"/>
        </g>
        <g transform="matrix(1,0,0,1,1410.26,-1322.8)">
            <path d="M393.141,2492.26C402.03,2490.06 411.554,2489.02 420.61,2490.88C422.79,2491.32 424.921,2492 427.029,2492.71C428.098,2493.07 429.09,2493.62 430.121,2494.08C442.223,2500.25 452.052,2533.84 431.031,2561.44L431.686,2561.32C417.912,2582.71 395.135,2597.4 370.907,2604.12C316.301,2619.12 253.283,2613.67 207.929,2577.44L207.99,2577.95C147.299,2528.91 150.059,2450.76 178.298,2387.83L178.2,2387.8C204.676,2334.81 245.75,2304.77 305.41,2301.07C334.128,2301.87 364.985,2309.03 386.937,2328.71L386.815,2328.83C412.288,2351.21 414.37,2389.29 410.759,2420.52C407.925,2445.03 401.511,2469.65 392.164,2492.53L393.141,2492.26Z" style="fill:rgb(109,14,102);fill-rule:nonzero;"/>
        </g>
        <g transform="matrix(1,0,0,1,1410.26,-1322.8)">
            <path d="M393.141,2492.26C402.03,2490.06 411.554,2489.02 420.61,2490.88C422.79,2491.32 424.921,2492 427.029,2492.71C428.098,2493.07 429.09,2493.62 430.121,2494.08C442.223,2500.25 452.052,2533.84 431.031,2561.44L431.686,2561.32C417.912,2582.71 395.135,2597.4 370.907,2604.12C316.301,2619.12 253.283,2613.67 207.929,2577.44L207.99,2577.95C147.299,2528.91 150.059,2450.76 178.298,2387.83L178.2,2387.8C204.676,2334.81 245.75,2304.77 305.41,2301.07C334.128,2301.87 364.985,2309.03 386.937,2328.71L386.815,2328.83C412.288,2351.21 414.37,2389.29 410.759,2420.52C407.925,2445.03 401.511,2469.65 392.164,2492.53L393.141,2492.26Z" style="fill:url(#_Radial3);fill-rule:nonzero;"/>
        </g>
        <g transform="matrix(1,0,0,1,1410.26,-1322.8)">
            <path d="M315.297,2313.81C216.639,2299.8 167.834,2385.82 175.769,2451.94C183.704,2518.06 310.007,2523.3 362.909,2459.8C415.81,2396.3 370.595,2321.67 315.297,2313.81Z" style="fill:rgb(48,6,45);fill-opacity:0.54902;fill-rule:nonzero;"/>
        </g>
        <g transform="matrix(1,0,0,1,1410.26,-1322.8)">
            <path d="M406.944,2565.97C406.736,2563.38 389.436,2562.02 386.034,2565.74C382.633,2569.45 407.408,2571.78 406.944,2565.97Z" style="fill:rgb(218,76,214);fill-rule:nonzero;"/>
        </g>
        <g transform="matrix(1,0,0,1,1410.26,-1322.8)">
            <path d="M247.245,2333.03C244.292,2339.8 241.897,2346.79 239.857,2353.89C219.723,2427.24 246.543,2482.78 315.9,2511.33C334.805,2519.12 339.521,2520.75 347.406,2521.4C355.806,2522.17 363.803,2519.84 371.544,2516.87L371.053,2518.13C371.053,2518.13 395.293,2505.38 416.651,2513.5C438.009,2521.62 436.351,2550.88 430.269,2563.34C430.269,2563.34 422.539,2572.65 416.044,2579.47L415.252,2578.85L413.962,2581.39C401.515,2592.21 386.753,2599.73 370.907,2604.12C316.301,2619.12 253.284,2613.67 207.929,2577.45L207.99,2577.95C147.301,2528.91 150.062,2450.76 178.301,2387.83L178.222,2387.81C181.833,2380.06 186.309,2372.78 191.005,2365.65C206.508,2349.85 226.169,2339.35 247.245,2333.03Z" style="fill:rgb(52,7,49);fill-opacity:0.560784;fill-rule:nonzero;"/>
        </g>
        <g transform="matrix(1,0,0,1,1410.26,-1322.8)">
            <path d="M393.141,2492.26C402.03,2490.06 411.554,2489.02 420.61,2490.88C422.79,2491.32 424.921,2492 427.029,2492.71C428.098,2493.07 429.09,2493.62 430.121,2494.08C442.223,2500.25 452.052,2533.84 431.031,2561.44L431.686,2561.32C417.912,2582.71 395.135,2597.4 370.907,2604.12C316.301,2619.12 253.283,2613.67 207.929,2577.44L207.99,2577.95C147.299,2528.91 150.059,2450.76 178.298,2387.83L178.2,2387.8C204.676,2334.81 245.75,2304.77 305.41,2301.07C334.128,2301.87 364.985,2309.03 386.937,2328.71L386.815,2328.83C412.288,2351.21 414.37,2389.29 410.759,2420.52C407.925,2445.03 401.511,2469.65 392.164,2492.53L393.141,2492.26Z" style="fill:url(#_Linear4);fill-rule:nonzero;"/>
        </g>
        <g transform="matrix(1,0,0,1,1410.26,-1322.8)">
            <path d="M397.39,2427.87C400.74,2471.23 384.762,2517.59 350.948,2545.87C288.401,2596.22 220.833,2580.61 182.055,2548.65L179.777,2546.62C162.211,2519.39 156.059,2485.58 160.094,2453.6C166.951,2461.94 174.693,2469.48 182.461,2476.95C214.392,2507.49 245.032,2519.45 276.386,2514.48C304.256,2510.06 332.212,2492.62 365.06,2461.26C365.138,2461.19 365.138,2461.19 365.215,2461.12C367.823,2458.62 370.516,2455.84 373.787,2452.32C375.614,2450.35 381.891,2443.47 382.335,2442.98C387.156,2437.76 392.035,2432.56 397.39,2427.87Z" style="fill:rgb(44,6,41);fill-opacity:0.603922;fill-rule:nonzero;"/>
        </g>
        <g transform="matrix(1,0,0,1,1410.26,-1322.8)">
            <path d="M233.211,2586.3C253.7,2587.66 273.776,2596.87 289.155,2610.37C266.289,2607.76 244.365,2600.34 224.502,2588.79C226.742,2586.42 230.192,2586.48 233.211,2586.3Z" style="fill:rgb(253,130,255);fill-opacity:0.498039;fill-rule:nonzero;"/>
        </g>
        <g transform="matrix(1,0,0,1,1410.26,-1322.8)">
            <path d="M397.773,2578.1C403.582,2577.97 409.358,2578.57 415.103,2579.35L416.042,2579.47C403.333,2591.36 387.602,2599.49 370.907,2604.12C356.357,2608.29 341.37,2610.4 326.309,2611.48C350.563,2591.75 365.887,2579.53 397.773,2578.1Z" style="fill:rgb(253,130,255);fill-opacity:0.498039;fill-rule:nonzero;"/>
        </g>
        <g transform="matrix(1,0,0,1,1410.26,-1322.8)">
            <path d="M311.974,2320.96C217.963,2307.47 171.457,2390.28 179.019,2453.92C186.58,2517.56 306.933,2522.6 357.343,2461.48C407.753,2400.36 364.668,2328.52 311.974,2320.96Z" style="fill:rgb(84,250,239);fill-rule:nonzero;"/>
        </g>
        <g transform="matrix(1,0,0,1,1410.26,-1322.8)">
            <path d="M208.098,2357.76C206.633,2382.56 227.385,2403.25 249.053,2411.42C258.689,2415.05 268.733,2416.49 278.984,2416.69C313.408,2416.64 356.586,2397.36 369.577,2363.32C383.103,2387.11 382.644,2416.91 370.638,2441.14C367.012,2448.45 362.428,2455.11 357.343,2461.48C306.933,2522.6 186.58,2517.56 179.019,2453.92C175.322,2419.48 185.98,2384.34 208.098,2357.76Z" style="fill:rgb(63,187,179);fill-rule:nonzero;"/>
        </g>
        <g transform="matrix(1,0,0,1,1410.26,-1322.8)">
            <path d="M445.125,2519.77C445.565,2525.14 444.382,2530.47 443.211,2535.68C434.609,2569.49 404.039,2595.5 370.907,2604.12C316.301,2619.12 253.283,2613.67 207.929,2577.45L207.99,2577.95C196.938,2569.09 187.351,2558.52 179.749,2546.58C188.261,2556.56 197.938,2565.47 207.99,2573.88L207.929,2573.37C253.283,2609.6 316.301,2615.04 370.907,2600.05C404.039,2591.43 434.609,2565.41 443.211,2531.6C444.69,2525.02 443.938,2528.94 445.126,2519.77L445.125,2519.77Z" style="fill:url(#_Linear5);fill-rule:nonzero;"/>
        </g>
        <g transform="matrix(1,0,0,1,1410.26,-1322.8)">
            <path d="M221.149,2393.82C211.509,2394.86 205.251,2455.11 210.454,2458.87C215.657,2462.62 229.243,2392.96 221.149,2393.82Z" style="fill:rgb(30,4,28);fill-rule:nonzero;"/>
        </g>
        <g transform="matrix(1,0,0,1,1410.26,-1322.8)">
            <path d="M158.1,2415.49C175.827,2402 198.862,2472.75 243.114,2468.68C287.367,2464.62 313.17,2400.79 362.233,2388.74C411.296,2376.7 413.916,2486.98 351.196,2531.31C288.475,2575.64 221.096,2560.47 182.55,2531.04C138.078,2497.08 143.898,2426.3 158.1,2415.49Z" style="fill:rgb(255,33,239);fill-rule:nonzero;"/>
        </g>
        <g transform="matrix(1,0,0,1,1410.26,-1322.8)">
            <path d="M163.585,2436.11C173.608,2424.06 190.282,2488.06 237.875,2486.99C285.468,2485.91 335.449,2403.45 367.965,2406.7C400.481,2409.97 363.587,2531.92 265.791,2533.24C167.995,2534.55 150.075,2452.36 163.585,2436.11Z" style="fill:rgb(188,24,176);fill-rule:nonzero;"/>
        </g>
        <g transform="matrix(1,0,0,1,1410.26,-1322.8)">
            <path d="M163.795,2443.27C174.896,2433.14 190.089,2491.16 237.663,2490.39C285.237,2489.62 334.815,2413.62 367.337,2416.79C399.859,2419.96 363.55,2532.52 265.789,2533.27C168.028,2534.03 151.702,2454.3 163.795,2443.27Z" style="fill:rgb(71,9,66);fill-rule:nonzero;"/>
        </g>
        <g transform="matrix(1,0,0,1,1410.26,-1322.8)">
            <path d="M327.363,2481.11C337.669,2481.24 347.695,2483.83 357.094,2487.95C341.978,2507.95 319.861,2522.84 295.652,2529.3C288.87,2531.11 285.969,2531.4 278.984,2532.46C282.656,2512.43 291.629,2489.38 313.203,2483.12C319.645,2481.25 320.771,2481.53 327.363,2481.11Z" style="fill:rgb(89,255,78);fill-rule:nonzero;"/>
        </g>
        <g transform="matrix(1,0,0,1,1410.26,-1322.8)">
            <path d="M353.425,2353C354.385,2349.4 335.536,2330.53 324.509,2332.81C313.483,2335.1 350.093,2365.48 353.425,2353Z" style="fill:white;fill-rule:nonzero;"/>
        </g>
        <g transform="matrix(1,0,0,1,1410.26,-1322.8)">
            <path d="M327.363,2481.11C337.668,2481.24 347.695,2483.83 357.093,2487.95C352.069,2494.36 346.639,2500.62 340.249,2505.72C327.635,2494.67 310.256,2492.06 294.321,2495.75C299.088,2489.59 305.869,2485.47 313.203,2483.12C319.645,2481.25 320.771,2481.53 327.363,2481.11Z" style="fill:rgb(61,190,90);fill-rule:nonzero;"/>
        </g>
        <g transform="matrix(1,0,0,1,1410.26,-1322.8)">
            <path d="M367.337,2416.79C372.39,2417.29 375.845,2420.72 377.472,2425.36C371.011,2431.89 363.294,2437.3 354.821,2440.9L371.251,2445.46C345.798,2472.31 315.958,2471.5 315.958,2471.5L333.168,2485.55C296.597,2501.36 267.487,2492.24 267.487,2492.24L273.083,2516.01C231.472,2514.99 206.621,2484.74 206.621,2484.74L203.198,2501.83C193.917,2491.26 189.116,2477.49 187.391,2463.67C200.255,2479.43 216.833,2490.33 237.663,2490.39C285.237,2489.62 334.815,2413.62 367.337,2416.79Z" style="fill:white;fill-rule:nonzero;"/>
        </g>
        <g transform="matrix(1,0,0,1,1410.26,-1322.8)">
            <path d="M351.746,2309.34C356.129,2283.12 383.484,2243.21 402.768,2241.11C422.053,2239.01 369.057,2280.95 357.071,2312.3" style="fill:rgb(160,99,66);fill-rule:nonzero;"/>
        </g>
        <g transform="matrix(1,0,0,1,1410.26,-1322.8)">
            <path d="M319.92,2303.91C319.197,2279.17 337.575,2237.7 355.35,2232.23C373.125,2226.77 330.972,2274.81 325.484,2305.62" style="fill:rgb(153,86,71);fill-rule:nonzero;"/>
        </g>
        <g transform="matrix(1,0,0,1,1410.26,-1322.8)">
            <path d="M383.007,2397.98C382.253,2393.88 366.799,2388.29 360.13,2393.82C353.461,2399.34 384.068,2403.73 383.007,2397.98Z" style="fill:white;fill-rule:nonzero;"/>
        </g>
        <g transform="matrix(1,0,0,1,1410.26,-1322.8)">
            <path d="M398.491,2429.33C400.997,2468.17 382.509,2508.3 351.195,2531.31C288.475,2575.64 221.096,2560.47 182.55,2531.04C157.209,2511.46 146.477,2478.6 147.963,2447.42C148.992,2474.57 161.118,2501.53 182.55,2518.47C221.096,2547.9 288.475,2563.07 351.195,2518.74C380.089,2498.07 395.475,2464.1 398.491,2429.33Z" style="fill:rgb(188,24,176);fill-rule:nonzero;"/>
        </g>
        <g transform="matrix(1,0,0,1,1410.26,-1322.8)">
            <path d="M386.342,2335.15C387.705,2331.85 375.285,2322.96 371.28,2324.53C367.275,2326.09 384.688,2339.15 386.342,2335.15Z" style="fill:white;fill-rule:nonzero;"/>
        </g>
        <g transform="matrix(1,0,0,1,1410.26,-1322.8)">
            <path d="M399.042,2244.63C397.815,2244.06 389.486,2248.38 388.236,2252.16C386.986,2255.93 401.168,2245.63 399.042,2244.63Z" style="fill:white;fill-rule:nonzero;"/>
        </g>
        <g transform="matrix(1,0,0,1,1410.26,-1322.8)">
            <path d="M353.721,2235.14C352.062,2234.94 343.028,2241.95 342.517,2245.53C342.007,2249.12 355.841,2235.38 353.721,2235.14Z" style="fill:white;fill-rule:nonzero;"/>
        </g>
        <g transform="matrix(1,0,0,1,1410.26,-1322.8)">
            <path d="M290.922,2605.61C290.922,2605.61 306.996,2637.79 318.58,2637.52C330.164,2637.25 324.391,2606.68 324.391,2606.68L290.922,2605.61Z" style="fill:rgb(76,10,71);fill-rule:nonzero;"/>
        </g>
        <g transform="matrix(1,0,0,1,1410.26,-1322.8)">
            <path d="M317.306,2675.77C262.44,2675.77 217.963,2671.24 217.963,2665.66C217.963,2660.07 262.44,2655.54 317.306,2655.54C372.171,2655.54 416.648,2660.07 416.648,2665.66C416.648,2671.24 372.171,2675.77 317.306,2675.77Z" style="fill-opacity:0.407843;fill-rule:nonzero;"/>
        </g>
        <g transform="matrix(1,0,0,1,1410.26,-1322.8)">
            <path d="M365.8,2416.7L367.337,2416.79C372.39,2417.29 375.845,2420.72 377.472,2425.36C371.011,2431.89 363.294,2437.3 354.821,2440.9L360.035,2442.35C326.511,2448.89 296.372,2468.93 273.291,2493.53C271.342,2493.18 269.384,2492.82 267.487,2492.24L268.894,2498.22C264.353,2503.22 260.005,2508.42 255.971,2513.84C237.348,2509.59 219.207,2499.27 206.621,2484.74L203.198,2501.83C193.917,2491.26 189.116,2477.49 187.391,2463.67C200.255,2479.43 216.833,2490.33 237.663,2490.39C274.387,2487.18 301.109,2456.75 328.527,2435.32C339.412,2426.8 351.471,2417.39 365.8,2416.7Z" style="fill:rgb(199,199,199);fill-rule:nonzero;"/>
        </g>
        <g transform="matrix(1,0,0,1,1410.26,-1322.8)">
            <path d="M237.729,2414.64C238.207,2409.38 217.963,2408.79 217.963,2412.74C217.963,2416.69 237.307,2419.28 237.729,2414.64Z" style="fill:white;fill-rule:nonzero;"/>
        </g>
        <g transform="matrix(1,0,0,1,1410.26,-1322.8)">
            <path d="M273.327,2542.75C273.441,2540.59 259.544,2540.07 258.382,2542.71C257.219,2545.34 273.207,2545.03 273.327,2542.75Z" style="fill:white;fill-rule:nonzero;"/>
        </g>
        <g transform="matrix(1,0,0,1,1410.26,-1322.8)">
            <path d="M194.361,2387.83C192.447,2388.7 188.176,2398.48 189.907,2400.68C191.639,2402.89 197.825,2386.25 194.361,2387.83Z" style="fill:rgb(84,250,239);fill-rule:nonzero;"/>
        </g>
        <g transform="matrix(1,0,0,1,1410.26,-1322.8)">
            <path d="M177.03,2427.87C177.87,2426.12 166.945,2415.8 163.282,2417.12C159.62,2418.45 175.763,2430.51 177.03,2427.87Z" style="fill:white;fill-rule:nonzero;"/>
        </g>
        <g transform="matrix(1,0,0,1,1410.26,-1322.8)">
            <path d="M320.92,2630.94C323.062,2630.78 323.764,2617.22 319.9,2616.99C316.035,2616.75 319.394,2631.06 320.92,2630.94Z" style="fill:rgb(109,14,102);fill-rule:nonzero;"/>
        </g>
        <g transform="matrix(1,0,0,1,1410.26,-1322.8)">
            <path d="M398.606,2431.73C400.437,2470.27 381.657,2508.11 351.195,2531.31C288.475,2575.64 221.096,2560.47 182.55,2531.03C158.667,2512.26 147.179,2481.5 147.868,2451.57C148.466,2480.81 159.429,2508.98 182.496,2527.5C221.042,2556.93 288.421,2572.11 351.141,2527.77C381.243,2505.38 398.525,2469.03 398.606,2431.73Z" style="fill:url(#_Linear6);fill-rule:nonzero;"/>
        </g>
        <g transform="matrix(1,0,0,1,1410.26,-1322.8)">
            <path d="M294.321,2502.36C291.201,2503.72 288.763,2511.68 290.922,2513.84C293.08,2516.01 299.487,2500.11 294.321,2502.36Z" style="fill:white;fill-rule:nonzero;"/>
        </g>
        <g transform="matrix(1,0,0,1,1410.26,-1322.8)">
            <path d="M160.268,2452.24C175.256,2461.94 191.574,2469.3 207.819,2476.6C236.565,2489.12 267.51,2499.43 286.935,2503.1C288.922,2503.48 291.198,2503.98 294.243,2504.71C295.707,2505.05 301.472,2506.46 302.808,2506.78C308.447,2508.12 312.754,2509.06 317.009,2509.81C325.932,2511.33 335.202,2512.43 344.124,2510.34C345.102,2510.81 346.131,2510.45 347.074,2510.23C349.725,2509.29 352.66,2508.1 356.363,2506.49C357.786,2505.87 359.251,2505.22 361.298,2504.31C361.84,2504.07 363.711,2503.23 363.815,2503.18C364.823,2502.73 365.599,2502.39 366.356,2502.05C369.611,2500.61 372.167,2499.5 374.63,2498.49C384.58,2494.4 391.957,2492.34 397.655,2492.34C399.083,2492.39 400.226,2491.57 401.247,2490.68L401.249,2490.68L403.033,2490.44L406.417,2490.16L409.072,2490.03L412.613,2490.06L416.28,2490.34L418.184,2490.57L423.051,2491.57C428.116,2493.01 425.771,2492.15 430.123,2494.08C442.225,2500.25 452.054,2533.84 431.033,2561.44L431.688,2561.32C417.914,2582.72 395.136,2597.4 370.907,2604.12C316.301,2619.12 253.284,2613.67 207.929,2577.45L207.99,2577.95L205.108,2575.56C169.051,2544.76 154.378,2498.91 160.268,2452.24Z" style="fill:url(#_Radial7);fill-rule:nonzero;"/>
        </g>
        <g transform="matrix(1,0,0,1,1410.26,-1322.8)">
            <path d="M204.787,2347.74C207.558,2352.1 209.6,2356.86 211.643,2361.59C218.972,2379.29 223.585,2401.21 223.767,2415.98C224.08,2441.35 211.329,2489.42 192.945,2528.97C189.626,2536.19 185.957,2543.26 182.04,2550.18C176.885,2542.08 175.266,2540.07 170.994,2530.65C150.221,2484.85 159.002,2432.42 178.298,2387.83L178.231,2387.81C185.121,2373.26 194.159,2359.81 204.787,2347.74Z" style="fill:url(#_Radial8);fill-rule:nonzero;"/>
        </g>
        <g transform="matrix(1,0,0,1,1410.26,-1322.8)">
            <path d="M160.266,2452.24C175.254,2461.94 191.572,2469.3 207.819,2476.6C236.565,2489.12 267.51,2499.43 286.935,2503.1C288.922,2503.48 291.197,2503.98 294.243,2504.71C295.707,2505.05 301.472,2506.46 302.808,2506.78C308.447,2508.12 312.754,2509.06 317.009,2509.81C325.932,2511.33 335.202,2512.43 344.124,2510.34C345.102,2510.81 346.131,2510.46 347.074,2510.23C349.725,2509.29 352.66,2508.1 356.363,2506.49C357.786,2505.87 359.251,2505.22 361.298,2504.31C361.84,2504.07 363.711,2503.23 363.815,2503.18C364.823,2502.73 365.599,2502.39 366.356,2502.05C369.611,2500.61 372.167,2499.5 374.63,2498.49C384.58,2494.4 391.957,2492.34 397.655,2492.34C399.111,2492.37 400.234,2491.67 401.247,2490.68C410.182,2489.28 418.44,2489.81 427.029,2492.71C428.098,2493.07 429.09,2493.62 430.121,2494.08C442.223,2500.25 452.052,2533.84 431.031,2561.44L431.686,2561.32C417.912,2582.72 395.136,2597.41 370.907,2604.12C316.301,2619.12 253.284,2613.67 207.929,2577.45L207.99,2577.95L205.108,2575.56C169.048,2544.76 154.376,2498.91 160.266,2452.24Z" style="fill:url(#_Linear9);fill-rule:nonzero;"/>
        </g>
        <g transform="matrix(1,0,0,1,1410.26,-1322.8)">
            <path d="M290.922,2605.61C290.922,2605.61 306.996,2637.79 318.58,2637.52C330.164,2637.25 324.391,2606.68 324.391,2606.68L290.922,2605.61Z" style="fill:url(#_Linear10);fill-rule:nonzero;"/>
        </g>
        <g transform="matrix(1,0,0,1,1410.26,-1322.8)">
            <path d="M160.266,2452.24C175.254,2461.94 191.572,2469.3 207.819,2476.6C236.565,2489.12 267.51,2499.43 286.935,2503.1C288.922,2503.48 291.197,2503.98 294.243,2504.71C295.707,2505.05 301.472,2506.46 302.808,2506.78C308.447,2508.12 312.754,2509.06 317.009,2509.81C325.932,2511.33 335.202,2512.43 344.124,2510.34C345.102,2510.81 346.131,2510.46 347.074,2510.23C349.725,2509.29 352.66,2508.1 356.363,2506.49C357.786,2505.87 359.251,2505.22 361.298,2504.31C361.84,2504.07 363.711,2503.23 363.815,2503.18C364.823,2502.73 365.599,2502.39 366.356,2502.05C369.611,2500.61 372.167,2499.5 374.63,2498.49C384.58,2494.4 391.957,2492.34 397.655,2492.34C399.111,2492.37 400.234,2491.67 401.247,2490.68C410.182,2489.28 418.44,2489.81 427.029,2492.71C428.098,2493.07 429.09,2493.62 430.121,2494.08C442.223,2500.25 452.052,2533.84 431.031,2561.44L431.686,2561.32C417.912,2582.72 395.136,2597.41 370.907,2604.12C316.301,2619.12 253.284,2613.67 207.929,2577.45L207.99,2577.95L205.108,2575.56C169.048,2544.76 154.376,2498.91 160.266,2452.24Z" style="fill:url(#_Linear11);fill-rule:nonzero;"/>
        </g>
        <g transform="matrix(1,0,0,1,1410.26,-1322.8)">
            <path d="M347.634,2487.21C348.021,2485.92 339.834,2483.6 337.862,2484.55C335.889,2485.5 347.096,2489 347.634,2487.21Z" style="fill:rgb(89,255,78);fill-rule:nonzero;"/>
        </g>
        <g transform="matrix(1,0,0,1,1410.26,-1322.8)">
            <path d="M429.378,2497.47C428.64,2495.36 420.623,2491.64 417.118,2493.99C413.614,2496.34 430.435,2500.48 429.378,2497.47Z" style="fill:white;fill-rule:nonzero;"/>
        </g>
    </g>
    <defs>
        <linearGradient id="_Linear1" x1="0" y1="0" x2="1" y2="0" gradientUnits="userSpaceOnUse" gradientTransform="matrix(27.368,22.374,-22.374,27.368,403.409,2557.61)"><stop offset="0" style="stop-color:rgb(10,255,245);stop-opacity:1"/><stop offset="1" style="stop-color:rgb(19,255,250);stop-opacity:0"/></linearGradient>
        <linearGradient id="_Linear2" x1="0" y1="0" x2="1" y2="0" gradientUnits="userSpaceOnUse" gradientTransform="matrix(-39.138,54.69,-54.69,-39.138,267.626,2562.04)"><stop offset="0" style="stop-color:rgb(10,255,245);stop-opacity:1"/><stop offset="1" style="stop-color:rgb(19,255,250);stop-opacity:0"/></linearGradient>
        <radialGradient id="_Radial3" cx="0" cy="0" r="1" gradientUnits="userSpaceOnUse" gradientTransform="matrix(335.597,0,0,335.597,487.994,2144.94)"><stop offset="0" style="stop-color:rgb(251,255,0);stop-opacity:1"/><stop offset="1" style="stop-color:rgb(253,255,0);stop-opacity:0"/></radialGradient>
        <linearGradient id="_Linear4" x1="0" y1="0" x2="1" y2="0" gradientUnits="userSpaceOnUse" gradientTransform="matrix(-3.127,-139.642,139.642,-3.127,284.42,2693.38)"><stop offset="0" style="stop-color:rgb(10,255,245);stop-opacity:1"/><stop offset="1" style="stop-color:rgb(19,255,250);stop-opacity:0"/></linearGradient>
        <linearGradient id="_Linear5" x1="0" y1="0" x2="1" y2="0" gradientUnits="userSpaceOnUse" gradientTransform="matrix(-267.372,-0.961,0.961,-267.372,436.154,2583.28)"><stop offset="0" style="stop-color:rgb(5,255,242);stop-opacity:0"/><stop offset="0.44" style="stop-color:rgb(10,255,245);stop-opacity:0.470588"/><stop offset="1" style="stop-color:rgb(19,255,250);stop-opacity:0"/></linearGradient>
        <linearGradient id="_Linear6" x1="0" y1="0" x2="1" y2="0" gradientUnits="userSpaceOnUse" gradientTransform="matrix(-240.854,5.1353,-5.1353,-240.854,383.431,2532.31)"><stop offset="0" style="stop-color:rgb(5,255,242);stop-opacity:0"/><stop offset="0.44" style="stop-color:rgb(10,255,245);stop-opacity:1"/><stop offset="1" style="stop-color:rgb(19,255,250);stop-opacity:0"/></linearGradient>
        <radialGradient id="_Radial7" cx="0" cy="0" r="1" gradientUnits="userSpaceOnUse" gradientTransform="matrix(173.27,0,0,173.27,513.557,2392.05)"><stop offset="0" style="stop-color:rgb(251,255,0);stop-opacity:1"/><stop offset="1" style="stop-color:rgb(253,255,0);stop-opacity:0"/></radialGradient>
        <radialGradient id="_Radial8" cx="0" cy="0" r="1" gradientUnits="userSpaceOnUse" gradientTransform="matrix(130.381,0,0,130.381,87.267,2322.92)"><stop offset="0" style="stop-color:rgb(251,255,0);stop-opacity:1"/><stop offset="1" style="stop-color:rgb(253,255,0);stop-opacity:0"/></radialGradient>
        <linearGradient id="_Linear9" x1="0" y1="0" x2="1" y2="0" gradientUnits="userSpaceOnUse" gradientTransform="matrix(109.863,-76.771,76.771,109.863,91.376,2609.14)"><stop offset="0" style="stop-color:rgb(10,255,245);stop-opacity:1"/><stop offset="1" style="stop-color:rgb(19,255,250);stop-opacity:0"/></linearGradient>
        <linearGradient id="_Linear10" x1="0" y1="0" x2="1" y2="0" gradientUnits="userSpaceOnUse" gradientTransform="matrix(5.359,73.275,-73.275,5.359,304.758,2560.45)"><stop offset="0" style="stop-color:rgb(10,255,245);stop-opacity:1"/><stop offset="1" style="stop-color:rgb(19,255,250);stop-opacity:0"/></linearGradient>
        <linearGradient id="_Linear11" x1="0" y1="0" x2="1" y2="0" gradientUnits="userSpaceOnUse" gradientTransform="matrix(-83.261,-82.645,82.645,-83.261,505.206,2618.49)"><stop offset="0" style="stop-color:rgb(10,255,245);stop-opacity:1"/><stop offset="1" style="stop-color:rgb(19,255,250);stop-opacity:0"/></linearGradient>
    </defs>
</svg>
