<?xml version="1.0" encoding="UTF-8" standalone="no"?>
<!DOCTYPE svg PUBLIC "-//W3C//DTD SVG 1.1//EN" "http://www.w3.org/Graphics/SVG/1.1/DTD/svg11.dtd">
<svg width="100%" height="100%" viewBox="0 0 75 91" version="1.1" xmlns="http://www.w3.org/2000/svg" xmlns:xlink="http://www.w3.org/1999/xlink" xml:space="preserve" xmlns:serif="http://www.serif.com/" style="fill-rule:evenodd;clip-rule:evenodd;stroke-linejoin:round;stroke-miterlimit:1.41421;">
    <g transform="matrix(1,0,0,1,-252.55,-599.5)">
        <g transform="matrix(1,0,0,1,40,120)">
            <path d="M280.2,559.05L278.8,557C277.467,559.833 275.583,562.667 273.15,565.5L276.6,568.95C277,569.35 277.45,569.567 277.95,569.6C278.483,569.533 278.933,569.317 279.3,568.95L286.85,561.4C287.15,561.1 287.333,560.75 287.4,560.35C287.467,559.95 287.417,559.567 287.25,559.2C287.05,558.8 286.75,558.5 286.35,558.3C286.017,558.167 285.65,558.133 285.25,558.2L280.2,559.05Z" style="fill:rgb(182,123,63);fill-rule:nonzero;"/>
        </g>
        <g transform="matrix(1,0,0,1,40,120)">
            <path d="M270.95,546.7C270.55,546.767 270.217,546.933 269.95,547.2L263.75,553.4C263.383,553.767 263.183,554.233 263.15,554.8C263.183,555.3 263.383,555.75 263.75,556.15L273.15,565.5C275.583,562.667 277.467,559.833 278.8,557L272.95,547.6C272.717,547.233 272.417,546.983 272.05,546.85C271.683,546.65 271.317,546.6 270.95,546.7Z" style="fill:rgb(166,108,50);fill-rule:nonzero;"/>
        </g>
        <g transform="matrix(1,0,0,1,40,120)">
            <path d="M223.45,569.05L226.9,565.6C224.433,562.733 222.533,559.883 221.2,557.05L219.85,559.1L214.75,558.25C214.35,558.183 213.983,558.217 213.65,558.35C213.25,558.55 212.95,558.85 212.75,559.25C212.55,559.583 212.5,559.967 212.6,560.4C212.667,560.8 212.85,561.15 213.15,561.45L220.7,569C221.067,569.367 221.517,569.583 222.05,569.65C222.583,569.65 223.05,569.45 223.45,569.05Z" style="fill:rgb(182,123,63);fill-rule:nonzero;"/>
        </g>
        <g transform="matrix(1,0,0,1,40,120)">
            <path d="M230.1,547.3C229.833,547 229.483,546.817 229.05,546.75C228.683,546.65 228.317,546.7 227.95,546.9C227.583,547.033 227.283,547.283 227.05,547.65L221.2,557.05C222.533,559.883 224.433,562.733 226.9,565.6L236.3,556.25C236.667,555.85 236.85,555.383 236.85,554.85C236.817,554.283 236.617,553.817 236.25,553.45L230.1,547.3Z" style="fill:rgb(166,108,50);fill-rule:nonzero;"/>
        </g>
        <g transform="matrix(1,0,0,1,40,120)">
            <path d="M232.45,565.55C233.15,565.917 233.867,566.283 234.6,566.65C239.167,568.883 244.3,570 250,570C255.733,570 260.883,568.883 265.45,566.65C266.183,566.283 266.9,565.9 267.6,565.5C267.533,565.067 267.467,564.633 267.4,564.2C266.667,560.033 265.05,556.367 262.55,553.2C259.083,548.833 254.9,546.65 250,546.65C245.1,546.65 240.917,548.833 237.45,553.2C234.683,556.733 233.017,560.85 232.45,565.55M228.75,515.05C222.883,522.583 219.95,531.683 219.95,542.35C219.95,542.683 219.95,543 219.95,543.3C220.15,533.1 223.083,524.35 228.75,517.05C234.617,509.483 241.7,505.7 250,505.7C258.3,505.7 265.383,509.483 271.25,517.05C276.917,524.35 279.85,533.117 280.05,543.35C280.05,543.017 280.05,542.683 280.05,542.35C280.05,531.683 277.117,522.583 271.25,515.05C265.383,507.483 258.3,503.7 250,503.7C241.7,503.7 234.617,507.483 228.75,515.05Z" style="fill:rgb(201,140,79);fill-rule:nonzero;"/>
        </g>
        <g transform="matrix(1,0,0,1,40,120)">
            <path d="M228.75,517.05C223.083,524.35 220.15,533.1 219.95,543.3C219.95,543.733 219.967,544.167 220,544.6C219.967,544.867 219.95,545.133 219.95,545.4C219.95,545.6 219.95,545.8 219.95,546C219.95,546.333 219.967,546.683 220,547.05C220.267,553.183 223.183,558.483 228.75,562.95C229.95,563.917 231.183,564.783 232.45,565.55C233.017,560.85 234.683,556.733 237.45,553.2C240.917,548.833 245.1,546.65 250,546.65C254.9,546.65 259.083,548.833 262.55,553.2C265.05,556.367 266.667,560.033 267.4,564.2C267.467,564.633 267.533,565.067 267.6,565.5C268.3,565.067 268.983,564.633 269.65,564.2C270.183,563.8 270.717,563.383 271.25,562.95C276.817,558.483 279.75,553.183 280.05,547.05L280.05,545.4C280.05,545.133 280.033,544.867 280,544.6C280.033,544.167 280.05,543.75 280.05,543.35C279.85,533.117 276.917,524.35 271.25,517.05C265.383,509.483 258.3,505.7 250,505.7C241.7,505.7 234.617,509.483 228.75,517.05Z" style="fill:rgb(182,123,63);fill-rule:nonzero;"/>
        </g>
        <g transform="matrix(1,0,0,1,40,120)">
            <path d="M247.4,486.05C246.7,483.017 245.383,481.5 243.45,481.5C241.517,481.5 239.333,483 236.9,486C235.033,488.267 234.017,491.117 233.85,494.55C233.883,494.95 233.917,495.367 233.95,495.8C234.417,500.7 235.633,504.95 237.6,508.55C239.567,512.117 241.517,513.9 243.45,513.9C245.383,513.9 246.7,512.05 247.4,508.35C248,505.183 248.35,501.633 248.45,497.7L248.45,496.2L248.45,495.7C248.35,491.867 248,488.65 247.4,486.05M242.15,490.1C242.317,490.067 242.483,490.05 242.65,490.05C243.75,490.05 244.5,490.9 244.9,492.6C245.267,494.333 245.45,496.517 245.45,499.15C245.45,501.783 245.267,504.133 244.9,506.2C244.5,508.3 243.75,509.35 242.65,509.35C242.483,509.35 242.317,509.333 242.15,509.3C241.25,509 240.317,508.017 239.35,506.35C238.25,504.317 237.567,501.933 237.3,499.2C237.033,496.433 237.6,494.233 239,492.6C240.167,491.167 241.217,490.333 242.15,490.1M263.1,486C260.667,483 258.483,481.5 256.55,481.5C254.617,481.5 253.3,483.017 252.6,486.05C252,488.65 251.65,491.867 251.55,495.7L251.55,497.7C251.65,501.633 252,505.183 252.6,508.35C253.3,512.05 254.617,513.9 256.55,513.9C258.483,513.9 260.433,512.117 262.4,508.55C264.367,504.95 265.583,500.7 266.05,495.8C266.083,495.367 266.117,494.95 266.15,494.55C265.983,491.117 264.967,488.267 263.1,486M257.9,490.1C258.833,490.333 259.883,491.167 261.05,492.6C262.383,494.233 262.933,496.433 262.7,499.2C262.433,501.933 261.75,504.317 260.65,506.35C259.717,508.017 258.8,509 257.9,509.3C257.733,509.333 257.567,509.35 257.4,509.35C256.3,509.35 255.55,508.3 255.15,506.2C254.783,504.133 254.6,501.783 254.6,499.15C254.6,496.517 254.783,494.333 255.15,492.6C255.55,490.9 256.3,490.05 257.4,490.05C257.567,490.05 257.733,490.067 257.9,490.1Z" style="fill:rgb(182,123,63);fill-rule:nonzero;"/>
        </g>
        <g transform="matrix(1,0,0,1,40,120)">
            <path d="M242.65,490.05C242.483,490.05 242.317,490.067 242.15,490.1C241.217,490.333 240.167,491.167 239,492.6C237.6,494.233 237.033,496.433 237.3,499.2C237.567,501.933 238.25,504.317 239.35,506.35C240.317,508.017 241.25,509 242.15,509.3C242.317,509.333 242.483,509.35 242.65,509.35C243.75,509.35 244.5,508.3 244.9,506.2C245.267,504.133 245.45,501.783 245.45,499.15C245.45,496.517 245.267,494.333 244.9,492.6C244.5,490.9 243.75,490.05 242.65,490.05M261.05,492.6C259.883,491.167 258.833,490.333 257.9,490.1C257.733,490.067 257.567,490.05 257.4,490.05C256.3,490.05 255.55,490.9 255.15,492.6C254.783,494.333 254.6,496.517 254.6,499.15C254.6,501.783 254.783,504.133 255.15,506.2C255.55,508.3 256.3,509.35 257.4,509.35C257.567,509.35 257.733,509.333 257.9,509.3C258.8,509 259.717,508.017 260.65,506.35C261.75,504.317 262.433,501.933 262.7,499.2C262.933,496.433 262.383,494.233 261.05,492.6Z" style="fill:rgb(170,113,54);fill-rule:nonzero;"/>
        </g>
        <g transform="matrix(1,0,0,1,40,120)">
            <path d="M243.45,481.5C245.383,481.5 246.7,483.017 247.4,486.05C248,488.65 248.35,491.867 248.45,495.7C248.45,490.967 248.1,487.083 247.4,484.05C246.7,481.017 245.383,479.5 243.45,479.5C241.517,479.5 239.333,481 236.9,484C234.667,486.7 233.65,490.217 233.85,494.55C234.017,491.117 235.033,488.267 236.9,486C239.333,483 241.517,481.5 243.45,481.5M263.1,484C260.667,481 258.483,479.5 256.55,479.5C254.617,479.5 253.3,481.017 252.6,484.05C251.9,487.083 251.55,490.967 251.55,495.7C251.65,491.867 252,488.65 252.6,486.05C253.3,483.017 254.617,481.5 256.55,481.5C258.483,481.5 260.667,483 263.1,486C264.967,488.267 265.983,491.117 266.15,494.55C266.35,490.217 265.333,486.7 263.1,484Z" style="fill:rgb(201,140,79);fill-rule:nonzero;"/>
        </g>
        <g id="Layer0_46_MEMBER_3_FILL" transform="matrix(1,0,0,1,40,120)">
            <path d="M261.95,523C259.783,523 257.933,523.767 256.4,525.3C254.867,526.833 254.1,528.683 254.1,530.85C254.1,533.017 254.867,534.867 256.4,536.4C257.933,537.933 259.783,538.7 261.95,538.7C264.117,538.7 265.967,537.933 267.5,536.4C269.033,534.867 269.8,533.017 269.8,530.85C269.8,528.683 269.033,526.833 267.5,525.3C265.967,523.767 264.117,523 261.95,523M232.55,525.3C231.017,526.833 230.25,528.683 230.25,530.85C230.25,533.017 231.017,534.867 232.55,536.4C234.083,537.933 235.933,538.7 238.1,538.7C240.267,538.7 242.117,537.933 243.65,536.4C245.183,534.867 245.95,533.017 245.95,530.85C245.95,528.683 245.183,526.833 243.65,525.3C242.117,523.767 240.267,523 238.1,523C235.933,523 234.083,523.767 232.55,525.3Z" style="fill:rgb(201,140,79);fill-rule:nonzero;"/>
        </g>
        <g id="Layer0_46_MEMBER_4_FILL" transform="matrix(1,0,0,1,40,120)">
            <path d="M252.35,534.9C251.983,535.067 251.733,535.333 251.6,535.7C251.533,535.9 251.417,536.1 251.25,536.3L251.2,536.3C250.867,536.633 250.467,536.8 250,536.8C249.533,536.8 249.133,536.633 248.8,536.3C248.633,536.133 248.517,535.95 248.45,535.75L248.45,535.7C248.283,535.333 248.033,535.083 247.7,534.95C247.367,534.75 247,534.717 246.6,534.85C246.233,534.983 245.983,535.233 245.85,535.6C245.683,535.933 245.667,536.283 245.8,536.65C246,537.25 246.333,537.8 246.8,538.3C247.7,539.167 248.767,539.6 250,539.6C251.267,539.6 252.333,539.167 253.2,538.3C253.667,537.8 254.017,537.267 254.25,536.7C254.383,536.333 254.367,535.983 254.2,535.65L254.2,535.6C254.033,535.267 253.783,535.033 253.45,534.9C253.083,534.733 252.717,534.733 252.35,534.9M259.75,528.15C258.683,528.15 257.783,528.517 257.05,529.25C256.317,529.983 255.95,530.867 255.95,531.9C255.95,532.967 256.317,533.867 257.05,534.6C257.783,535.333 258.683,535.7 259.75,535.7C260.783,535.7 261.667,535.333 262.4,534.6C263.133,533.867 263.5,532.967 263.5,531.9C263.5,530.867 263.133,529.983 262.4,529.25C261.667,528.517 260.783,528.15 259.75,528.15M237.6,529.25C236.867,529.983 236.5,530.867 236.5,531.9C236.5,532.967 236.867,533.867 237.6,534.6C238.333,535.333 239.217,535.7 240.25,535.7C241.317,535.7 242.217,535.333 242.95,534.6C243.683,533.867 244.05,532.967 244.05,531.9C244.05,530.867 243.683,529.983 242.95,529.25C242.217,528.517 241.317,528.15 240.25,528.15C239.217,528.15 238.333,528.517 237.6,529.25Z" style="fill:rgb(72,44,17);fill-rule:nonzero;"/>
        </g>
        <g id="Layer0_46_MEMBER_5_FILL" transform="matrix(1,0,0,1,40,120)">
            <path d="M245.5,516.25C244.767,516.383 244.217,516.717 243.85,517.25C243.383,517.85 243.2,518.5 243.3,519.2C243.433,519.9 243.8,520.467 244.4,520.9C244.9,521.333 245.533,521.483 246.3,521.35C246.967,521.25 247.517,520.917 247.95,520.35C248.35,519.75 248.517,519.117 248.45,518.45C248.317,517.75 247.967,517.167 247.4,516.7C246.833,516.3 246.2,516.15 245.5,516.25M246.45,511C245.917,511.1 245.483,511.35 245.15,511.75C244.85,512.217 244.75,512.717 244.85,513.25C244.95,513.783 245.2,514.183 245.6,514.45C246.033,514.783 246.517,514.917 247.05,514.85C247.583,514.75 248,514.5 248.3,514.1C248.633,513.667 248.75,513.183 248.65,512.65C248.583,512.083 248.333,511.65 247.9,511.35C247.467,511.05 246.983,510.933 246.45,511M252.8,511.8C251.9,511.967 251.15,512.417 250.55,513.15C250.017,513.95 249.817,514.817 249.95,515.75C250.083,516.683 250.533,517.417 251.3,517.95C252.067,518.517 252.917,518.733 253.85,518.6C254.75,518.4 255.483,517.933 256.05,517.2C256.617,516.467 256.833,515.633 256.7,514.7C256.567,513.767 256.117,513 255.35,512.4C254.583,511.867 253.733,511.667 252.8,511.8Z" style="fill:rgb(166,108,50);fill-rule:nonzero;"/>
        </g>
    </g>
</svg>
