<?xml version="1.0" encoding="UTF-8" standalone="no"?>
<!DOCTYPE svg PUBLIC "-//W3C//DTD SVG 1.1//EN" "http://www.w3.org/Graphics/SVG/1.1/DTD/svg11.dtd">
<svg width="100%" height="100%" viewBox="0 0 760 447" version="1.1" xmlns="http://www.w3.org/2000/svg" xmlns:xlink="http://www.w3.org/1999/xlink" xml:space="preserve" xmlns:serif="http://www.serif.com/" style="fill-rule:evenodd;clip-rule:evenodd;stroke-linejoin:round;stroke-miterlimit:1.41421;">
    <g transform="matrix(1,0,0,1,-620.375,-323.425)">
        <g transform="matrix(1,0,0,1,1024,1024)">
            <path d="M-95.612,-256.169L-371.096,-336.855C-395.305,-343.946 -408.759,-369.187 -401.791,-392.979L-321.227,-668.045C-314.136,-692.254 -288.895,-705.709 -265.103,-698.741L10.381,-618.054C34.59,-610.963 48.045,-585.722 41.076,-561.93L-39.61,-286.447C-46.874,-263.194 -71.82,-249.2 -95.612,-256.169Z" style="fill:rgb(254,229,164);fill-rule:nonzero;"/>
        </g>
        <g transform="matrix(1,0,0,1,1024,1024)">
            <path d="M311.404,-254.373L30.467,-254.373C5.779,-254.373 -13.802,-274.38 -13.802,-298.642L-13.802,-579.154C-13.802,-603.842 6.205,-623.422 30.467,-623.422L311.404,-623.422C336.093,-623.422 355.673,-603.416 355.673,-579.154L355.673,-298.217C355.247,-274.38 335.667,-254.373 311.404,-254.373Z" style="fill:rgb(254,203,77);fill-rule:nonzero;"/>
        </g>
        <g transform="matrix(1,0,0,1,1024,1024)">
            <path d="M-313.976,-407.16C-314.477,-405.171 -313.824,-403.949 -312.016,-403.493L-271.063,-393.168C-269.255,-392.712 -268.1,-393.479 -267.599,-395.468L-233.206,-531.885L-205.001,-524.774C-203.012,-524.273 -201.767,-525.016 -201.265,-527.005L-191.761,-564.703C-191.26,-566.692 -192.003,-567.937 -193.992,-568.439L-296.509,-594.284C-298.498,-594.786 -299.743,-594.042 -300.244,-592.053L-309.748,-554.355C-310.25,-552.367 -309.506,-551.121 -307.517,-550.62L-279.583,-543.577L-313.976,-407.16Z" style="fill:rgb(253,121,119);fill-rule:nonzero;"/>
        </g>
        <g transform="matrix(1,0,0,1,1024,1024)">
            <path d="M45.861,-518.228C44.864,-517.978 44.054,-517.355 43.43,-516.357C42.807,-515.36 42.744,-514.238 43.243,-512.991L92.618,-342.051C92.867,-341.302 93.428,-340.617 94.301,-339.993C95.174,-339.37 95.984,-339.058 96.732,-339.058L148.725,-339.058C150.72,-339.058 151.967,-340.056 152.465,-342.051L200.718,-512.991C201.466,-515.485 200.593,-517.23 198.099,-518.228L142.74,-532.815C139.997,-533.564 138.376,-532.317 137.877,-529.075C136.132,-516.357 134.386,-503.328 132.641,-489.987C130.895,-476.646 129.274,-463.616 127.778,-450.899C127.279,-446.909 126.781,-443.044 126.282,-439.303C125.783,-435.563 125.284,-431.947 124.786,-428.456C124.536,-427.957 124.412,-427.084 124.412,-425.837C123.664,-430.077 122.978,-434.254 122.354,-438.368C121.731,-442.483 121.17,-446.66 120.671,-450.899L110.946,-529.075C110.447,-532.317 108.702,-533.564 105.709,-532.815L45.861,-518.228Z" style="fill:rgb(253,121,119);fill-rule:nonzero;"/>
        </g>
        <g transform="matrix(1,0,0,1,1024,1024)">
            <path d="M294.575,-454.806C294.575,-456.866 293.638,-457.896 291.765,-457.896L254.681,-457.896L254.681,-486.272L288.113,-486.272C290.173,-486.272 291.203,-487.208 291.203,-489.081L291.203,-525.603C291.203,-527.664 290.173,-528.694 288.113,-528.694L209.449,-528.694C207.389,-528.694 206.359,-527.664 206.359,-525.603L206.359,-342.149C206.359,-340.088 207.389,-339.058 209.449,-339.058L299.351,-339.058C301.411,-339.058 302.441,-340.088 302.441,-342.149L302.441,-378.671C302.441,-380.544 301.411,-381.48 299.351,-381.48L254.681,-381.48L254.681,-416.879L291.765,-416.879C293.638,-416.879 294.575,-417.909 294.575,-419.969L294.575,-454.806Z" style="fill:rgb(253,121,119);fill-rule:nonzero;"/>
        </g>
        <g transform="matrix(1,0,0,1,1024,1024)">
            <path d="M-179.352,-364.493C-169.303,-361.464 -159.575,-360.692 -150.168,-362.179C-140.761,-363.665 -131.844,-367.722 -123.416,-374.352C-114.988,-380.982 -107.2,-390.387 -100.051,-402.566C-92.901,-414.746 -86.531,-430.112 -80.939,-448.663C-78.143,-457.939 -75.892,-468.38 -74.185,-479.987C-72.479,-491.594 -72.522,-502.99 -74.315,-514.176C-76.108,-525.362 -80.232,-535.459 -86.687,-544.466C-93.142,-553.474 -103.133,-560.016 -116.66,-564.094C-128.642,-567.705 -139.869,-567.874 -150.341,-564.601C-160.814,-561.328 -170.265,-555.85 -178.694,-548.167C-187.123,-540.484 -194.433,-531.093 -200.624,-519.994C-206.815,-508.896 -211.745,-497.26 -215.415,-485.085C-219.026,-473.104 -221.526,-460.788 -222.915,-448.137C-224.304,-435.486 -223.88,-423.605 -221.642,-412.496C-219.404,-401.387 -214.937,-391.556 -208.239,-383.002C-201.542,-374.449 -191.913,-368.279 -179.352,-364.493ZM-165.58,-408.088C-170.99,-409.719 -173.486,-415.952 -173.066,-426.787C-172.646,-437.622 -169.602,-452.094 -163.933,-470.2C-161.545,-478.124 -159.042,-485.38 -156.423,-491.968C-153.805,-498.557 -151.077,-504.112 -148.239,-508.632C-145.401,-513.152 -142.608,-516.473 -139.86,-518.596C-137.112,-520.719 -134.385,-521.373 -131.68,-520.558C-128.974,-519.742 -127.112,-517.705 -126.091,-514.446C-125.071,-511.187 -124.709,-506.968 -125.006,-501.787C-125.302,-496.606 -126.214,-490.61 -127.74,-483.797C-129.267,-476.985 -131.195,-469.713 -133.525,-461.984C-139.116,-443.432 -144.601,-429.433 -149.978,-419.986C-155.354,-410.54 -160.555,-406.574 -165.58,-408.088ZM-142.892,-573.581C-137.481,-571.95 -132.105,-572.649 -126.766,-575.677C-121.426,-578.705 -117.854,-583.215 -116.048,-589.205C-114.184,-595.389 -114.64,-601.218 -117.417,-606.693C-120.194,-612.168 -124.288,-615.72 -129.699,-617.351C-135.11,-618.982 -140.533,-618.298 -145.969,-615.299C-151.406,-612.3 -155.056,-607.708 -156.919,-601.524C-158.725,-595.534 -158.24,-589.801 -155.463,-584.327C-152.686,-578.852 -148.496,-575.27 -142.892,-573.581ZM-93.904,-558.815C-88.299,-557.126 -82.828,-557.796 -77.488,-560.824C-72.148,-563.852 -68.576,-568.362 -66.77,-574.352C-64.906,-580.536 -65.363,-586.365 -68.139,-591.84C-70.916,-597.315 -75.107,-600.897 -80.711,-602.586C-85.928,-604.158 -91.255,-603.445 -96.692,-600.446C-102.128,-597.447 -105.778,-592.855 -107.642,-586.672C-109.447,-580.681 -108.962,-574.948 -106.185,-569.474C-103.408,-563.999 -99.315,-560.446 -93.904,-558.815Z" style="fill:rgb(253,121,119);fill-rule:nonzero;"/>
        </g>
    </g>
</svg>
